  0
SECTION
  2
HEADER
  9
$ACADVER
  1
AC1027
  9
$ACADMAINTVER
 70
     8
  9
$DWGCODEPAGE
  3
ANSI_1252
  9
$REQUIREDVERSIONS
160
                 0
  9
$INSBASE
 10
0.0
 20
0.0
 30
0.0
  9
$EXTMIN
 10
1.000000000000000E+20
 20
1.000000000000000E+20
 30
1.000000000000000E+20
  9
$EXTMAX
 10
-1.000000000000000E+20
 20
-1.000000000000000E+20
 30
-1.000000000000000E+20
  9
$LIMMIN
 10
0.0
 20
0.0
  9
$LIMMAX
 10
12.0
 20
9.0
  9
$ORTHOMODE
 70
     0
  9
$REGENMODE
 70
     1
  9
$FILLMODE
 70
     1
  9
$QTEXTMODE
 70
     0
  9
$MIRRTEXT
 70
     1
  9
$LTSCALE
 40
1.0
  9
$ATTMODE
 70
     1
  9
$TEXTSIZE
 40
0.2
  9
$TRACEWID
 40
0.05
  9
$TEXTSTYLE
  7
Standard
  9
$CLAYER
  8
0
  9
$CELTYPE
  6
ByLayer
  9
$CECOLOR
 62
    18
  9
$CELTSCALE
 40
1.0
  9
$DISPSILH
 70
     0
  9
$DIMSCALE
 40
1.0
  9
$DIMASZ
 40
2.5
  9
$DIMEXO
 40
0.625
  9
$DIMDLI
 40
0.38
  9
$DIMRND
 40
0.0
  9
$DIMDLE
 40
0.0
  9
$DIMEXE
 40
1.25
  9
$DIMTP
 40
0.0
  9
$DIMTM
 40
0.0
  9
$DIMTXT
 40
2.5
  9
$DIMCEN
 40
0.09
  9
$DIMTSZ
 40
0.0
  9
$DIMTOL
 70
     0
  9
$DIMLIM
 70
     0
  9
$DIMTIH
 70
     1
  9
$DIMTOH
 70
     1
  9
$DIMSE1
 70
     0
  9
$DIMSE2
 70
     0
  9
$DIMTAD
 70
     0
  9
$DIMZIN
 70
     8
  9
$DIMBLK
  1

  9
$DIMASO
 70
     1
  9
$DIMSHO
 70
     1
  9
$DIMPOST
  1

  9
$DIMAPOST
  1

  9
$DIMALT
 70
     0
  9
$DIMALTD
 70
     2
  9
$DIMALTF
 40
25.4
  9
$DIMLFAC
 40
1.0
  9
$DIMTOFL
 70
     0
  9
$DIMTVP
 40
0.0
  9
$DIMTIX
 70
     0
  9
$DIMSOXD
 70
     0
  9
$DIMSAH
 70
     0
  9
$DIMBLK1
  1

  9
$DIMBLK2
  1

  9
$DIMSTYLE
  2
Standard
  9
$DIMCLRD
 70
    18
  9
$DIMCLRE
 70
    18
  9
$DIMCLRT
 70
    18
  9
$DIMTFAC
 40
1.0
  9
$DIMGAP
 40
0.625
  9
$DIMJUST
 70
     0
  9
$DIMSD1
 70
     0
  9
$DIMSD2
 70
     0
  9
$DIMTOLJ
 70
     1
  9
$DIMTZIN
 70
     0
  9
$DIMALTZ
 70
     0
  9
$DIMALTTZ
 70
     0
  9
$DIMUPT
 70
     0
  9
$DIMDEC
 70
     4
  9
$DIMTDEC
 70
     4
  9
$DIMALTU
 70
     2
  9
$DIMALTTD
 70
     2
  9
$DIMTXSTY
  7
Standard
  9
$DIMAUNIT
 70
     0
  9
$DIMADEC
 70
     0
  9
$DIMALTRND
 40
0.0
  9
$DIMAZIN
 70
     2
  9
$DIMDSEP
 70
    46
  9
$DIMATFIT
 70
     3
  9
$DIMFRAC
 70
     0
  9
$DIMLDRBLK
  1

  9
$DIMLUNIT
 70
     2
  9
$DIMLWD
 70
    -2
  9
$DIMLWE
 70
    -2
  9
$DIMTMOVE
 70
     0
  9
$DIMFXL
 40
1.0
  9
$DIMFXLON
 70
     0
  9
$DIMJOGANG
 40
0.7853981633974483
  9
$DIMTFILL
 70
     0
  9
$DIMTFILLCLR
 70
     0
  9
$DIMARCSYM
 70
     0
  9
$DIMLTYPE
  6

  9
$DIMLTEX1
  6

  9
$DIMLTEX2
  6

  9
$DIMTXTDIRECTION
 70
     0
  9
$LUNITS
 70
     2
  9
$LUPREC
 70
     4
  9
$SKETCHINC
 40
0.1
  9
$FILLETRAD
 40
0.5
  9
$AUNITS
 70
     0
  9
$AUPREC
 70
     0
  9
$MENU
  1
.
  9
$ELEVATION
 40
0.0
  9
$PELEVATION
 40
0.0
  9
$THICKNESS
 40
0.0
  9
$LIMCHECK
 70
     0
  9
$CHAMFERA
 40
0.0
  9
$CHAMFERB
 40
0.0
  9
$CHAMFERC
 40
0.0
  9
$CHAMFERD
 40
0.0
  9
$SKPOLY
 70
     0
  9
$TDCREATE
 40
2457858.847032731
  9
$TDUCREATE
 40
2457858.763699398
  9
$TDUPDATE
 40
2457858.847032905
  9
$TDUUPDATE
 40
2457858.763699572
  9
$TDINDWG
 40
0.0000000116
  9
$TDUSRTIMER
 40
0.0000000116
  9
$USRTIMER
 70
     1
  9
$ANGBASE
 50
0.0
  9
$ANGDIR
 70
     0
  9
$PDMODE
 70
     0
  9
$PDSIZE
 40
0.0
  9
$PLINEWID
 40
0.0
  9
$SPLFRAME
 70
     0
  9
$SPLINETYPE
 70
     6
  9
$SPLINESEGS
 70
     8
  9
$HANDSEED
  5
70E
  9
$SURFTAB1
 70
     6
  9
$SURFTAB2
 70
     6
  9
$SURFTYPE
 70
     6
  9
$SURFU
 70
     6
  9
$SURFV
 70
     6
  9
$UCSBASE
  2

  9
$UCSNAME
  2

  9
$UCSORG
 10
0.0
 20
0.0
 30
0.0
  9
$UCSXDIR
 10
1.0
 20
0.0
 30
0.0
  9
$UCSYDIR
 10
0.0
 20
1.0
 30
0.0
  9
$UCSORTHOREF
  2

  9
$UCSORTHOVIEW
 70
     0
  9
$UCSORGTOP
 10
0.0
 20
0.0
 30
0.0
  9
$UCSORGBOTTOM
 10
0.0
 20
0.0
 30
0.0
  9
$UCSORGLEFT
 10
0.0
 20
0.0
 30
0.0
  9
$UCSORGRIGHT
 10
0.0
 20
0.0
 30
0.0
  9
$UCSORGFRONT
 10
0.0
 20
0.0
 30
0.0
  9
$UCSORGBACK
 10
0.0
 20
0.0
 30
0.0
  9
$PUCSBASE
  2

  9
$PUCSNAME
  2

  9
$PUCSORG
 10
0.0
 20
0.0
 30
0.0
  9
$PUCSXDIR
 10
1.0
 20
0.0
 30
0.0
  9
$PUCSYDIR
 10
0.0
 20
1.0
 30
0.0
  9
$PUCSORTHOREF
  2

  9
$PUCSORTHOVIEW
 70
     0
  9
$PUCSORGTOP
 10
0.0
 20
0.0
 30
0.0
  9
$PUCSORGBOTTOM
 10
0.0
 20
0.0
 30
0.0
  9
$PUCSORGLEFT
 10
0.0
 20
0.0
 30
0.0
  9
$PUCSORGRIGHT
 10
0.0
 20
0.0
 30
0.0
  9
$PUCSORGFRONT
 10
0.0
 20
0.0
 30
0.0
  9
$PUCSORGBACK
 10
0.0
 20
0.0
 30
0.0
  9
$USERI1
 70
     0
  9
$USERI2
 70
     0
  9
$USERI3
 70
     0
  9
$USERI4
 70
     0
  9
$USERI5
 70
     0
  9
$USERR1
 40
0.0
  9
$USERR2
 40
0.0
  9
$USERR3
 40
0.0
  9
$USERR4
 40
0.0
  9
$USERR5
 40
0.0
  9
$WORLDVIEW
 70
     1
  9
$SHADEDGE
 70
     3
  9
$SHADEDIF
 70
    70
  9
$TILEMODE
 70
     1
  9
$MAXACTVP
 70
    64
  9
$PINSBASE
 10
0.0
 20
0.0
 30
0.0
  9
$PLIMCHECK
 70
     0
  9
$PEXTMIN
 10
1.000000000000000E+20
 20
1.000000000000000E+20
 30
1.000000000000000E+20
  9
$PEXTMAX
 10
-1.000000000000000E+20
 20
-1.000000000000000E+20
 30
-1.000000000000000E+20
  9
$PLIMMIN
 10
0.0
 20
0.0
  9
$PLIMMAX
 10
12.0
 20
9.0
  9
$UNITMODE
 70
     0
  9
$VISRETAIN
 70
     1
  9
$PLINEGEN
 70
     0
  9
$PSLTSCALE
 70
     1
  9
$TREEDEPTH
 70
  3020
  9
$CMLSTYLE
  2
Standard
  9
$CMLJUST
 70
     0
  9
$CMLSCALE
 40
1.0
  9
$PROXYGRAPHICS
 70
     1
  9
$MEASUREMENT
 70
     1
  9
$CELWEIGHT
370
    -1
  9
$ENDCAPS
280
     0
  9
$JOINSTYLE
280
     0
  9
$LWDISPLAY
290
     0
  9
$INSUNITS
 70
     4
  9
$HYPERLINKBASE
  1

  9
$STYLESHEET
  1

  9
$XEDIT
290
     1
  9
$CEPSNTYPE
380
     0
  9
$PSTYLEMODE
290
     1
  9
$FINGERPRINTGUID
  2
{10AABE23-274D-43B8-B4FE-AC368CDBBA3D}
  9
$VERSIONGUID
  2
{FAEB1C32-E019-11D5-929B-00C0DF256EC4}
  9
$EXTNAMES
290
     1
  9
$PSVPSCALE
 40
0.0
  9
$OLESTARTUP
290
     0
  9
$SORTENTS
280
   127
  9
$INDEXCTL
280
     0
  9
$HIDETEXT
280
     1
  9
$XCLIPFRAME
280
     2
  9
$HALOGAP
280
     0
  9
$OBSCOLOR
 70
   257
  9
$OBSLTYPE
280
     0
  9
$INTERSECTIONDISPLAY
280
     0
  9
$INTERSECTIONCOLOR
 70
   257
  9
$DIMASSOC
280
     2
  9
$PROJECTNAME
  1

  9
$CAMERADISPLAY
290
     0
  9
$LENSLENGTH
 40
50.0
  9
$CAMERAHEIGHT
 40
0.0
  9
$STEPSPERSEC
 40
2.0
  9
$STEPSIZE
 40
6.0
  9
$3DDWFPREC
 40
2.0
  9
$PSOLWIDTH
 40
0.25
  9
$PSOLHEIGHT
 40
4.0
  9
$LOFTANG1
 40
1.570796326794897
  9
$LOFTANG2
 40
1.570796326794897
  9
$LOFTMAG1
 40
0.0
  9
$LOFTMAG2
 40
0.0
  9
$LOFTPARAM
 70
     7
  9
$LOFTNORMALS
280
     1
  9
$LATITUDE
 40
37.795
  9
$LONGITUDE
 40
-122.394
  9
$NORTHDIRECTION
 40
0.0
  9
$TIMEZONE
 70
 -8000
  9
$LIGHTGLYPHDISPLAY
280
     1
  9
$TILEMODELIGHTSYNCH
280
     1
  9
$CMATERIAL
347
6A1
  9
$SOLIDHIST
280
     1
  9
$SHOWHIST
280
     1
  9
$DWFFRAME
280
     2
  9
$DGNFRAME
280
     2
  9
$REALWORLDSCALE
290
     1
  9
$INTERFERECOLOR
 62
   256
  9
$CSHADOW
280
     0
  9
$SHADOWPLANELOCATION
 40
0.0
  0
ENDSEC
  0
SECTION
  2
CLASSES
  0
CLASS
  1
ACDBDICTIONARYWDFLT
  2
AcDbDictionaryWithDefault
  3
ObjectDBX Classes
 90
        0
 91
        4
280
     0
281
     0
  0
CLASS
  1
VISUALSTYLE
  2
AcDbVisualStyle
  3
ObjectDBX Classes
 90
     4095
 91
        4
280
     0
281
     0
  0
CLASS
  1
MATERIAL
  2
AcDbMaterial
  3
ObjectDBX Classes
 90
     1153
 91
        4
280
     0
281
     0
  0
CLASS
  1
SCALE
  2
AcDbScale
  3
ObjectDBX Classes
 90
     1153
 91
        4
280
     0
281
     0
  0
CLASS
  1
SUN
  2
AcDbSun
  3
SCENEOE
 90
     1153
 91
        4
280
     0
281
     0
  0
CLASS
  1
DICTIONARYVAR
  2
AcDbDictionaryVar
  3
ObjectDBX Classes
 90
        0
 91
        4
280
     0
281
     0
  0
ENDSEC
  0
SECTION
  2
TABLES
  0
TABLE
  2
VPORT
  5
666
330
0
100
AcDbSymbolTable
 70
     1
  0
VPORT
  5
686
330
666
100
AcDbSymbolTableRecord
100
AcDbViewportTableRecord
  2
*Active
 70
     0
 10
0.0
 20
0.0
 11
1.0
 21
1.0
 12
10.42990654205607
 22
4.5
 13
0.0
 23
0.0
 14
0.5
 24
0.5
 15
0.5
 25
0.5
 16
0.0
 26
0.0
 36
1.0
 17
0.0
 27
0.0
 37
0.0
 40
9.0
 41
1.972972972850329
 42
50.0
 43
0.0
 44
0.0
 50
0.0
 51
0.0
 71
     0
 72
   100
 73
     1
 74
     3
 75
     0
 76
     0
 77
     0
 78
     0
281
     0
 65
     1
110
0.0
120
0.0
130
0.0
111
1.0
121
0.0
131
0.0
112
0.0
122
1.0
132
0.0
 79
     0
146
0.0
 60
     3
 61
     5
292
     1
282
     1
141
0.0
142
0.0
 63
   250
361
6C6
  0
ENDTAB
  0
TABLE
  2
LTYPE
  5
663
330
0
100
AcDbSymbolTable
 70
    19
  0
LTYPE
  5
671
330
663
100
AcDbSymbolTableRecord
100
AcDbLinetypeTableRecord
  2
ByBlock
 70
     0
  3

 72
    65
 73
     0
 40
0.0
  0
LTYPE
  5
672
330
663
100
AcDbSymbolTableRecord
100
AcDbLinetypeTableRecord
  2
ByLayer
 70
     0
  3

 72
    65
 73
     0
 40
0.0
  0
LTYPE
  5
673
330
663
100
AcDbSymbolTableRecord
100
AcDbLinetypeTableRecord
  2
Continuous
 70
     0
  3
Solid line
 72
    65
 73
     0
 40
0.0
  0
LTYPE
  5
6F5
330
663
100
AcDbSymbolTableRecord
100
AcDbLinetypeTableRecord
  2
BORDER
 70
     0
  3

 72
    65
 73
     6
 40
42.00000000000001
 49
12.0
 74
     0
 49
-6.0
 74
     0
 49
12.0
 74
     0
 49
-5.95
 74
     0
 49
0.1
 74
     0
 49
-5.95
 74
     0
  0
LTYPE
  5
6F6
330
663
100
AcDbSymbolTableRecord
100
AcDbLinetypeTableRecord
  2
BORDER2
 70
     0
  3

 72
    65
 73
     6
 40
21.0
 49
6.0
 74
     0
 49
-3.0
 74
     0
 49
6.0
 74
     0
 49
-2.95
 74
     0
 49
0.1
 74
     0
 49
-2.95
 74
     0
  0
LTYPE
  5
6F7
330
663
100
AcDbSymbolTableRecord
100
AcDbLinetypeTableRecord
  2
BORDERX2
 70
     0
  3

 72
    65
 73
     6
 40
84.0
 49
24.0
 74
     0
 49
-12.0
 74
     0
 49
24.0
 74
     0
 49
-11.95
 74
     0
 49
0.1
 74
     0
 49
-11.95
 74
     0
  0
LTYPE
  5
6F8
330
663
100
AcDbSymbolTableRecord
100
AcDbLinetypeTableRecord
  2
CENTER
 70
     0
  3

 72
    65
 73
     4
 40
50.0
 49
32.0
 74
     0
 49
-6.0
 74
     0
 49
6.0
 74
     0
 49
-6.0
 74
     0
  0
LTYPE
  5
6F9
330
663
100
AcDbSymbolTableRecord
100
AcDbLinetypeTableRecord
  2
CENTER2
 70
     0
  3

 72
    65
 73
     4
 40
25.0
 49
16.0
 74
     0
 49
-3.0
 74
     0
 49
3.0
 74
     0
 49
-3.0
 74
     0
  0
LTYPE
  5
6FA
330
663
100
AcDbSymbolTableRecord
100
AcDbLinetypeTableRecord
  2
CENTERX2
 70
     0
  3

 72
    65
 73
     4
 40
100.0
 49
64.0
 74
     0
 49
-12.0
 74
     0
 49
12.0
 74
     0
 49
-12.0
 74
     0
  0
LTYPE
  5
6FB
330
663
100
AcDbSymbolTableRecord
100
AcDbLinetypeTableRecord
  2
DASHDOT
 70
     0
  3

 72
    65
 73
     4
 40
24.0
 49
12.0
 74
     0
 49
-5.95
 74
     0
 49
0.1
 74
     0
 49
-5.95
 74
     0
  0
LTYPE
  5
6FC
330
663
100
AcDbSymbolTableRecord
100
AcDbLinetypeTableRecord
  2
DASHDOT2
 70
     0
  3

 72
    65
 73
     4
 40
12.0
 49
6.0
 74
     0
 49
-2.95
 74
     0
 49
0.1
 74
     0
 49
-2.95
 74
     0
  0
LTYPE
  5
6FD
330
663
100
AcDbSymbolTableRecord
100
AcDbLinetypeTableRecord
  2
DASHDOTX2
 70
     0
  3

 72
    65
 73
     4
 40
48.0
 49
24.0
 74
     0
 49
-11.95
 74
     0
 49
0.1
 74
     0
 49
-11.95
 74
     0
  0
LTYPE
  5
6FE
330
663
100
AcDbSymbolTableRecord
100
AcDbLinetypeTableRecord
  2
DASHED
 70
     0
  3

 72
    65
 73
     2
 40
18.0
 49
12.0
 74
     0
 49
-6.0
 74
     0
  0
LTYPE
  5
6FF
330
663
100
AcDbSymbolTableRecord
100
AcDbLinetypeTableRecord
  2
DASHED2
 70
     0
  3

 72
    65
 73
     2
 40
9.0
 49
6.0
 74
     0
 49
-3.0
 74
     0
  0
LTYPE
  5
700
330
663
100
AcDbSymbolTableRecord
100
AcDbLinetypeTableRecord
  2
DASHEDX2
 70
     0
  3

 72
    65
 73
     2
 40
36.0
 49
24.0
 74
     0
 49
-12.0
 74
     0
  0
LTYPE
  5
701
330
663
100
AcDbSymbolTableRecord
100
AcDbLinetypeTableRecord
  2
DIVIDE
 70
     0
  3

 72
    65
 73
     6
 40
29.99999999999999
 49
12.0
 74
     0
 49
-5.9
 74
     0
 49
0.15
 74
     0
 49
-5.9
 74
     0
 49
0.15
 74
     0
 49
-5.9
 74
     0
  0
LTYPE
  5
702
330
663
100
AcDbSymbolTableRecord
100
AcDbLinetypeTableRecord
  2
DIVIDE2
 70
     0
  3

 72
    65
 73
     6
 40
15.0
 49
6.0
 74
     0
 49
-2.9
 74
     0
 49
0.15
 74
     0
 49
-2.9
 74
     0
 49
0.15
 74
     0
 49
-2.9
 74
     0
  0
LTYPE
  5
703
330
663
100
AcDbSymbolTableRecord
100
AcDbLinetypeTableRecord
  2
DIVIDEX2
 70
     0
  3

 72
    65
 73
     6
 40
59.99999999999999
 49
24.0
 74
     0
 49
-11.9
 74
     0
 49
0.15
 74
     0
 49
-11.9
 74
     0
 49
0.15
 74
     0
 49
-11.9
 74
     0
  0
LTYPE
  5
704
330
663
100
AcDbSymbolTableRecord
100
AcDbLinetypeTableRecord
  2
DOT
 70
     0
  3

 72
    65
 73
     2
 40
6.3
 49
0.1
 74
     0
 49
-6.2
 74
     0
  0
LTYPE
  5
705
330
663
100
AcDbSymbolTableRecord
100
AcDbLinetypeTableRecord
  2
DOT2
 70
     0
  3

 72
    65
 73
     2
 40
3.2
 49
0.1
 74
     0
 49
-3.1
 74
     0
  0
LTYPE
  5
706
330
663
100
AcDbSymbolTableRecord
100
AcDbLinetypeTableRecord
  2
DOTX2
 70
     0
  3

 72
    65
 73
     2
 40
12.5
 49
0.1
 74
     0
 49
-12.4
 74
     0
  0
ENDTAB
  0
TABLE
  2
LAYER
  5
660
330
0
100
AcDbSymbolTable
 70
     2
  0
LAYER
  5
66E
330
660
100
AcDbSymbolTableRecord
100
AcDbLayerTableRecord
  2
0
 70
     0
 62
     7
420
 16777215
  6
Continuous
370
    25
390
66D
347
6A3
348
0
  0
LAYER
  5
707
330
660
100
AcDbSymbolTableRecord
100
AcDbLayerTableRecord
  2
Defpoints
 70
     0
 62
     7
420
 16777215
  6
Continuous
290
     0
370
    -3
390
66D
347
6A3
348
0
  0
ENDTAB
  0
TABLE
  2
STYLE
  5
661
330
0
100
AcDbSymbolTable
 70
     1
  0
STYLE
  5
66F
330
661
100
AcDbSymbolTableRecord
100
AcDbTextStyleTableRecord
  2
Standard
 70
     0
 40
0.0
 41
1.0
 50
0.0
 71
     0
 42
0.2
  3
txt
  4

  0
ENDTAB
  0
TABLE
  2
VIEW
  5
664
330
0
100
AcDbSymbolTable
 70
     0
  0
ENDTAB
  0
TABLE
  2
UCS
  5
665
330
0
100
AcDbSymbolTable
 70
     0
  0
ENDTAB
  0
TABLE
  2
APPID
  5
667
330
0
100
AcDbSymbolTable
 70
     2
  0
APPID
  5
670
330
667
100
AcDbSymbolTableRecord
100
AcDbRegAppTableRecord
  2
ACAD
 70
     0
  0
APPID
  5
6C7
330
667
100
AcDbSymbolTableRecord
100
AcDbRegAppTableRecord
  2
QCAD
 70
     0
  0
ENDTAB
  0
TABLE
  2
DIMSTYLE
  5
668
330
0
100
AcDbSymbolTable
 70
     2
100
AcDbDimStyleTable
  0
DIMSTYLE
105
684
330
668
100
AcDbSymbolTableRecord
100
AcDbDimStyleTableRecord
  2
Standard
 70
     0
178
     0
340
66F
  0
DIMSTYLE
105
6F4
330
668
100
AcDbSymbolTableRecord
100
AcDbDimStyleTableRecord
  2
QCADDimStyle
 70
     0
 41
2.5
 42
0.625
 44
1.25
 73
     0
 77
     1
140
2.5
147
0.625
178
     0
340
66F
  0
ENDTAB
  0
TABLE
  2
BLOCK_RECORD
  5
65F
330
0
100
AcDbSymbolTable
 70
     1
  0
BLOCK_RECORD
  5
67C
330
65F
100
AcDbSymbolTableRecord
100
AcDbBlockTableRecord
  2
*Model_Space
340
67F
 70
     0
280
     1
281
     0
  0
BLOCK_RECORD
  5
678
330
65F
100
AcDbSymbolTableRecord
100
AcDbBlockTableRecord
  2
*Paper_Space
340
67B
 70
     0
280
     1
281
     0
  0
BLOCK_RECORD
  5
680
330
65F
100
AcDbSymbolTableRecord
100
AcDbBlockTableRecord
  2
*Paper_Space0
340
683
 70
     0
280
     1
281
     0
  0
ENDTAB
  0
ENDSEC
  0
SECTION
  2
BLOCKS
  0
BLOCK
  5
67D
330
67C
100
AcDbEntity
  8
0
100
AcDbBlockBegin
  2
*Model_Space
 70
     0
 10
0.0
 20
0.0
 30
0.0
  3
*Model_Space
  1
*Model_Space
  0
ENDBLK
  5
67E
330
67C
100
AcDbEntity
  8
0
100
AcDbBlockEnd
  0
BLOCK
  5
679
330
678
100
AcDbEntity
 67
     1
  8
0
100
AcDbBlockBegin
  2
*Paper_Space
 70
     0
 10
0.0
 20
0.0
 30
0.0
  3
*Paper_Space
  1
*Paper_Space
  0
ENDBLK
  5
67A
330
678
100
AcDbEntity
 67
     1
  8
0
100
AcDbBlockEnd
  0
BLOCK
  5
681
330
680
100
AcDbEntity
  8
0
100
AcDbBlockBegin
  2
*Paper_Space0
 70
     0
 10
0.0
 20
0.0
 30
0.0
  3
*Paper_Space0
  1
*Paper_Space0
  0
ENDBLK
  5
682
330
680
100
AcDbEntity
  8
0
100
AcDbBlockEnd
  0
ENDSEC
  0
SECTION
  2
ENTITIES
  0
LINE
  5
2C
330
67C
100
AcDbEntity
  8
0
100
AcDbLine
 10
15.99574211600807
 20
170.0570510242037
 30
0.0
 11
115.9957421160081
 21
170.0570510242037
 31
0.0
  0
LINE
  5
65
330
67C
100
AcDbEntity
  8
0
100
AcDbLine
 10
15.99574211600807
 20
170.0570510242037
 30
0.0
 11
15.99574211600807
 21
160.0570510242037
 31
0.0
  0
LINE
  5
66
330
67C
100
AcDbEntity
  8
0
100
AcDbLine
 10
15.99574211600807
 20
160.0570510242037
 30
0.0
 11
19.99574211600853
 21
160.0570510242037
 31
0.0
  0
LINE
  5
67
330
67C
100
AcDbEntity
  8
0
100
AcDbLine
 10
19.99574211600853
 20
160.0570510242037
 30
0.0
 11
19.9957421160079
 21
150.0570510242037
 31
0.0
  0
LINE
  5
68
330
67C
100
AcDbEntity
  8
0
100
AcDbLine
 10
19.9957421160079
 20
150.0570510242037
 30
0.0
 11
15.99574211600807
 21
150.0570510242037
 31
0.0
  0
LINE
  5
69
330
67C
100
AcDbEntity
  8
0
100
AcDbLine
 10
15.99574211600807
 20
150.0570510242037
 30
0.0
 11
15.99574211600807
 21
140.0570510242037
 31
0.0
  0
LINE
  5
6A
330
67C
100
AcDbEntity
  8
0
100
AcDbLine
 10
15.99574211600807
 20
140.0570510242037
 30
0.0
 11
19.99574211600807
 21
140.0570510242037
 31
0.0
  0
LINE
  5
6B
330
67C
100
AcDbEntity
  8
0
100
AcDbLine
 10
19.99574211600807
 20
140.0570510242037
 30
0.0
 11
19.99574211600824
 21
130.0570510242037
 31
0.0
  0
LINE
  5
6C
330
67C
100
AcDbEntity
  8
0
100
AcDbLine
 10
19.99574211600824
 20
130.0570510242037
 30
0.0
 11
15.99574211600807
 21
130.0570510242037
 31
0.0
  0
LINE
  5
6D
330
67C
100
AcDbEntity
  8
0
100
AcDbLine
 10
15.99574211600807
 20
130.0570510242037
 30
0.0
 11
15.99574211600807
 21
120.0570510242037
 31
0.0
  0
LINE
  5
6E
330
67C
100
AcDbEntity
  8
0
100
AcDbLine
 10
15.99574211600807
 20
120.0570510242037
 30
0.0
 11
19.99574211600819
 21
120.0570510242037
 31
0.0
  0
LINE
  5
6F
330
67C
100
AcDbEntity
  8
0
100
AcDbLine
 10
19.99574211600819
 20
120.0570510242037
 30
0.0
 11
19.99574211600819
 21
110.0570510242037
 31
0.0
  0
LINE
  5
70
330
67C
100
AcDbEntity
  8
0
100
AcDbLine
 10
19.99574211600819
 20
110.0570510242037
 30
0.0
 11
15.99574211600807
 21
110.0570510242037
 31
0.0
  0
LINE
  5
71
330
67C
100
AcDbEntity
  8
0
100
AcDbLine
 10
15.99574211600807
 20
110.0570510242037
 30
0.0
 11
15.99574211600807
 21
100.0570510242037
 31
0.0
  0
LINE
  5
72
330
67C
100
AcDbEntity
  8
0
100
AcDbLine
 10
15.99574211600807
 20
100.0570510242037
 30
0.0
 11
19.9957421160083
 21
100.0570510242037
 31
0.0
  0
LINE
  5
73
330
67C
100
AcDbEntity
  8
0
100
AcDbLine
 10
19.9957421160083
 20
100.0570510242037
 30
0.0
 11
19.99574211600807
 21
90.05705102420373
 31
0.0
  0
LINE
  5
74
330
67C
100
AcDbEntity
  8
0
100
AcDbLine
 10
19.99574211600807
 20
90.05705102420373
 30
0.0
 11
15.99574211600807
 21
90.05705102420373
 31
0.0
  0
LINE
  5
75
330
67C
100
AcDbEntity
  8
0
100
AcDbLine
 10
15.99574211600807
 20
90.05705102420373
 30
0.0
 11
15.99574211600807
 21
80.05705102420373
 31
0.0
  0
LINE
  5
76
330
67C
100
AcDbEntity
  8
0
100
AcDbLine
 10
15.99574211600807
 20
80.05705102420373
 30
0.0
 11
19.9957421160081
 21
80.05705102420373
 31
0.0
  0
LINE
  5
77
330
67C
100
AcDbEntity
  8
0
100
AcDbLine
 10
19.9957421160081
 20
80.05705102420373
 30
0.0
 11
19.9957421160081
 21
70.05705102420373
 31
0.0
  0
LINE
  5
78
330
67C
100
AcDbEntity
  8
0
100
AcDbLine
 10
19.9957421160081
 20
70.05705102420373
 30
0.0
 11
15.99574211600807
 21
70.05705102420373
 31
0.0
  0
LINE
  5
79
330
67C
100
AcDbEntity
  8
0
100
AcDbLine
 10
15.99574211600807
 20
70.05705102420373
 30
0.0
 11
15.99574211600807
 21
60.05705102420373
 31
0.0
  0
LINE
  5
7A
330
67C
100
AcDbEntity
  8
0
100
AcDbLine
 10
15.99574211600807
 20
60.05705102420373
 30
0.0
 11
19.99574211600807
 21
60.05705102420373
 31
0.0
  0
LINE
  5
7B
330
67C
100
AcDbEntity
  8
0
100
AcDbLine
 10
19.99574211600807
 20
60.05705102420373
 30
0.0
 11
19.99574211600807
 21
50.05705102420373
 31
0.0
  0
LINE
  5
7C
330
67C
100
AcDbEntity
  8
0
100
AcDbLine
 10
19.99574211600807
 20
50.05705102420373
 30
0.0
 11
15.99574211600807
 21
50.05705102420373
 31
0.0
  0
LINE
  5
7D
330
67C
100
AcDbEntity
  8
0
100
AcDbLine
 10
15.99574211600807
 20
50.05705102420373
 30
0.0
 11
15.99574211600807
 21
40.05705102420373
 31
0.0
  0
LINE
  5
7E
330
67C
100
AcDbEntity
  8
0
100
AcDbLine
 10
15.99574211600807
 20
40.05705102420373
 30
0.0
 11
19.99574211600807
 21
40.05705102420373
 31
0.0
  0
LINE
  5
7F
330
67C
100
AcDbEntity
  8
0
100
AcDbLine
 10
19.99574211600807
 20
40.05705102420373
 30
0.0
 11
19.99574211600807
 21
30.05705102420373
 31
0.0
  0
LINE
  5
80
330
67C
100
AcDbEntity
  8
0
100
AcDbLine
 10
19.99574211600807
 20
30.05705102420373
 30
0.0
 11
15.99574211600807
 21
30.05705102420373
 31
0.0
  0
LINE
  5
83
330
67C
100
AcDbEntity
  8
0
100
AcDbLine
 10
115.9957421160081
 20
30.05705102420373
 30
0.0
 11
111.9957421160081
 21
30.05705102420373
 31
0.0
  0
LINE
  5
84
330
67C
100
AcDbEntity
  8
0
100
AcDbLine
 10
111.9957421160081
 20
30.05705102420373
 30
0.0
 11
111.9957421160081
 21
40.05705102420373
 31
0.0
  0
LINE
  5
85
330
67C
100
AcDbEntity
  8
0
100
AcDbLine
 10
111.9957421160081
 20
40.05705102420373
 30
0.0
 11
115.9957421160081
 21
40.05705102420373
 31
0.0
  0
LINE
  5
86
330
67C
100
AcDbEntity
  8
0
100
AcDbLine
 10
115.9957421160081
 20
40.05705102420373
 30
0.0
 11
115.9957421160081
 21
50.05705102420373
 31
0.0
  0
LINE
  5
87
330
67C
100
AcDbEntity
  8
0
100
AcDbLine
 10
115.9957421160081
 20
50.05705102420373
 30
0.0
 11
111.9957421160081
 21
50.05705102420373
 31
0.0
  0
LINE
  5
88
330
67C
100
AcDbEntity
  8
0
100
AcDbLine
 10
111.9957421160081
 20
50.05705102420373
 30
0.0
 11
111.9957421160081
 21
60.05705102420373
 31
0.0
  0
LINE
  5
89
330
67C
100
AcDbEntity
  8
0
100
AcDbLine
 10
111.9957421160081
 20
60.05705102420373
 30
0.0
 11
115.9957421160081
 21
60.05705102420373
 31
0.0
  0
LINE
  5
8A
330
67C
100
AcDbEntity
  8
0
100
AcDbLine
 10
115.9957421160081
 20
60.05705102420373
 30
0.0
 11
115.9957421160081
 21
70.05705102420373
 31
0.0
  0
LINE
  5
8B
330
67C
100
AcDbEntity
  8
0
100
AcDbLine
 10
115.9957421160081
 20
70.05705102420373
 30
0.0
 11
111.9957421160081
 21
70.05705102420373
 31
0.0
  0
LINE
  5
8C
330
67C
100
AcDbEntity
  8
0
100
AcDbLine
 10
111.9957421160081
 20
70.05705102420373
 30
0.0
 11
111.9957421160081
 21
80.05705102420373
 31
0.0
  0
LINE
  5
8D
330
67C
100
AcDbEntity
  8
0
100
AcDbLine
 10
111.9957421160081
 20
80.05705102420373
 30
0.0
 11
115.9957421160081
 21
80.05705102420376
 31
0.0
  0
LINE
  5
8E
330
67C
100
AcDbEntity
  8
0
100
AcDbLine
 10
115.9957421160081
 20
80.05705102420376
 30
0.0
 11
115.9957421160081
 21
90.05705102420376
 31
0.0
  0
LINE
  5
8F
330
67C
100
AcDbEntity
  8
0
100
AcDbLine
 10
115.9957421160081
 20
90.05705102420376
 30
0.0
 11
111.9957421160081
 21
90.05705102420373
 31
0.0
  0
LINE
  5
90
330
67C
100
AcDbEntity
  8
0
100
AcDbLine
 10
111.9957421160081
 20
90.05705102420373
 30
0.0
 11
111.9957421160081
 21
100.0570510242037
 31
0.0
  0
LINE
  5
91
330
67C
100
AcDbEntity
  8
0
100
AcDbLine
 10
111.9957421160081
 20
100.0570510242037
 30
0.0
 11
115.9957421160081
 21
100.0570510242037
 31
0.0
  0
LINE
  5
92
330
67C
100
AcDbEntity
  8
0
100
AcDbLine
 10
115.9957421160081
 20
100.0570510242037
 30
0.0
 11
115.9957421160081
 21
110.0570510242038
 31
0.0
  0
LINE
  5
93
330
67C
100
AcDbEntity
  8
0
100
AcDbLine
 10
115.9957421160081
 20
110.0570510242038
 30
0.0
 11
111.995742116008
 21
110.0570510242038
 31
0.0
  0
LINE
  5
94
330
67C
100
AcDbEntity
  8
0
100
AcDbLine
 10
111.995742116008
 20
110.0570510242038
 30
0.0
 11
111.9957421160081
 21
120.0570510242037
 31
0.0
  0
LINE
  5
95
330
67C
100
AcDbEntity
  8
0
100
AcDbLine
 10
111.9957421160081
 20
120.0570510242037
 30
0.0
 11
115.9957421160081
 21
120.0570510242037
 31
0.0
  0
LINE
  5
96
330
67C
100
AcDbEntity
  8
0
100
AcDbLine
 10
115.9957421160081
 20
120.0570510242037
 30
0.0
 11
115.9957421160081
 21
130.0570510242037
 31
0.0
  0
LINE
  5
97
330
67C
100
AcDbEntity
  8
0
100
AcDbLine
 10
115.9957421160081
 20
130.0570510242037
 30
0.0
 11
111.9957421160081
 21
130.0570510242037
 31
0.0
  0
LINE
  5
98
330
67C
100
AcDbEntity
  8
0
100
AcDbLine
 10
111.9957421160081
 20
130.0570510242037
 30
0.0
 11
111.995742116008
 21
140.0570510242037
 31
0.0
  0
LINE
  5
99
330
67C
100
AcDbEntity
  8
0
100
AcDbLine
 10
111.995742116008
 20
140.0570510242037
 30
0.0
 11
115.9957421160081
 21
140.0570510242037
 31
0.0
  0
LINE
  5
9A
330
67C
100
AcDbEntity
  8
0
100
AcDbLine
 10
115.9957421160081
 20
140.0570510242037
 30
0.0
 11
115.9957421160081
 21
150.0570510242037
 31
0.0
  0
LINE
  5
9B
330
67C
100
AcDbEntity
  8
0
100
AcDbLine
 10
115.9957421160081
 20
150.0570510242037
 30
0.0
 11
111.995742116008
 21
150.0570510242037
 31
0.0
  0
LINE
  5
9C
330
67C
100
AcDbEntity
  8
0
100
AcDbLine
 10
111.995742116008
 20
150.0570510242037
 30
0.0
 11
111.9957421160081
 21
160.0570510242037
 31
0.0
  0
LINE
  5
9D
330
67C
100
AcDbEntity
  8
0
100
AcDbLine
 10
111.9957421160081
 20
160.0570510242037
 30
0.0
 11
115.9957421160081
 21
160.0570510242037
 31
0.0
  0
LINE
  5
9E
330
67C
100
AcDbEntity
  8
0
100
AcDbLine
 10
115.9957421160081
 20
160.0570510242037
 30
0.0
 11
115.9957421160081
 21
170.0570510242037
 31
0.0
  0
LINE
  5
9F
330
67C
100
AcDbEntity
  8
0
100
AcDbLine
 10
157.9999999999994
 20
170.0000000000001
 30
0.0
 11
157.9999999999995
 21
160.0000000000001
 31
0.0
  0
LINE
  5
A0
330
67C
100
AcDbEntity
  8
0
100
AcDbLine
 10
157.9999999999995
 20
160.0000000000001
 30
0.0
 11
153.9999999999997
 21
160.0000000000001
 31
0.0
  0
LINE
  5
A1
330
67C
100
AcDbEntity
  8
0
100
AcDbLine
 10
153.9999999999997
 20
160.0000000000001
 30
0.0
 11
153.9999999999995
 21
150.0000000000001
 31
0.0
  0
LINE
  5
A2
330
67C
100
AcDbEntity
  8
0
100
AcDbLine
 10
153.9999999999995
 20
150.0000000000001
 30
0.0
 11
157.9999999999995
 21
150.0000000000001
 31
0.0
  0
LINE
  5
A3
330
67C
100
AcDbEntity
  8
0
100
AcDbLine
 10
157.9999999999995
 20
150.0000000000001
 30
0.0
 11
157.9999999999995
 21
140.0000000000001
 31
0.0
  0
LINE
  5
A4
330
67C
100
AcDbEntity
  8
0
100
AcDbLine
 10
157.9999999999995
 20
140.0000000000001
 30
0.0
 11
153.9999999999995
 21
140.0000000000001
 31
0.0
  0
LINE
  5
A5
330
67C
100
AcDbEntity
  8
0
100
AcDbLine
 10
153.9999999999995
 20
140.0000000000001
 30
0.0
 11
153.9999999999995
 21
130.0000000000001
 31
0.0
  0
LINE
  5
A6
330
67C
100
AcDbEntity
  8
0
100
AcDbLine
 10
153.9999999999995
 20
130.0000000000001
 30
0.0
 11
157.9999999999997
 21
130.0000000000001
 31
0.0
  0
LINE
  5
A7
330
67C
100
AcDbEntity
  8
0
100
AcDbLine
 10
157.9999999999997
 20
130.0000000000001
 30
0.0
 11
157.9999999999995
 21
120.0000000000001
 31
0.0
  0
LINE
  5
A8
330
67C
100
AcDbEntity
  8
0
100
AcDbLine
 10
157.9999999999995
 20
120.0000000000001
 30
0.0
 11
153.9999999999995
 21
120.0000000000001
 31
0.0
  0
LINE
  5
A9
330
67C
100
AcDbEntity
  8
0
100
AcDbLine
 10
153.9999999999995
 20
120.0000000000001
 30
0.0
 11
153.9999999999995
 21
110.0000000000001
 31
0.0
  0
LINE
  5
AA
330
67C
100
AcDbEntity
  8
0
100
AcDbLine
 10
153.9999999999995
 20
110.0000000000001
 30
0.0
 11
157.9999999999995
 21
110.0000000000001
 31
0.0
  0
LINE
  5
AB
330
67C
100
AcDbEntity
  8
0
100
AcDbLine
 10
157.9999999999995
 20
110.0000000000001
 30
0.0
 11
157.9999999999995
 21
100.0000000000001
 31
0.0
  0
LINE
  5
AC
330
67C
100
AcDbEntity
  8
0
100
AcDbLine
 10
157.9999999999995
 20
100.0000000000001
 30
0.0
 11
153.9999999999995
 21
100.0000000000001
 31
0.0
  0
LINE
  5
AD
330
67C
100
AcDbEntity
  8
0
100
AcDbLine
 10
153.9999999999995
 20
100.0000000000001
 30
0.0
 11
153.9999999999995
 21
90.00000000000006
 31
0.0
  0
LINE
  5
AE
330
67C
100
AcDbEntity
  8
0
100
AcDbLine
 10
153.9999999999995
 20
90.00000000000006
 30
0.0
 11
157.9999999999995
 21
90.00000000000006
 31
0.0
  0
LINE
  5
AF
330
67C
100
AcDbEntity
  8
0
100
AcDbLine
 10
157.9999999999995
 20
90.00000000000006
 30
0.0
 11
157.9999999999995
 21
80.00000000000006
 31
0.0
  0
LINE
  5
B0
330
67C
100
AcDbEntity
  8
0
100
AcDbLine
 10
157.9999999999995
 20
80.00000000000006
 30
0.0
 11
153.9999999999995
 21
80.00000000000006
 31
0.0
  0
LINE
  5
B1
330
67C
100
AcDbEntity
  8
0
100
AcDbLine
 10
153.9999999999995
 20
80.00000000000006
 30
0.0
 11
153.9999999999995
 21
70.00000000000006
 31
0.0
  0
LINE
  5
B2
330
67C
100
AcDbEntity
  8
0
100
AcDbLine
 10
153.9999999999995
 20
70.00000000000006
 30
0.0
 11
157.9999999999995
 21
70.00000000000006
 31
0.0
  0
LINE
  5
B3
330
67C
100
AcDbEntity
  8
0
100
AcDbLine
 10
157.9999999999995
 20
70.00000000000006
 30
0.0
 11
157.9999999999995
 21
60.00000000000006
 31
0.0
  0
LINE
  5
B4
330
67C
100
AcDbEntity
  8
0
100
AcDbLine
 10
157.9999999999995
 20
60.00000000000006
 30
0.0
 11
153.9999999999995
 21
60.00000000000006
 31
0.0
  0
LINE
  5
B5
330
67C
100
AcDbEntity
  8
0
100
AcDbLine
 10
153.9999999999995
 20
60.00000000000006
 30
0.0
 11
153.9999999999995
 21
50.00000000000006
 31
0.0
  0
LINE
  5
B6
330
67C
100
AcDbEntity
  8
0
100
AcDbLine
 10
153.9999999999995
 20
50.00000000000006
 30
0.0
 11
157.9999999999995
 21
50.00000000000006
 31
0.0
  0
LINE
  5
B7
330
67C
100
AcDbEntity
  8
0
100
AcDbLine
 10
157.9999999999995
 20
50.00000000000006
 30
0.0
 11
157.9999999999995
 21
40.00000000000006
 31
0.0
  0
LINE
  5
B8
330
67C
100
AcDbEntity
  8
0
100
AcDbLine
 10
157.9999999999995
 20
40.00000000000006
 30
0.0
 11
153.9999999999995
 21
40.00000000000006
 31
0.0
  0
LINE
  5
B9
330
67C
100
AcDbEntity
  8
0
100
AcDbLine
 10
153.9999999999995
 20
40.00000000000006
 30
0.0
 11
153.9999999999995
 21
30.00000000000006
 31
0.0
  0
LINE
  5
BA
330
67C
100
AcDbEntity
  8
0
100
AcDbLine
 10
153.9999999999995
 20
30.00000000000006
 30
0.0
 11
157.9999999999995
 21
30.00000000000006
 31
0.0
  0
LINE
  5
E5
330
67C
100
AcDbEntity
  8
0
100
AcDbLine
 10
15.99574211600807
 20
24.05705102420373
 30
0.0
 11
15.99574211600807
 21
30.05705102420373
 31
0.0
  0
LINE
  5
E6
330
67C
100
AcDbEntity
  8
0
100
AcDbLine
 10
15.99574211600807
 20
24.05705102420373
 30
0.0
 11
15.99574211600807
 21
20.05705102420373
 31
0.0
  0
LINE
  5
FA
330
67C
100
AcDbEntity
  8
0
100
AcDbLine
 10
115.9957421160081
 20
24.05705102420373
 30
0.0
 11
115.9957421160081
 21
30.05705102420373
 31
0.0
  0
LINE
  5
112
330
67C
100
AcDbEntity
  8
0
100
AcDbLine
 10
157.9999999999995
 20
24.00000000000006
 30
0.0
 11
157.9999999999995
 21
30.00000000000006
 31
0.0
  0
LINE
  5
119
330
67C
100
AcDbEntity
  8
0
100
AcDbLine
 10
173.9999999999995
 20
140.0000000000001
 30
0.0
 11
173.9999999999995
 21
144.0000000000001
 31
0.0
  0
LINE
  5
11A
330
67C
100
AcDbEntity
  8
0
100
AcDbLine
 10
173.9999999999995
 20
144.0000000000001
 30
0.0
 11
157.9999999999994
 21
170.0000000000001
 31
0.0
  0
LINE
  5
130
330
67C
100
AcDbEntity
  8
0
100
AcDbLine
 10
157.9999999999995
 20
24.00000000000006
 30
0.0
 11
157.9999999999995
 21
20.00000000000006
 31
0.0
  0
LINE
  5
133
330
67C
100
AcDbEntity
  8
0
100
AcDbLine
 10
115.9957421160081
 20
24.05705102420373
 30
0.0
 11
115.9957421160081
 21
20.05705102420373
 31
0.0
  0
LINE
  5
138
330
67C
100
AcDbEntity
  8
0
100
AcDbLine
 10
174.0
 20
180.0
 30
0.0
 11
174.0
 21
272.0
 31
0.0
  0
LINE
  5
13A
330
67C
100
AcDbEntity
  8
0
100
AcDbLine
 10
174.0
 20
272.0
 30
0.0
 11
174.0
 21
276.0
 31
0.0
  0
LINE
  5
13B
330
67C
100
AcDbEntity
  8
0
100
AcDbLine
 10
174.0
 20
276.0
 30
0.0
 11
164.0
 21
276.0
 31
0.0
  0
LINE
  5
13C
330
67C
100
AcDbEntity
  8
0
100
AcDbLine
 10
164.0
 20
276.0
 30
0.0
 11
164.0
 21
272.0
 31
0.0
  0
LINE
  5
13D
330
67C
100
AcDbEntity
  8
0
100
AcDbLine
 10
173.9999999999995
 20
24.00000000000006
 30
0.0
 11
163.9999999999995
 21
24.00000000000006
 31
0.0
  0
LINE
  5
13E
330
67C
100
AcDbEntity
  8
0
100
AcDbLine
 10
163.9999999999995
 20
24.00000000000006
 30
0.0
 11
163.9999999999995
 21
20.00000000000006
 31
0.0
  0
LINE
  5
13F
330
67C
100
AcDbEntity
  8
0
100
AcDbLine
 10
163.9999999999995
 20
20.00000000000006
 30
0.0
 11
157.9999999999995
 21
20.00000000000006
 31
0.0
  0
LINE
  5
140
330
67C
100
AcDbEntity
  8
0
100
AcDbLine
 10
164.0
 20
272.0
 30
0.0
 11
158.0
 21
272.0
 31
0.0
  0
LINE
  5
141
330
67C
100
AcDbEntity
  8
0
100
AcDbLine
 10
173.9999999999995
 20
140.0000000000001
 30
0.0
 11
173.9999999999995
 21
24.00000000000006
 31
0.0
  0
LINE
  5
142
330
67C
100
AcDbEntity
  8
0
100
AcDbLine
 10
174.0
 20
180.0
 30
0.0
 11
174.0
 21
176.0
 31
0.0
  0
LINE
  5
143
330
67C
100
AcDbEntity
  8
0
100
AcDbLine
 10
174.0
 20
176.0
 30
0.0
 11
164.0
 21
176.0
 31
0.0
  0
LINE
  5
144
330
67C
100
AcDbEntity
  8
0
100
AcDbLine
 10
164.0
 20
176.0
 30
0.0
 11
164.0
 21
180.0
 31
0.0
  0
LINE
  5
145
330
67C
100
AcDbEntity
  8
0
100
AcDbLine
 10
164.0
 20
180.0
 30
0.0
 11
158.0
 21
180.0
 31
0.0
  0
LINE
  5
146
330
67C
100
AcDbEntity
  8
0
100
AcDbLine
 10
158.0
 20
266.0
 30
0.0
 11
154.0
 21
266.0
 31
0.0
  0
LINE
  5
147
330
67C
100
AcDbEntity
  8
0
100
AcDbLine
 10
154.0
 20
266.0
 30
0.0
 11
154.0
 21
256.0
 31
0.0
  0
LINE
  5
148
330
67C
100
AcDbEntity
  8
0
100
AcDbLine
 10
154.0
 20
256.0
 30
0.0
 11
158.0
 21
256.0
 31
0.0
  0
LINE
  5
149
330
67C
100
AcDbEntity
  8
0
100
AcDbLine
 10
158.0
 20
256.0
 30
0.0
 11
158.0
 21
246.0
 31
0.0
  0
LINE
  5
14A
330
67C
100
AcDbEntity
  8
0
100
AcDbLine
 10
158.0
 20
246.0
 30
0.0
 11
154.0
 21
246.0
 31
0.0
  0
LINE
  5
14B
330
67C
100
AcDbEntity
  8
0
100
AcDbLine
 10
154.0
 20
246.0
 30
0.0
 11
154.0
 21
236.0
 31
0.0
  0
LINE
  5
14C
330
67C
100
AcDbEntity
  8
0
100
AcDbLine
 10
154.0
 20
236.0
 30
0.0
 11
158.0
 21
236.0
 31
0.0
  0
LINE
  5
14D
330
67C
100
AcDbEntity
  8
0
100
AcDbLine
 10
158.0
 20
236.0
 30
0.0
 11
158.0
 21
226.0
 31
0.0
  0
LINE
  5
14E
330
67C
100
AcDbEntity
  8
0
100
AcDbLine
 10
158.0
 20
226.0
 30
0.0
 11
154.0
 21
226.0
 31
0.0
  0
LINE
  5
14F
330
67C
100
AcDbEntity
  8
0
100
AcDbLine
 10
154.0
 20
226.0
 30
0.0
 11
154.0
 21
216.0
 31
0.0
  0
LINE
  5
150
330
67C
100
AcDbEntity
  8
0
100
AcDbLine
 10
154.0
 20
216.0
 30
0.0
 11
158.0
 21
216.0
 31
0.0
  0
LINE
  5
151
330
67C
100
AcDbEntity
  8
0
100
AcDbLine
 10
158.0
 20
216.0
 30
0.0
 11
158.0
 21
206.0
 31
0.0
  0
LINE
  5
152
330
67C
100
AcDbEntity
  8
0
100
AcDbLine
 10
158.0
 20
206.0
 30
0.0
 11
154.0
 21
206.0
 31
0.0
  0
LINE
  5
153
330
67C
100
AcDbEntity
  8
0
100
AcDbLine
 10
154.0
 20
206.0
 30
0.0
 11
154.0
 21
196.0
 31
0.0
  0
LINE
  5
154
330
67C
100
AcDbEntity
  8
0
100
AcDbLine
 10
154.0
 20
196.0
 30
0.0
 11
158.0
 21
196.0
 31
0.0
  0
LINE
  5
155
330
67C
100
AcDbEntity
  8
0
100
AcDbLine
 10
158.0
 20
196.0
 30
0.0
 11
158.0
 21
186.0
 31
0.0
  0
LINE
  5
156
330
67C
100
AcDbEntity
  8
0
100
AcDbLine
 10
158.0
 20
186.0
 30
0.0
 11
154.0
 21
186.0
 31
0.0
  0
LINE
  5
157
330
67C
100
AcDbEntity
  8
0
100
AcDbLine
 10
154.0
 20
186.0
 30
0.0
 11
154.0
 21
180.0
 31
0.0
  0
LINE
  5
158
330
67C
100
AcDbEntity
  8
0
100
AcDbLine
 10
154.0
 20
180.0
 30
0.0
 11
158.0
 21
180.0
 31
0.0
  0
LINE
  5
159
330
67C
100
AcDbEntity
  8
0
100
AcDbLine
 10
158.0
 20
272.0
 30
0.0
 11
158.0
 21
266.0
 31
0.0
  0
LINE
  5
15A
330
67C
100
AcDbEntity
  8
0
100
AcDbLine
 10
115.9957421160081
 20
20.05705102420373
 30
0.0
 11
105.9957421160081
 21
20.05705102420373
 31
0.0
  0
LINE
  5
15B
330
67C
100
AcDbEntity
  8
0
100
AcDbLine
 10
105.9957421160081
 20
20.05705102420373
 30
0.0
 11
105.9957421160081
 21
24.05705102420373
 31
0.0
  0
LINE
  5
15C
330
67C
100
AcDbEntity
  8
0
100
AcDbLine
 10
105.9957421160081
 20
24.05705102420373
 30
0.0
 11
95.99574211600807
 21
24.05705102420373
 31
0.0
  0
LINE
  5
15D
330
67C
100
AcDbEntity
  8
0
100
AcDbLine
 10
95.99574211600807
 20
24.05705102420373
 30
0.0
 11
95.99574211600807
 21
20.05705102420373
 31
0.0
  0
LINE
  5
15E
330
67C
100
AcDbEntity
  8
0
100
AcDbLine
 10
95.99574211600807
 20
20.05705102420373
 30
0.0
 11
85.99574211600807
 21
20.05705102420373
 31
0.0
  0
LINE
  5
15F
330
67C
100
AcDbEntity
  8
0
100
AcDbLine
 10
85.99574211600807
 20
20.05705102420373
 30
0.0
 11
85.99574211600807
 21
24.05705102420373
 31
0.0
  0
LINE
  5
160
330
67C
100
AcDbEntity
  8
0
100
AcDbLine
 10
85.99574211600807
 20
24.05705102420373
 30
0.0
 11
75.99574211600807
 21
24.05705102420373
 31
0.0
  0
LINE
  5
161
330
67C
100
AcDbEntity
  8
0
100
AcDbLine
 10
75.99574211600807
 20
24.05705102420373
 30
0.0
 11
75.99574211600807
 21
20.05705102420373
 31
0.0
  0
LINE
  5
162
330
67C
100
AcDbEntity
  8
0
100
AcDbLine
 10
75.99574211600807
 20
20.05705102420373
 30
0.0
 11
65.99574211600807
 21
20.05705102420373
 31
0.0
  0
LINE
  5
163
330
67C
100
AcDbEntity
  8
0
100
AcDbLine
 10
65.99574211600807
 20
20.05705102420373
 30
0.0
 11
65.99574211600807
 21
24.05705102420373
 31
0.0
  0
LINE
  5
164
330
67C
100
AcDbEntity
  8
0
100
AcDbLine
 10
65.99574211600807
 20
24.05705102420373
 30
0.0
 11
55.99574211600807
 21
24.05705102420373
 31
0.0
  0
LINE
  5
165
330
67C
100
AcDbEntity
  8
0
100
AcDbLine
 10
55.99574211600807
 20
24.05705102420373
 30
0.0
 11
55.99574211600807
 21
20.05705102420373
 31
0.0
  0
LINE
  5
166
330
67C
100
AcDbEntity
  8
0
100
AcDbLine
 10
55.99574211600807
 20
20.05705102420373
 30
0.0
 11
45.99574211600807
 21
20.05705102420373
 31
0.0
  0
LINE
  5
167
330
67C
100
AcDbEntity
  8
0
100
AcDbLine
 10
45.99574211600807
 20
20.05705102420373
 30
0.0
 11
45.99574211600807
 21
24.05705102420373
 31
0.0
  0
LINE
  5
168
330
67C
100
AcDbEntity
  8
0
100
AcDbLine
 10
45.99574211600807
 20
24.05705102420373
 30
0.0
 11
35.99574211600807
 21
24.05705102420373
 31
0.0
  0
LINE
  5
169
330
67C
100
AcDbEntity
  8
0
100
AcDbLine
 10
35.99574211600807
 20
24.05705102420373
 30
0.0
 11
35.99574211600807
 21
20.05705102420373
 31
0.0
  0
LINE
  5
16A
330
67C
100
AcDbEntity
  8
0
100
AcDbLine
 10
15.99574211600807
 20
20.05705102420373
 30
0.0
 11
19.99574211600807
 21
20.05705102420373
 31
0.0
  0
LINE
  5
16B
330
67C
100
AcDbEntity
  8
0
100
AcDbLine
 10
19.99574211600807
 20
20.05705102420373
 30
0.0
 11
19.99574211600807
 21
24.05705102420373
 31
0.0
  0
LINE
  5
16C
330
67C
100
AcDbEntity
  8
0
100
AcDbLine
 10
19.99574211600807
 20
24.05705102420373
 30
0.0
 11
25.99574211600807
 21
24.05705102420373
 31
0.0
  0
LINE
  5
16D
330
67C
100
AcDbEntity
  8
0
100
AcDbLine
 10
25.99574211600807
 20
24.05705102420373
 30
0.0
 11
25.99574211600807
 21
20.05705102420373
 31
0.0
  0
LINE
  5
16E
330
67C
100
AcDbEntity
  8
0
100
AcDbLine
 10
25.99574211600807
 20
20.05705102420373
 30
0.0
 11
35.99574211600807
 21
20.05705102420373
 31
0.0
  0
LINE
  5
16F
330
67C
100
AcDbEntity
  8
0
100
AcDbLine
 10
143.9999999999995
 20
40.00000000000004
 30
0.0
 11
143.9999999999995
 21
30.00000000000004
 31
0.0
  0
LINE
  5
170
330
67C
100
AcDbEntity
  8
0
100
AcDbLine
 10
143.9999999999995
 20
30.00000000000004
 30
0.0
 11
139.9999999999995
 21
30.00000000000004
 31
0.0
  0
LINE
  5
171
330
67C
100
AcDbEntity
  8
0
100
AcDbLine
 10
139.9999999999995
 20
24.00000000000003
 30
0.0
 11
139.9999999999995
 21
20.00000000000003
 31
0.0
  0
LINE
  5
172
330
67C
100
AcDbEntity
  8
0
100
AcDbLine
 10
139.9999999999999
 20
170.0000000000001
 30
0.0
 11
139.9999999999995
 21
160.0000000000001
 31
0.0
  0
LINE
  5
173
330
67C
100
AcDbEntity
  8
0
100
AcDbLine
 10
139.9999999999995
 20
160.0000000000001
 30
0.0
 11
143.9999999999993
 21
160.0000000000001
 31
0.0
  0
LINE
  5
174
330
67C
100
AcDbEntity
  8
0
100
AcDbLine
 10
143.9999999999993
 20
160.0000000000001
 30
0.0
 11
143.9999999999995
 21
150.0000000000001
 31
0.0
  0
LINE
  5
175
330
67C
100
AcDbEntity
  8
0
100
AcDbLine
 10
143.9999999999995
 20
150.0000000000001
 30
0.0
 11
139.9999999999995
 21
150.0000000000001
 31
0.0
  0
LINE
  5
176
330
67C
100
AcDbEntity
  8
0
100
AcDbLine
 10
139.9999999999995
 20
150.0000000000001
 30
0.0
 11
139.9999999999997
 21
140.0000000000001
 31
0.0
  0
LINE
  5
177
330
67C
100
AcDbEntity
  8
0
100
AcDbLine
 10
139.9999999999995
 20
24.00000000000003
 30
0.0
 11
139.9999999999995
 21
30.00000000000004
 31
0.0
  0
LINE
  5
178
330
67C
100
AcDbEntity
  8
0
100
AcDbLine
 10
139.9999999999997
 20
140.0000000000001
 30
0.0
 11
143.9999999999995
 21
140.0000000000001
 31
0.0
  0
LINE
  5
179
330
67C
100
AcDbEntity
  8
0
100
AcDbLine
 10
143.9999999999995
 20
140.0000000000001
 30
0.0
 11
143.9999999999995
 21
130.0000000000001
 31
0.0
  0
LINE
  5
17A
330
67C
100
AcDbEntity
  8
0
100
AcDbLine
 10
143.9999999999995
 20
130.0000000000001
 30
0.0
 11
139.9999999999995
 21
130.0000000000001
 31
0.0
  0
LINE
  5
17B
330
67C
100
AcDbEntity
  8
0
100
AcDbLine
 10
139.9999999999995
 20
130.0000000000001
 30
0.0
 11
139.9999999999995
 21
120.0000000000001
 31
0.0
  0
LINE
  5
17C
330
67C
100
AcDbEntity
  8
0
100
AcDbLine
 10
139.9999999999995
 20
120.0000000000001
 30
0.0
 11
143.9999999999994
 21
120.0000000000001
 31
0.0
  0
LINE
  5
17D
330
67C
100
AcDbEntity
  8
0
100
AcDbLine
 10
143.9999999999994
 20
120.0000000000001
 30
0.0
 11
143.9999999999995
 21
110.0000000000001
 31
0.0
  0
LINE
  5
17E
330
67C
100
AcDbEntity
  8
0
100
AcDbLine
 10
123.9999999999995
 20
24.00000000000003
 30
0.0
 11
133.9999999999995
 21
24.00000000000003
 31
0.0
  0
LINE
  5
17F
330
67C
100
AcDbEntity
  8
0
100
AcDbLine
 10
143.9999999999995
 20
110.0000000000001
 30
0.0
 11
139.9999999999994
 21
110.0000000000001
 31
0.0
  0
LINE
  5
180
330
67C
100
AcDbEntity
  8
0
100
AcDbLine
 10
123.9999999999995
 20
140.0000000000001
 30
0.0
 11
123.9999999999995
 21
144.0000000000001
 31
0.0
  0
LINE
  5
181
330
67C
100
AcDbEntity
  8
0
100
AcDbLine
 10
133.9999999999995
 20
24.00000000000003
 30
0.0
 11
133.9999999999995
 21
20.00000000000003
 31
0.0
  0
LINE
  5
182
330
67C
100
AcDbEntity
  8
0
100
AcDbLine
 10
139.9999999999994
 20
110.0000000000001
 30
0.0
 11
139.9999999999995
 21
100.0000000000001
 31
0.0
  0
LINE
  5
183
330
67C
100
AcDbEntity
  8
0
100
AcDbLine
 10
123.9999999999995
 20
144.0000000000001
 30
0.0
 11
139.9999999999999
 21
170.0000000000001
 31
0.0
  0
LINE
  5
184
330
67C
100
AcDbEntity
  8
0
100
AcDbLine
 10
133.9999999999995
 20
20.00000000000003
 30
0.0
 11
139.9999999999995
 21
20.00000000000003
 31
0.0
  0
LINE
  5
185
330
67C
100
AcDbEntity
  8
0
100
AcDbLine
 10
139.9999999999995
 20
100.0000000000001
 30
0.0
 11
143.9999999999994
 21
100.0000000000001
 31
0.0
  0
LINE
  5
186
330
67C
100
AcDbEntity
  8
0
100
AcDbLine
 10
143.9999999999994
 20
100.0000000000001
 30
0.0
 11
143.9999999999995
 21
90.00000000000006
 31
0.0
  0
LINE
  5
187
330
67C
100
AcDbEntity
  8
0
100
AcDbLine
 10
123.9999999999995
 20
140.0000000000001
 30
0.0
 11
123.9999999999995
 21
24.00000000000003
 31
0.0
  0
LINE
  5
188
330
67C
100
AcDbEntity
  8
0
100
AcDbLine
 10
143.9999999999995
 20
90.00000000000006
 30
0.0
 11
139.9999999999995
 21
90.00000000000006
 31
0.0
  0
LINE
  5
189
330
67C
100
AcDbEntity
  8
0
100
AcDbLine
 10
139.9999999999995
 20
90.00000000000006
 30
0.0
 11
139.9999999999995
 21
80.00000000000006
 31
0.0
  0
LINE
  5
18A
330
67C
100
AcDbEntity
  8
0
100
AcDbLine
 10
139.9999999999995
 20
80.00000000000006
 30
0.0
 11
143.9999999999995
 21
80.00000000000006
 31
0.0
  0
LINE
  5
18B
330
67C
100
AcDbEntity
  8
0
100
AcDbLine
 10
143.9999999999995
 20
80.00000000000006
 30
0.0
 11
143.9999999999995
 21
70.0
 31
0.0
  0
LINE
  5
18C
330
67C
100
AcDbEntity
  8
0
100
AcDbLine
 10
143.9999999999995
 20
70.0
 30
0.0
 11
139.9999999999995
 21
70.0
 31
0.0
  0
LINE
  5
18D
330
67C
100
AcDbEntity
  8
0
100
AcDbLine
 10
139.9999999999995
 20
70.0
 30
0.0
 11
139.9999999999995
 21
60.0
 31
0.0
  0
LINE
  5
18E
330
67C
100
AcDbEntity
  8
0
100
AcDbLine
 10
139.9999999999995
 20
60.0
 30
0.0
 11
143.9999999999995
 21
60.0
 31
0.0
  0
LINE
  5
18F
330
67C
100
AcDbEntity
  8
0
100
AcDbLine
 10
143.9999999999995
 20
60.0
 30
0.0
 11
143.9999999999995
 21
50.00000000000004
 31
0.0
  0
LINE
  5
190
330
67C
100
AcDbEntity
  8
0
100
AcDbLine
 10
143.9999999999995
 20
50.00000000000004
 30
0.0
 11
139.9999999999995
 21
50.00000000000001
 31
0.0
  0
LINE
  5
191
330
67C
100
AcDbEntity
  8
0
100
AcDbLine
 10
139.9999999999995
 20
50.00000000000001
 30
0.0
 11
139.9999999999995
 21
40.00000000000004
 31
0.0
  0
LINE
  5
192
330
67C
100
AcDbEntity
  8
0
100
AcDbLine
 10
139.9999999999995
 20
40.00000000000004
 30
0.0
 11
143.9999999999995
 21
40.00000000000004
 31
0.0
  0
LINE
  5
2E6
330
67C
100
AcDbEntity
  8
0
100
AcDbLine
 10
696.0
 20
110.0
 30
0.0
 11
700.0
 21
110.0
 31
0.0
  0
LINE
  5
2E7
330
67C
100
AcDbEntity
  8
0
100
AcDbLine
 10
700.0
 20
110.0
 30
0.0
 11
700.0
 21
100.0
 31
0.0
  0
LINE
  5
2E8
330
67C
100
AcDbEntity
  8
0
100
AcDbLine
 10
700.0
 20
100.0
 30
0.0
 11
696.0
 21
100.0
 31
0.0
  0
LINE
  5
2E9
330
67C
100
AcDbEntity
  8
0
100
AcDbLine
 10
696.0
 20
100.0
 30
0.0
 11
696.0
 21
90.0
 31
0.0
  0
LINE
  5
2EA
330
67C
100
AcDbEntity
  8
0
100
AcDbLine
 10
696.0
 20
90.0
 30
0.0
 11
700.0
 21
90.0
 31
0.0
  0
LINE
  5
2EB
330
67C
100
AcDbEntity
  8
0
100
AcDbLine
 10
700.0
 20
90.0
 30
0.0
 11
700.0
 21
80.0
 31
0.0
  0
LINE
  5
2EC
330
67C
100
AcDbEntity
  8
0
100
AcDbLine
 10
700.0
 20
80.0
 30
0.0
 11
696.0
 21
80.0
 31
0.0
  0
LINE
  5
2ED
330
67C
100
AcDbEntity
  8
0
100
AcDbLine
 10
696.0
 20
80.0
 30
0.0
 11
696.0
 21
70.0
 31
0.0
  0
LINE
  5
2EE
330
67C
100
AcDbEntity
  8
0
100
AcDbLine
 10
696.0
 20
70.0
 30
0.0
 11
700.0
 21
70.0
 31
0.0
  0
LINE
  5
2EF
330
67C
100
AcDbEntity
  8
0
100
AcDbLine
 10
700.0
 20
70.0
 30
0.0
 11
700.0
 21
60.0
 31
0.0
  0
LINE
  5
2F0
330
67C
100
AcDbEntity
  8
0
100
AcDbLine
 10
700.0
 20
60.0
 30
0.0
 11
696.0
 21
60.0
 31
0.0
  0
LINE
  5
2F1
330
67C
100
AcDbEntity
  8
0
100
AcDbLine
 10
696.0
 20
60.0
 30
0.0
 11
696.0
 21
50.0
 31
0.0
  0
LINE
  5
2F2
330
67C
100
AcDbEntity
  8
0
100
AcDbLine
 10
696.0
 20
50.0
 30
0.0
 11
700.0
 21
50.0
 31
0.0
  0
LINE
  5
2F3
330
67C
100
AcDbEntity
  8
0
100
AcDbLine
 10
700.0
 20
50.0
 30
0.0
 11
700.0
 21
40.0
 31
0.0
  0
LINE
  5
2F4
330
67C
100
AcDbEntity
  8
0
100
AcDbLine
 10
700.0
 20
40.0
 30
0.0
 11
696.0
 21
40.0
 31
0.0
  0
LINE
  5
2F6
330
67C
100
AcDbEntity
  8
0
100
AcDbLine
 10
696.0
 20
116.0
 30
0.0
 11
696.0
 21
110.0
 31
0.0
  0
LINE
  5
30A
330
67C
100
AcDbEntity
  8
0
100
AcDbLine
 10
696.0
 20
30.0
 30
0.0
 11
700.0
 21
30.0
 31
0.0
  0
LINE
  5
30B
330
67C
100
AcDbEntity
  8
0
100
AcDbLine
 10
700.0
 20
30.0
 30
0.0
 11
700.0
 21
20.0
 31
0.0
  0
LINE
  5
30E
330
67C
100
AcDbEntity
  8
0
100
AcDbLine
 10
696.0
 20
40.0
 30
0.0
 11
696.0
 21
30.0
 31
0.0
  0
LINE
  5
326
330
67C
100
AcDbEntity
  8
0
100
AcDbLine
 10
690.0
 20
20.0
 30
0.0
 11
690.0
 21
24.0
 31
0.0
  0
LINE
  5
327
330
67C
100
AcDbEntity
  8
0
100
AcDbLine
 10
690.0
 20
24.0
 30
0.0
 11
680.0
 21
24.0
 31
0.0
  0
LINE
  5
328
330
67C
100
AcDbEntity
  8
0
100
AcDbLine
 10
680.0
 20
24.0
 30
0.0
 11
680.0
 21
20.0
 31
0.0
  0
LINE
  5
329
330
67C
100
AcDbEntity
  8
0
100
AcDbLine
 10
680.0
 20
20.0
 30
0.0
 11
670.0
 21
20.0
 31
0.0
  0
LINE
  5
32A
330
67C
100
AcDbEntity
  8
0
100
AcDbLine
 10
670.0
 20
20.0
 30
0.0
 11
670.0
 21
24.0
 31
0.0
  0
LINE
  5
32B
330
67C
100
AcDbEntity
  8
0
100
AcDbLine
 10
670.0
 20
24.0
 30
0.0
 11
660.0
 21
24.0
 31
0.0
  0
LINE
  5
32C
330
67C
100
AcDbEntity
  8
0
100
AcDbLine
 10
660.0
 20
24.0
 30
0.0
 11
660.0
 21
20.0
 31
0.0
  0
LINE
  5
32D
330
67C
100
AcDbEntity
  8
0
100
AcDbLine
 10
660.0
 20
20.0
 30
0.0
 11
650.0
 21
20.0
 31
0.0
  0
LINE
  5
32E
330
67C
100
AcDbEntity
  8
0
100
AcDbLine
 10
650.0
 20
20.0
 30
0.0
 11
650.0
 21
24.0
 31
0.0
  0
LINE
  5
32F
330
67C
100
AcDbEntity
  8
0
100
AcDbLine
 10
700.0
 20
20.0
 30
0.0
 11
690.0
 21
20.0
 31
0.0
  0
LINE
  5
330
330
67C
100
AcDbEntity
  8
0
100
AcDbLine
 10
650.0
 20
24.0
 30
0.0
 11
640.0
 21
24.0
 31
0.0
  0
LINE
  5
331
330
67C
100
AcDbEntity
  8
0
100
AcDbLine
 10
640.0
 20
24.0
 30
0.0
 11
640.0
 21
20.0
 31
0.0
  0
LINE
  5
332
330
67C
100
AcDbEntity
  8
0
100
AcDbLine
 10
640.0
 20
20.0
 30
0.0
 11
630.0
 21
20.0
 31
0.0
  0
LINE
  5
333
330
67C
100
AcDbEntity
  8
0
100
AcDbLine
 10
630.0
 20
20.0
 30
0.0
 11
630.0
 21
24.0
 31
0.0
  0
LINE
  5
334
330
67C
100
AcDbEntity
  8
0
100
AcDbLine
 10
630.0
 20
24.0
 30
0.0
 11
620.0
 21
24.0
 31
0.0
  0
LINE
  5
335
330
67C
100
AcDbEntity
  8
0
100
AcDbLine
 10
620.0
 20
24.0
 30
0.0
 11
620.0
 21
20.0
 31
0.0
  0
LINE
  5
336
330
67C
100
AcDbEntity
  8
0
100
AcDbLine
 10
620.0
 20
20.0
 30
0.0
 11
610.0
 21
20.0
 31
0.0
  0
LINE
  5
337
330
67C
100
AcDbEntity
  8
0
100
AcDbLine
 10
610.0
 20
20.0
 30
0.0
 11
610.0
 21
24.0
 31
0.0
  0
LINE
  5
381
330
67C
100
AcDbEntity
  8
0
100
AcDbLine
 10
610.0
 20
24.0
 30
0.0
 11
604.0
 21
24.0
 31
0.0
  0
LINE
  5
382
330
67C
100
AcDbEntity
  8
0
100
AcDbLine
 10
604.0
 20
24.0
 30
0.0
 11
604.0
 21
20.0
 31
0.0
  0
LINE
  5
383
330
67C
100
AcDbEntity
  8
0
100
AcDbLine
 10
604.0
 20
20.0
 30
0.0
 11
600.0
 21
20.0
 31
0.0
  0
LINE
  5
384
330
67C
100
AcDbEntity
  8
0
100
AcDbLine
 10
600.0
 20
20.0
 30
0.0
 11
600.0
 21
30.0
 31
0.0
  0
LINE
  5
385
330
67C
100
AcDbEntity
  8
0
100
AcDbLine
 10
600.0
 20
30.0
 30
0.0
 11
604.0
 21
30.0
 31
0.0
  0
LINE
  5
386
330
67C
100
AcDbEntity
  8
0
100
AcDbLine
 10
604.0
 20
30.0
 30
0.0
 11
604.0
 21
40.0
 31
0.0
  0
LINE
  5
387
330
67C
100
AcDbEntity
  8
0
100
AcDbLine
 10
604.0
 20
40.0
 30
0.0
 11
600.0
 21
40.0
 31
0.0
  0
LINE
  5
388
330
67C
100
AcDbEntity
  8
0
100
AcDbLine
 10
600.0
 20
40.0
 30
0.0
 11
600.0
 21
50.0
 31
0.0
  0
LINE
  5
389
330
67C
100
AcDbEntity
  8
0
100
AcDbLine
 10
600.0
 20
50.0
 30
0.0
 11
604.0
 21
50.0
 31
0.0
  0
LINE
  5
38A
330
67C
100
AcDbEntity
  8
0
100
AcDbLine
 10
604.0
 20
50.0
 30
0.0
 11
604.0
 21
60.0
 31
0.0
  0
LINE
  5
38B
330
67C
100
AcDbEntity
  8
0
100
AcDbLine
 10
604.0
 20
60.0
 30
0.0
 11
600.0
 21
60.0
 31
0.0
  0
LINE
  5
38C
330
67C
100
AcDbEntity
  8
0
100
AcDbLine
 10
600.0
 20
60.0
 30
0.0
 11
600.0
 21
70.0
 31
0.0
  0
LINE
  5
38D
330
67C
100
AcDbEntity
  8
0
100
AcDbLine
 10
600.0
 20
70.0
 30
0.0
 11
604.0
 21
70.0
 31
0.0
  0
LINE
  5
38E
330
67C
100
AcDbEntity
  8
0
100
AcDbLine
 10
604.0
 20
70.0
 30
0.0
 11
604.0
 21
80.0
 31
0.0
  0
LINE
  5
38F
330
67C
100
AcDbEntity
  8
0
100
AcDbLine
 10
604.0
 20
80.0
 30
0.0
 11
600.0
 21
80.0
 31
0.0
  0
LINE
  5
390
330
67C
100
AcDbEntity
  8
0
100
AcDbLine
 10
600.0
 20
80.0
 30
0.0
 11
600.0
 21
90.0
 31
0.0
  0
LINE
  5
391
330
67C
100
AcDbEntity
  8
0
100
AcDbLine
 10
600.0
 20
90.0
 30
0.0
 11
604.0
 21
90.0
 31
0.0
  0
LINE
  5
392
330
67C
100
AcDbEntity
  8
0
100
AcDbLine
 10
604.0
 20
90.0
 30
0.0
 11
604.0
 21
100.0
 31
0.0
  0
LINE
  5
393
330
67C
100
AcDbEntity
  8
0
100
AcDbLine
 10
604.0
 20
100.0
 30
0.0
 11
600.0
 21
100.0
 31
0.0
  0
LINE
  5
394
330
67C
100
AcDbEntity
  8
0
100
AcDbLine
 10
600.0
 20
100.0
 30
0.0
 11
600.0
 21
110.0
 31
0.0
  0
LINE
  5
395
330
67C
100
AcDbEntity
  8
0
100
AcDbLine
 10
600.0
 20
110.0
 30
0.0
 11
604.0
 21
110.0
 31
0.0
  0
LINE
  5
396
330
67C
100
AcDbEntity
  8
0
100
AcDbLine
 10
604.0
 20
110.0
 30
0.0
 11
604.0
 21
116.0
 31
0.0
  0
LINE
  5
438
330
67C
100
AcDbEntity
  8
0
100
AcDbLine
 10
366.0000000000011
 20
210.0
 30
0.0
 11
370.0
 21
210.0
 31
0.0
  0
LINE
  5
439
330
67C
100
AcDbEntity
  8
0
100
AcDbLine
 10
370.0
 20
210.0
 30
0.0
 11
370.0
 21
200.0
 31
0.0
  0
LINE
  5
43A
330
67C
100
AcDbEntity
  8
0
100
AcDbLine
 10
370.0
 20
200.0
 30
0.0
 11
366.0000000000011
 21
200.0
 31
0.0
  0
LINE
  5
43B
330
67C
100
AcDbEntity
  8
0
100
AcDbLine
 10
366.0000000000011
 20
200.0
 30
0.0
 11
366.0000000000016
 21
190.0
 31
0.0
  0
LINE
  5
43C
330
67C
100
AcDbEntity
  8
0
100
AcDbLine
 10
366.0000000000016
 20
190.0
 30
0.0
 11
370.0
 21
190.0
 31
0.0
  0
LINE
  5
43D
330
67C
100
AcDbEntity
  8
0
100
AcDbLine
 10
370.0
 20
190.0
 30
0.0
 11
370.0
 21
180.0
 31
0.0
  0
LINE
  5
43E
330
67C
100
AcDbEntity
  8
0
100
AcDbLine
 10
370.0
 20
180.0
 30
0.0
 11
366.0000000000003
 21
180.0
 31
0.0
  0
LINE
  5
43F
330
67C
100
AcDbEntity
  8
0
100
AcDbLine
 10
366.0000000000003
 20
180.0
 30
0.0
 11
366.0000000000013
 21
170.0
 31
0.0
  0
LINE
  5
440
330
67C
100
AcDbEntity
  8
0
100
AcDbLine
 10
366.0000000000013
 20
170.0
 30
0.0
 11
370.0
 21
170.0
 31
0.0
  0
LINE
  5
441
330
67C
100
AcDbEntity
  8
0
100
AcDbLine
 10
370.0
 20
170.0
 30
0.0
 11
370.0
 21
160.0
 31
0.0
  0
LINE
  5
442
330
67C
100
AcDbEntity
  8
0
100
AcDbLine
 10
370.0
 20
160.0
 30
0.0
 11
366.0000000000006
 21
160.0
 31
0.0
  0
LINE
  5
443
330
67C
100
AcDbEntity
  8
0
100
AcDbLine
 10
366.0000000000006
 20
160.0
 30
0.0
 11
366.0000000000011
 21
150.0
 31
0.0
  0
LINE
  5
444
330
67C
100
AcDbEntity
  8
0
100
AcDbLine
 10
366.0000000000011
 20
150.0
 30
0.0
 11
370.0
 21
150.0
 31
0.0
  0
LINE
  5
445
330
67C
100
AcDbEntity
  8
0
100
AcDbLine
 10
370.0
 20
150.0
 30
0.0
 11
370.0
 21
140.0
 31
0.0
  0
LINE
  5
446
330
67C
100
AcDbEntity
  8
0
100
AcDbLine
 10
370.0
 20
140.0
 30
0.0
 11
366.0000000000011
 21
140.0
 31
0.0
  0
LINE
  5
447
330
67C
100
AcDbEntity
  8
0
100
AcDbLine
 10
366.0000000000011
 20
140.0
 30
0.0
 11
366.0000000000012
 21
130.0
 31
0.0
  0
LINE
  5
448
330
67C
100
AcDbEntity
  8
0
100
AcDbLine
 10
366.0000000000012
 20
130.0
 30
0.0
 11
370.0
 21
130.0
 31
0.0
  0
LINE
  5
449
330
67C
100
AcDbEntity
  8
0
100
AcDbLine
 10
370.0
 20
130.0
 30
0.0
 11
370.0
 21
120.0
 31
0.0
  0
LINE
  5
44A
330
67C
100
AcDbEntity
  8
0
100
AcDbLine
 10
370.0
 20
120.0
 30
0.0
 11
366.000000000001
 21
120.0
 31
0.0
  0
LINE
  5
44B
330
67C
100
AcDbEntity
  8
0
100
AcDbLine
 10
366.000000000001
 20
120.0
 30
0.0
 11
366.0000000000012
 21
110.0
 31
0.0
  0
LINE
  5
44C
330
67C
100
AcDbEntity
  8
0
100
AcDbLine
 10
366.0000000000012
 20
110.0
 30
0.0
 11
370.0
 21
110.0
 31
0.0
  0
LINE
  5
44D
330
67C
100
AcDbEntity
  8
0
100
AcDbLine
 10
370.0
 20
110.0
 30
0.0
 11
370.0
 21
100.0
 31
0.0
  0
LINE
  5
44E
330
67C
100
AcDbEntity
  8
0
100
AcDbLine
 10
370.0
 20
100.0
 30
0.0
 11
366.000000000001
 21
100.0
 31
0.0
  0
LINE
  5
44F
330
67C
100
AcDbEntity
  8
0
100
AcDbLine
 10
366.000000000001
 20
100.0
 30
0.0
 11
366.0000000000013
 21
90.0
 31
0.0
  0
LINE
  5
450
330
67C
100
AcDbEntity
  8
0
100
AcDbLine
 10
366.0000000000013
 20
90.0
 30
0.0
 11
370.0
 21
90.0
 31
0.0
  0
LINE
  5
451
330
67C
100
AcDbEntity
  8
0
100
AcDbLine
 10
370.0
 20
90.0
 30
0.0
 11
370.0
 21
80.00000000000001
 31
0.0
  0
LINE
  5
452
330
67C
100
AcDbEntity
  8
0
100
AcDbLine
 10
370.0
 20
80.00000000000001
 30
0.0
 11
366.0000000000011
 21
80.00000000000001
 31
0.0
  0
LINE
  5
453
330
67C
100
AcDbEntity
  8
0
100
AcDbLine
 10
366.0000000000011
 20
80.00000000000001
 30
0.0
 11
366.0000000000011
 21
70.00000000000001
 31
0.0
  0
LINE
  5
454
330
67C
100
AcDbEntity
  8
0
100
AcDbLine
 10
366.0000000000011
 20
70.00000000000001
 30
0.0
 11
370.0
 21
70.00000000000001
 31
0.0
  0
LINE
  5
455
330
67C
100
AcDbEntity
  8
0
100
AcDbLine
 10
370.0
 20
70.00000000000001
 30
0.0
 11
370.0
 21
60.00000000000001
 31
0.0
  0
LINE
  5
456
330
67C
100
AcDbEntity
  8
0
100
AcDbLine
 10
370.0
 20
60.00000000000001
 30
0.0
 11
366.0000000000011
 21
60.00000000000001
 31
0.0
  0
LINE
  5
457
330
67C
100
AcDbEntity
  8
0
100
AcDbLine
 10
366.0000000000011
 20
60.00000000000001
 30
0.0
 11
366.0000000000011
 21
50.00000000000001
 31
0.0
  0
LINE
  5
458
330
67C
100
AcDbEntity
  8
0
100
AcDbLine
 10
366.0000000000011
 20
50.00000000000001
 30
0.0
 11
370.0
 21
50.00000000000001
 31
0.0
  0
LINE
  5
459
330
67C
100
AcDbEntity
  8
0
100
AcDbLine
 10
370.0
 20
50.00000000000001
 30
0.0
 11
370.0
 21
39.99999999999999
 31
0.0
  0
LINE
  5
45A
330
67C
100
AcDbEntity
  8
0
100
AcDbLine
 10
370.0
 20
39.99999999999999
 30
0.0
 11
366.0000000000011
 21
40.00000000000001
 31
0.0
  0
LINE
  5
45B
330
67C
100
AcDbEntity
  8
0
100
AcDbLine
 10
366.0000000000011
 20
40.00000000000001
 30
0.0
 11
366.0000000000011
 21
30.00000000000001
 31
0.0
  0
LINE
  5
45C
330
67C
100
AcDbEntity
  8
0
100
AcDbLine
 10
366.0000000000011
 20
30.00000000000001
 30
0.0
 11
370.0
 21
29.99999999999999
 31
0.0
  0
LINE
  5
45D
330
67C
100
AcDbEntity
  8
0
100
AcDbLine
 10
370.0
 20
29.99999999999999
 30
0.0
 11
370.0
 21
19.99999999999999
 31
0.0
  0
LINE
  5
45F
330
67C
100
AcDbEntity
  8
0
100
AcDbLine
 10
270.0000000000011
 20
20.00000000000001
 30
0.0
 11
270.0000000000011
 21
30.00000000000016
 31
0.0
  0
LINE
  5
460
330
67C
100
AcDbEntity
  8
0
100
AcDbLine
 10
270.0000000000011
 20
30.00000000000016
 30
0.0
 11
274.000000000001
 21
30.00000000000004
 31
0.0
  0
LINE
  5
461
330
67C
100
AcDbEntity
  8
0
100
AcDbLine
 10
274.000000000001
 20
30.00000000000004
 30
0.0
 11
274.0000000000009
 21
40.00000000000011
 31
0.0
  0
LINE
  5
462
330
67C
100
AcDbEntity
  8
0
100
AcDbLine
 10
274.0000000000009
 20
40.00000000000011
 30
0.0
 11
270.0000000000011
 21
40.00000000000003
 31
0.0
  0
LINE
  5
463
330
67C
100
AcDbEntity
  8
0
100
AcDbLine
 10
270.0000000000011
 20
40.00000000000003
 30
0.0
 11
270.0000000000011
 21
50.00000000000004
 31
0.0
  0
LINE
  5
464
330
67C
100
AcDbEntity
  8
0
100
AcDbLine
 10
270.0000000000011
 20
50.00000000000004
 30
0.0
 11
274.0000000000009
 21
50.00000000000012
 31
0.0
  0
LINE
  5
465
330
67C
100
AcDbEntity
  8
0
100
AcDbLine
 10
274.0000000000009
 20
50.00000000000012
 30
0.0
 11
274.0000000000011
 21
59.99999999999997
 31
0.0
  0
LINE
  5
466
330
67C
100
AcDbEntity
  8
0
100
AcDbLine
 10
274.0000000000011
 20
59.99999999999997
 30
0.0
 11
270.0000000000011
 21
59.99999999999999
 31
0.0
  0
LINE
  5
467
330
67C
100
AcDbEntity
  8
0
100
AcDbLine
 10
270.0000000000011
 20
59.99999999999999
 30
0.0
 11
270.0000000000011
 21
70.0
 31
0.0
  0
LINE
  5
468
330
67C
100
AcDbEntity
  8
0
100
AcDbLine
 10
270.0000000000011
 20
70.0
 30
0.0
 11
274.000000000001
 21
70.0
 31
0.0
  0
LINE
  5
469
330
67C
100
AcDbEntity
  8
0
100
AcDbLine
 10
274.000000000001
 20
70.0
 30
0.0
 11
274.0000000000011
 21
79.99999999999999
 31
0.0
  0
LINE
  5
46A
330
67C
100
AcDbEntity
  8
0
100
AcDbLine
 10
274.0000000000011
 20
79.99999999999999
 30
0.0
 11
270.0000000000011
 21
80.00000000000004
 31
0.0
  0
LINE
  5
46B
330
67C
100
AcDbEntity
  8
0
100
AcDbLine
 10
270.0000000000011
 20
80.00000000000004
 30
0.0
 11
270.0000000000012
 21
90.0
 31
0.0
  0
LINE
  5
46C
330
67C
100
AcDbEntity
  8
0
100
AcDbLine
 10
270.0000000000012
 20
90.0
 30
0.0
 11
274.000000000001
 21
90.00000000000007
 31
0.0
  0
LINE
  5
46D
330
67C
100
AcDbEntity
  8
0
100
AcDbLine
 10
274.000000000001
 20
90.00000000000007
 30
0.0
 11
274.000000000001
 21
100.0000000000001
 31
0.0
  0
LINE
  5
46E
330
67C
100
AcDbEntity
  8
0
100
AcDbLine
 10
274.000000000001
 20
100.0000000000001
 30
0.0
 11
270.000000000001
 21
100.0
 31
0.0
  0
LINE
  5
46F
330
67C
100
AcDbEntity
  8
0
100
AcDbLine
 10
270.000000000001
 20
100.0
 30
0.0
 11
270.0000000000012
 21
110.0
 31
0.0
  0
LINE
  5
470
330
67C
100
AcDbEntity
  8
0
100
AcDbLine
 10
270.0000000000012
 20
110.0
 30
0.0
 11
274.0000000000011
 21
110.0
 31
0.0
  0
LINE
  5
471
330
67C
100
AcDbEntity
  8
0
100
AcDbLine
 10
274.0000000000011
 20
110.0
 30
0.0
 11
274.000000000001
 21
120.0000000000001
 31
0.0
  0
LINE
  5
472
330
67C
100
AcDbEntity
  8
0
100
AcDbLine
 10
274.000000000001
 20
120.0000000000001
 30
0.0
 11
270.000000000001
 21
120.0000000000001
 31
0.0
  0
LINE
  5
473
330
67C
100
AcDbEntity
  8
0
100
AcDbLine
 10
270.000000000001
 20
120.0000000000001
 30
0.0
 11
270.0000000000011
 21
130.0
 31
0.0
  0
LINE
  5
474
330
67C
100
AcDbEntity
  8
0
100
AcDbLine
 10
270.0000000000011
 20
130.0
 30
0.0
 11
274.000000000001
 21
130.0000000000001
 31
0.0
  0
LINE
  5
475
330
67C
100
AcDbEntity
  8
0
100
AcDbLine
 10
274.000000000001
 20
130.0000000000001
 30
0.0
 11
274.000000000001
 21
140.0000000000001
 31
0.0
  0
LINE
  5
476
330
67C
100
AcDbEntity
  8
0
100
AcDbLine
 10
274.000000000001
 20
140.0000000000001
 30
0.0
 11
270.000000000001
 21
140.0000000000002
 31
0.0
  0
LINE
  5
477
330
67C
100
AcDbEntity
  8
0
100
AcDbLine
 10
270.000000000001
 20
140.0000000000002
 30
0.0
 11
270.0000000000011
 21
150.0000000000001
 31
0.0
  0
LINE
  5
478
330
67C
100
AcDbEntity
  8
0
100
AcDbLine
 10
270.0000000000011
 20
150.0000000000001
 30
0.0
 11
274.000000000001
 21
150.0000000000001
 31
0.0
  0
LINE
  5
479
330
67C
100
AcDbEntity
  8
0
100
AcDbLine
 10
274.000000000001
 20
150.0000000000001
 30
0.0
 11
274.0000000000011
 21
160.0000000000001
 31
0.0
  0
LINE
  5
47A
330
67C
100
AcDbEntity
  8
0
100
AcDbLine
 10
274.0000000000011
 20
160.0000000000001
 30
0.0
 11
270.0000000000011
 21
160.0000000000001
 31
0.0
  0
LINE
  5
47B
330
67C
100
AcDbEntity
  8
0
100
AcDbLine
 10
270.0000000000011
 20
160.0000000000001
 30
0.0
 11
270.0000000000011
 21
170.0000000000001
 31
0.0
  0
LINE
  5
47C
330
67C
100
AcDbEntity
  8
0
100
AcDbLine
 10
270.0000000000011
 20
170.0000000000001
 30
0.0
 11
274.0000000000012
 21
170.0
 31
0.0
  0
LINE
  5
47D
330
67C
100
AcDbEntity
  8
0
100
AcDbLine
 10
274.0000000000012
 20
170.0
 30
0.0
 11
274.0000000000012
 21
180.0
 31
0.0
  0
LINE
  5
47E
330
67C
100
AcDbEntity
  8
0
100
AcDbLine
 10
274.0000000000012
 20
180.0
 30
0.0
 11
270.0000000000011
 21
180.0000000000001
 31
0.0
  0
LINE
  5
47F
330
67C
100
AcDbEntity
  8
0
100
AcDbLine
 10
270.0000000000011
 20
180.0000000000001
 30
0.0
 11
270.0000000000011
 21
189.9999999999999
 31
0.0
  0
LINE
  5
480
330
67C
100
AcDbEntity
  8
0
100
AcDbLine
 10
270.0000000000011
 20
189.9999999999999
 30
0.0
 11
274.0000000000011
 21
190.0000000000001
 31
0.0
  0
LINE
  5
481
330
67C
100
AcDbEntity
  8
0
100
AcDbLine
 10
274.0000000000011
 20
190.0000000000001
 30
0.0
 11
274.0000000000011
 21
200.0000000000001
 31
0.0
  0
LINE
  5
482
330
67C
100
AcDbEntity
  8
0
100
AcDbLine
 10
274.0000000000011
 20
200.0000000000001
 30
0.0
 11
270.0000000000011
 21
199.9999999999999
 31
0.0
  0
LINE
  5
483
330
67C
100
AcDbEntity
  8
0
100
AcDbLine
 10
270.0000000000011
 20
199.9999999999999
 30
0.0
 11
270.0000000000011
 21
210.0
 31
0.0
  0
LINE
  5
484
330
67C
100
AcDbEntity
  8
0
100
AcDbLine
 10
270.0000000000011
 20
210.0
 30
0.0
 11
274.0000000000011
 21
210.0000000000001
 31
0.0
  0
LINE
  5
485
330
67C
100
AcDbEntity
  8
0
100
AcDbLine
 10
274.0000000000011
 20
210.0000000000001
 30
0.0
 11
274.0000000000011
 21
220.0
 31
0.0
  0
LINE
  5
488
330
67C
100
AcDbEntity
  8
0
100
AcDbLine
 10
274.0000000000011
 20
220.0
 30
0.0
 11
280.0000000000012
 21
220.0000000000001
 31
0.0
  0
LINE
  5
489
330
67C
100
AcDbEntity
  8
0
100
AcDbLine
 10
280.0000000000012
 20
220.0000000000001
 30
0.0
 11
280.0000000000011
 21
216.0000000000001
 31
0.0
  0
LINE
  5
48A
330
67C
100
AcDbEntity
  8
0
100
AcDbLine
 10
280.0000000000011
 20
216.0000000000001
 30
0.0
 11
290.0000000000011
 21
216.0000000000001
 31
0.0
  0
LINE
  5
48B
330
67C
100
AcDbEntity
  8
0
100
AcDbLine
 10
290.0000000000011
 20
216.0000000000001
 30
0.0
 11
290.0000000000011
 21
220.0000000000001
 31
0.0
  0
LINE
  5
48C
330
67C
100
AcDbEntity
  8
0
100
AcDbLine
 10
290.0000000000011
 20
220.0000000000001
 30
0.0
 11
300.0000000000011
 21
219.9999999999999
 31
0.0
  0
LINE
  5
48D
330
67C
100
AcDbEntity
  8
0
100
AcDbLine
 10
300.0000000000011
 20
219.9999999999999
 30
0.0
 11
300.0000000000011
 21
216.0000000000001
 31
0.0
  0
LINE
  5
48E
330
67C
100
AcDbEntity
  8
0
100
AcDbLine
 10
300.0000000000011
 20
216.0000000000001
 30
0.0
 11
310.000000000001
 21
216.0000000000001
 31
0.0
  0
LINE
  5
48F
330
67C
100
AcDbEntity
  8
0
100
AcDbLine
 10
310.000000000001
 20
216.0000000000001
 30
0.0
 11
310.0000000000011
 21
219.9999999999999
 31
0.0
  0
LINE
  5
490
330
67C
100
AcDbEntity
  8
0
100
AcDbLine
 10
310.0000000000011
 20
219.9999999999999
 30
0.0
 11
320.0000000000011
 21
220.0000000000001
 31
0.0
  0
LINE
  5
491
330
67C
100
AcDbEntity
  8
0
100
AcDbLine
 10
320.0000000000011
 20
220.0000000000001
 30
0.0
 11
320.000000000001
 21
216.0000000000001
 31
0.0
  0
LINE
  5
492
330
67C
100
AcDbEntity
  8
0
100
AcDbLine
 10
320.000000000001
 20
216.0000000000001
 30
0.0
 11
330.0000000000011
 21
216.0
 31
0.0
  0
LINE
  5
493
330
67C
100
AcDbEntity
  8
0
100
AcDbLine
 10
330.0000000000011
 20
216.0
 30
0.0
 11
330.0000000000011
 21
220.0000000000001
 31
0.0
  0
LINE
  5
494
330
67C
100
AcDbEntity
  8
0
100
AcDbLine
 10
330.0000000000011
 20
220.0000000000001
 30
0.0
 11
340.0000000000012
 21
220.0
 31
0.0
  0
LINE
  5
495
330
67C
100
AcDbEntity
  8
0
100
AcDbLine
 10
340.0000000000012
 20
220.0
 30
0.0
 11
340.0000000000011
 21
216.0
 31
0.0
  0
LINE
  5
496
330
67C
100
AcDbEntity
  8
0
100
AcDbLine
 10
340.0000000000011
 20
216.0
 30
0.0
 11
350.0000000000009
 21
216.0
 31
0.0
  0
LINE
  5
497
330
67C
100
AcDbEntity
  8
0
100
AcDbLine
 10
350.0000000000009
 20
216.0
 30
0.0
 11
350.0000000000012
 21
220.0
 31
0.0
  0
LINE
  5
498
330
67C
100
AcDbEntity
  8
0
100
AcDbLine
 10
350.0000000000012
 20
220.0
 30
0.0
 11
360.0000000000012
 21
220.0
 31
0.0
  0
LINE
  5
499
330
67C
100
AcDbEntity
  8
0
100
AcDbLine
 10
360.0000000000012
 20
220.0
 30
0.0
 11
360.000000000001
 21
216.0
 31
0.0
  0
LINE
  5
49A
330
67C
100
AcDbEntity
  8
0
100
AcDbLine
 10
360.000000000001
 20
216.0
 30
0.0
 11
366.000000000001
 21
216.0
 31
0.0
  0
LINE
  5
49B
330
67C
100
AcDbEntity
  8
0
100
AcDbLine
 10
366.000000000001
 20
216.0
 30
0.0
 11
366.0000000000011
 21
210.0
 31
0.0
  0
LINE
  5
505
330
67C
100
AcDbEntity
  8
0
100
AcDbLine
 10
110.0
 20
180.0
 30
0.0
 11
110.0
 21
176.0
 31
0.0
  0
LINE
  5
506
330
67C
100
AcDbEntity
  8
0
100
AcDbLine
 10
110.0
 20
176.0
 30
0.0
 11
120.0
 21
176.0
 31
0.0
  0
LINE
  5
507
330
67C
100
AcDbEntity
  8
0
100
AcDbLine
 10
120.0
 20
176.0
 30
0.0
 11
120.0
 21
180.0
 31
0.0
  0
LINE
  5
508
330
67C
100
AcDbEntity
  8
0
100
AcDbLine
 10
120.0
 20
180.0
 30
0.0
 11
130.0
 21
180.0
 31
0.0
  0
LINE
  5
509
330
67C
100
AcDbEntity
  8
0
100
AcDbLine
 10
130.0
 20
180.0
 30
0.0
 11
130.0
 21
176.0
 31
0.0
  0
LINE
  5
50A
330
67C
100
AcDbEntity
  8
0
100
AcDbLine
 10
130.0
 20
176.0
 30
0.0
 11
140.0
 21
176.0
 31
0.0
  0
LINE
  5
50B
330
67C
100
AcDbEntity
  8
0
100
AcDbLine
 10
140.0
 20
176.0
 30
0.0
 11
140.0
 21
180.0
 31
0.0
  0
LINE
  5
50C
330
67C
100
AcDbEntity
  8
0
100
AcDbLine
 10
140.0
 20
180.0
 30
0.0
 11
150.0
 21
180.0
 31
0.0
  0
LINE
  5
50D
330
67C
100
AcDbEntity
  8
0
100
AcDbLine
 10
100.0
 20
272.0
 30
0.0
 11
110.0
 21
272.0
 31
0.0
  0
LINE
  5
50E
330
67C
100
AcDbEntity
  8
0
100
AcDbLine
 10
110.0
 20
272.0
 30
0.0
 11
110.0
 21
276.0
 31
0.0
  0
LINE
  5
50F
330
67C
100
AcDbEntity
  8
0
100
AcDbLine
 10
110.0
 20
276.0
 30
0.0
 11
120.0
 21
276.0
 31
0.0
  0
LINE
  5
510
330
67C
100
AcDbEntity
  8
0
100
AcDbLine
 10
120.0
 20
276.0
 30
0.0
 11
120.0
 21
272.0
 31
0.0
  0
LINE
  5
511
330
67C
100
AcDbEntity
  8
0
100
AcDbLine
 10
120.0
 20
272.0
 30
0.0
 11
130.0
 21
272.0
 31
0.0
  0
LINE
  5
512
330
67C
100
AcDbEntity
  8
0
100
AcDbLine
 10
130.0
 20
272.0
 30
0.0
 11
130.0
 21
276.0
 31
0.0
  0
LINE
  5
513
330
67C
100
AcDbEntity
  8
0
100
AcDbLine
 10
130.0
 20
276.0
 30
0.0
 11
140.0
 21
276.0
 31
0.0
  0
LINE
  5
514
330
67C
100
AcDbEntity
  8
0
100
AcDbLine
 10
140.0
 20
276.0
 30
0.0
 11
140.0
 21
272.0
 31
0.0
  0
LINE
  5
515
330
67C
100
AcDbEntity
  8
0
100
AcDbLine
 10
140.0
 20
272.0
 30
0.0
 11
150.0
 21
272.0
 31
0.0
  0
LINE
  5
517
330
67C
100
AcDbEntity
  8
0
100
AcDbLine
 10
150.0
 20
272.0
 30
0.0
 11
150.0
 21
180.0
 31
0.0
  0
LINE
  5
519
330
67C
100
AcDbEntity
  8
0
100
AcDbLine
 10
696.0
 20
116.0
 30
0.0
 11
696.0
 21
120.0
 31
0.0
  0
LINE
  5
51A
330
67C
100
AcDbEntity
  8
0
100
AcDbLine
 10
696.0
 20
120.0
 30
0.0
 11
686.0
 21
120.0
 31
0.0
  0
LINE
  5
51B
330
67C
100
AcDbEntity
  8
0
100
AcDbLine
 10
686.0
 20
120.0
 30
0.0
 11
686.0
 21
116.0
 31
0.0
  0
LINE
  5
51C
330
67C
100
AcDbEntity
  8
0
100
AcDbLine
 10
686.0
 20
116.0
 30
0.0
 11
676.0
 21
116.0
 31
0.0
  0
LINE
  5
51D
330
67C
100
AcDbEntity
  8
0
100
AcDbLine
 10
676.0
 20
116.0
 30
0.0
 11
676.0
 21
120.0
 31
0.0
  0
LINE
  5
51E
330
67C
100
AcDbEntity
  8
0
100
AcDbLine
 10
676.0
 20
120.0
 30
0.0
 11
666.0
 21
120.0
 31
0.0
  0
LINE
  5
51F
330
67C
100
AcDbEntity
  8
0
100
AcDbLine
 10
666.0
 20
120.0
 30
0.0
 11
666.0
 21
116.0
 31
0.0
  0
LINE
  5
520
330
67C
100
AcDbEntity
  8
0
100
AcDbLine
 10
666.0
 20
116.0
 30
0.0
 11
656.0
 21
116.0
 31
0.0
  0
LINE
  5
521
330
67C
100
AcDbEntity
  8
0
100
AcDbLine
 10
656.0
 20
116.0
 30
0.0
 11
656.0
 21
120.0
 31
0.0
  0
LINE
  5
522
330
67C
100
AcDbEntity
  8
0
100
AcDbLine
 10
656.0
 20
120.0
 30
0.0
 11
646.0
 21
120.0
 31
0.0
  0
LINE
  5
523
330
67C
100
AcDbEntity
  8
0
100
AcDbLine
 10
646.0
 20
120.0
 30
0.0
 11
646.0
 21
116.0
 31
0.0
  0
LINE
  5
524
330
67C
100
AcDbEntity
  8
0
100
AcDbLine
 10
646.0
 20
116.0
 30
0.0
 11
636.0
 21
116.0
 31
0.0
  0
LINE
  5
525
330
67C
100
AcDbEntity
  8
0
100
AcDbLine
 10
636.0
 20
116.0
 30
0.0
 11
636.0
 21
120.0
 31
0.0
  0
LINE
  5
526
330
67C
100
AcDbEntity
  8
0
100
AcDbLine
 10
636.0
 20
120.0
 30
0.0
 11
626.0
 21
120.0
 31
0.0
  0
LINE
  5
527
330
67C
100
AcDbEntity
  8
0
100
AcDbLine
 10
626.0
 20
120.0
 30
0.0
 11
626.0
 21
116.0
 31
0.0
  0
LINE
  5
528
330
67C
100
AcDbEntity
  8
0
100
AcDbLine
 10
626.0
 20
116.0
 30
0.0
 11
616.0
 21
116.0
 31
0.0
  0
LINE
  5
529
330
67C
100
AcDbEntity
  8
0
100
AcDbLine
 10
616.0
 20
116.0
 30
0.0
 11
616.0
 21
120.0
 31
0.0
  0
LINE
  5
52A
330
67C
100
AcDbEntity
  8
0
100
AcDbLine
 10
616.0
 20
120.0
 30
0.0
 11
610.0
 21
120.0
 31
0.0
  0
LINE
  5
52B
330
67C
100
AcDbEntity
  8
0
100
AcDbLine
 10
610.0
 20
120.0
 30
0.0
 11
610.0
 21
116.0
 31
0.0
  0
LINE
  5
52C
330
67C
100
AcDbEntity
  8
0
100
AcDbLine
 10
610.0
 20
116.0
 30
0.0
 11
604.0
 21
116.0
 31
0.0
  0
LINE
  5
539
330
67C
100
AcDbEntity
  8
0
100
AcDbLine
 10
104.0
 20
180.0
 30
0.0
 11
104.0
 21
190.0
 31
0.0
  0
LINE
  5
53A
330
67C
100
AcDbEntity
  8
0
100
AcDbLine
 10
104.0
 20
190.0
 30
0.0
 11
100.0
 21
190.0
 31
0.0
  0
LINE
  5
53B
330
67C
100
AcDbEntity
  8
0
100
AcDbLine
 10
100.0
 20
190.0
 30
0.0
 11
100.0
 21
200.0
 31
0.0
  0
LINE
  5
53C
330
67C
100
AcDbEntity
  8
0
100
AcDbLine
 10
100.0
 20
200.0
 30
0.0
 11
104.0
 21
200.0
 31
0.0
  0
LINE
  5
53D
330
67C
100
AcDbEntity
  8
0
100
AcDbLine
 10
104.0
 20
200.0
 30
0.0
 11
104.0
 21
210.0
 31
0.0
  0
LINE
  5
53E
330
67C
100
AcDbEntity
  8
0
100
AcDbLine
 10
104.0
 20
210.0
 30
0.0
 11
100.0
 21
210.0
 31
0.0
  0
LINE
  5
53F
330
67C
100
AcDbEntity
  8
0
100
AcDbLine
 10
100.0
 20
210.0
 30
0.0
 11
100.0
 21
220.0
 31
0.0
  0
LINE
  5
540
330
67C
100
AcDbEntity
  8
0
100
AcDbLine
 10
100.0
 20
220.0
 30
0.0
 11
104.0
 21
220.0
 31
0.0
  0
LINE
  5
541
330
67C
100
AcDbEntity
  8
0
100
AcDbLine
 10
104.0
 20
220.0
 30
0.0
 11
104.0
 21
230.0
 31
0.0
  0
LINE
  5
542
330
67C
100
AcDbEntity
  8
0
100
AcDbLine
 10
104.0
 20
230.0
 30
0.0
 11
100.0
 21
230.0
 31
0.0
  0
LINE
  5
543
330
67C
100
AcDbEntity
  8
0
100
AcDbLine
 10
100.0
 20
230.0
 30
0.0
 11
100.0
 21
240.0
 31
0.0
  0
LINE
  5
544
330
67C
100
AcDbEntity
  8
0
100
AcDbLine
 10
100.0
 20
240.0
 30
0.0
 11
104.0
 21
240.0
 31
0.0
  0
LINE
  5
545
330
67C
100
AcDbEntity
  8
0
100
AcDbLine
 10
104.0
 20
240.0
 30
0.0
 11
104.0
 21
250.0
 31
0.0
  0
LINE
  5
546
330
67C
100
AcDbEntity
  8
0
100
AcDbLine
 10
104.0
 20
250.0
 30
0.0
 11
100.0
 21
250.0
 31
0.0
  0
LINE
  5
547
330
67C
100
AcDbEntity
  8
0
100
AcDbLine
 10
100.0
 20
250.0
 30
0.0
 11
100.0
 21
260.0
 31
0.0
  0
LINE
  5
548
330
67C
100
AcDbEntity
  8
0
100
AcDbLine
 10
100.0
 20
260.0
 30
0.0
 11
104.0
 21
260.0
 31
0.0
  0
LINE
  5
549
330
67C
100
AcDbEntity
  8
0
100
AcDbLine
 10
104.0
 20
260.0
 30
0.0
 11
104.0
 21
266.0
 31
0.0
  0
LINE
  5
54A
330
67C
100
AcDbEntity
  8
0
100
AcDbLine
 10
104.0
 20
266.0
 30
0.0
 11
100.0
 21
266.0
 31
0.0
  0
LINE
  5
54B
330
67C
100
AcDbEntity
  8
0
100
AcDbLine
 10
100.0
 20
266.0
 30
0.0
 11
100.0
 21
272.0
 31
0.0
  0
LINE
  5
54C
330
67C
100
AcDbEntity
  8
0
100
AcDbLine
 10
104.0
 20
180.0
 30
0.0
 11
110.0
 21
180.0
 31
0.0
  0
LINE
  5
54F
330
67C
100
AcDbEntity
  8
0
100
AcDbLine
 10
96.0
 20
276.0
 30
0.0
 11
96.0
 21
176.0
 31
0.0
  0
LINE
  5
553
330
67C
100
AcDbEntity
  8
0
100
AcDbLine
 10
30.0
 20
272.0
 30
0.0
 11
30.0
 21
276.0
 31
0.0
  0
LINE
  5
554
330
67C
100
AcDbEntity
  8
0
100
AcDbLine
 10
30.0
 20
276.0
 30
0.0
 11
40.0
 21
276.0
 31
0.0
  0
LINE
  5
555
330
67C
100
AcDbEntity
  8
0
100
AcDbLine
 10
40.0
 20
276.0
 30
0.0
 11
40.0
 21
272.0
 31
0.0
  0
LINE
  5
556
330
67C
100
AcDbEntity
  8
0
100
AcDbLine
 10
40.0
 20
272.0
 30
0.0
 11
50.0
 21
272.0
 31
0.0
  0
LINE
  5
557
330
67C
100
AcDbEntity
  8
0
100
AcDbLine
 10
50.0
 20
272.0
 30
0.0
 11
50.0
 21
276.0
 31
0.0
  0
LINE
  5
558
330
67C
100
AcDbEntity
  8
0
100
AcDbLine
 10
50.0
 20
276.0
 30
0.0
 11
60.0
 21
276.0
 31
0.0
  0
LINE
  5
559
330
67C
100
AcDbEntity
  8
0
100
AcDbLine
 10
60.0
 20
276.0
 30
0.0
 11
60.0
 21
272.0
 31
0.0
  0
LINE
  5
55A
330
67C
100
AcDbEntity
  8
0
100
AcDbLine
 10
60.0
 20
272.0
 30
0.0
 11
70.0
 21
272.0
 31
0.0
  0
LINE
  5
55B
330
67C
100
AcDbEntity
  8
0
100
AcDbLine
 10
70.0
 20
272.0
 30
0.0
 11
70.00000000000011
 21
276.0
 31
0.0
  0
LINE
  5
55C
330
67C
100
AcDbEntity
  8
0
100
AcDbLine
 10
70.00000000000011
 20
276.0
 30
0.0
 11
80.0
 21
276.0
 31
0.0
  0
LINE
  5
55D
330
67C
100
AcDbEntity
  8
0
100
AcDbLine
 10
80.0
 20
276.0
 30
0.0
 11
80.0
 21
272.0
 31
0.0
  0
LINE
  5
55E
330
67C
100
AcDbEntity
  8
0
100
AcDbLine
 10
80.0
 20
272.0
 30
0.0
 11
90.0
 21
272.0
 31
0.0
  0
LINE
  5
55F
330
67C
100
AcDbEntity
  8
0
100
AcDbLine
 10
90.0
 20
272.0
 30
0.0
 11
89.99999999999989
 21
276.0
 31
0.0
  0
LINE
  5
560
330
67C
100
AcDbEntity
  8
0
100
AcDbLine
 10
89.99999999999989
 20
276.0
 30
0.0
 11
96.0
 21
276.0
 31
0.0
  0
LINE
  5
571
330
67C
100
AcDbEntity
  8
0
100
AcDbLine
 10
16.0
 20
180.0
 30
0.0
 11
30.0
 21
180.0
 31
0.0
  0
LINE
  5
572
330
67C
100
AcDbEntity
  8
0
100
AcDbLine
 10
30.0
 20
180.0
 30
0.0
 11
30.0
 21
176.0
 31
0.0
  0
LINE
  5
574
330
67C
100
AcDbEntity
  8
0
100
AcDbLine
 10
30.0
 20
176.0
 30
0.0
 11
40.0
 21
176.0
 31
0.0
  0
LINE
  5
575
330
67C
100
AcDbEntity
  8
0
100
AcDbLine
 10
40.0
 20
176.0
 30
0.0
 11
40.0
 21
180.0
 31
0.0
  0
LINE
  5
577
330
67C
100
AcDbEntity
  8
0
100
AcDbLine
 10
40.0
 20
180.0
 30
0.0
 11
50.0
 21
180.0
 31
0.0
  0
LINE
  5
578
330
67C
100
AcDbEntity
  8
0
100
AcDbLine
 10
50.0
 20
180.0
 30
0.0
 11
50.0
 21
176.0
 31
0.0
  0
LINE
  5
579
330
67C
100
AcDbEntity
  8
0
100
AcDbLine
 10
50.0
 20
176.0
 30
0.0
 11
60.0
 21
176.0
 31
0.0
  0
LINE
  5
57A
330
67C
100
AcDbEntity
  8
0
100
AcDbLine
 10
60.0
 20
176.0
 30
0.0
 11
60.0
 21
180.0
 31
0.0
  0
LINE
  5
57B
330
67C
100
AcDbEntity
  8
0
100
AcDbLine
 10
60.0
 20
180.0
 30
0.0
 11
70.0
 21
180.0
 31
0.0
  0
LINE
  5
57C
330
67C
100
AcDbEntity
  8
0
100
AcDbLine
 10
70.0
 20
180.0
 30
0.0
 11
70.0
 21
176.0
 31
0.0
  0
LINE
  5
57D
330
67C
100
AcDbEntity
  8
0
100
AcDbLine
 10
70.0
 20
176.0
 30
0.0
 11
80.0
 21
176.0
 31
0.0
  0
LINE
  5
57E
330
67C
100
AcDbEntity
  8
0
100
AcDbLine
 10
80.0
 20
176.0
 30
0.0
 11
80.0
 21
180.0
 31
0.0
  0
LINE
  5
57F
330
67C
100
AcDbEntity
  8
0
100
AcDbLine
 10
80.0
 20
180.0
 30
0.0
 11
90.0
 21
180.0
 31
0.0
  0
LINE
  5
581
330
67C
100
AcDbEntity
  8
0
100
AcDbLine
 10
90.0
 20
180.0
 30
0.0
 11
90.0
 21
176.0
 31
0.0
  0
LINE
  5
582
330
67C
100
AcDbEntity
  8
0
100
AcDbLine
 10
90.0
 20
176.0
 30
0.0
 11
96.0
 21
176.0
 31
0.0
  0
LINE
  5
583
330
67C
100
AcDbEntity
  8
0
100
AcDbLine
 10
370.0
 20
19.99999999999999
 30
0.0
 11
366.0000000000011
 21
20.00000000000004
 31
0.0
  0
LINE
  5
584
330
67C
100
AcDbEntity
  8
0
100
AcDbLine
 10
270.0000000000011
 20
20.00000000000001
 30
0.0
 11
274.0000000000011
 21
20.00000000000001
 31
0.0
  0
LINE
  5
589
330
67C
100
AcDbEntity
  8
0
100
AcDbLine
 10
30.0
 20
272.0
 30
0.0
 11
20.0
 21
272.0
 31
0.0
  0
LINE
  5
58A
330
67C
100
AcDbEntity
  8
0
100
AcDbLine
 10
20.0
 20
272.0
 30
0.0
 11
16.0
 21
272.0
 31
0.0
  0
LINE
  5
58C
330
67C
100
AcDbEntity
  8
0
100
AcDbLine
 10
366.0000000000011
 20
20.00000000000004
 30
0.0
 11
366.0000000000011
 21
24.00000000000004
 31
0.0
  0
LINE
  5
58D
330
67C
100
AcDbEntity
  8
0
100
AcDbLine
 10
366.0000000000011
 20
24.00000000000004
 30
0.0
 11
356.0000000000011
 21
24.00000000000005
 31
0.0
  0
LINE
  5
58E
330
67C
100
AcDbEntity
  8
0
100
AcDbLine
 10
356.0000000000011
 20
24.00000000000005
 30
0.0
 11
356.0000000000011
 21
20.00000000000005
 31
0.0
  0
LINE
  5
58F
330
67C
100
AcDbEntity
  8
0
100
AcDbLine
 10
16.0
 20
272.0
 30
0.0
 11
16.0
 21
262.0
 31
0.0
  0
LINE
  5
590
330
67C
100
AcDbEntity
  8
0
100
AcDbLine
 10
16.0
 20
262.0
 30
0.0
 11
20.0
 21
262.0
 31
0.0
  0
LINE
  5
591
330
67C
100
AcDbEntity
  8
0
100
AcDbLine
 10
356.0000000000011
 20
20.00000000000005
 30
0.0
 11
346.0000000000011
 21
20.00000000000005
 31
0.0
  0
LINE
  5
592
330
67C
100
AcDbEntity
  8
0
100
AcDbLine
 10
346.0000000000011
 20
20.00000000000005
 30
0.0
 11
346.0000000000011
 21
24.00000000000006
 31
0.0
  0
LINE
  5
593
330
67C
100
AcDbEntity
  8
0
100
AcDbLine
 10
346.0000000000011
 20
24.00000000000006
 30
0.0
 11
336.0000000000011
 21
24.00000000000005
 31
0.0
  0
LINE
  5
594
330
67C
100
AcDbEntity
  8
0
100
AcDbLine
 10
336.0000000000011
 20
24.00000000000005
 30
0.0
 11
336.0000000000011
 21
20.00000000000006
 31
0.0
  0
LINE
  5
595
330
67C
100
AcDbEntity
  8
0
100
AcDbLine
 10
336.0000000000011
 20
20.00000000000006
 30
0.0
 11
326.0000000000011
 21
20.00000000000004
 31
0.0
  0
LINE
  5
596
330
67C
100
AcDbEntity
  8
0
100
AcDbLine
 10
326.0000000000011
 20
20.00000000000004
 30
0.0
 11
326.0000000000011
 21
24.00000000000007
 31
0.0
  0
LINE
  5
597
330
67C
100
AcDbEntity
  8
0
100
AcDbLine
 10
326.0000000000011
 20
24.00000000000007
 30
0.0
 11
316.0000000000011
 21
24.00000000000005
 31
0.0
  0
LINE
  5
598
330
67C
100
AcDbEntity
  8
0
100
AcDbLine
 10
316.0000000000011
 20
24.00000000000005
 30
0.0
 11
316.0000000000011
 21
20.00000000000005
 31
0.0
  0
LINE
  5
599
330
67C
100
AcDbEntity
  8
0
100
AcDbLine
 10
316.0000000000011
 20
20.00000000000005
 30
0.0
 11
306.0000000000011
 21
20.00000000000006
 31
0.0
  0
LINE
  5
59A
330
67C
100
AcDbEntity
  8
0
100
AcDbLine
 10
306.0000000000011
 20
20.00000000000006
 30
0.0
 11
306.0000000000011
 21
24.00000000000006
 31
0.0
  0
LINE
  5
59B
330
67C
100
AcDbEntity
  8
0
100
AcDbLine
 10
306.0000000000011
 20
24.00000000000006
 30
0.0
 11
296.0000000000011
 21
24.00000000000004
 31
0.0
  0
LINE
  5
59C
330
67C
100
AcDbEntity
  8
0
100
AcDbLine
 10
296.0000000000011
 20
24.00000000000004
 30
0.0
 11
296.0000000000011
 21
20.00000000000007
 31
0.0
  0
LINE
  5
59D
330
67C
100
AcDbEntity
  8
0
100
AcDbLine
 10
296.0000000000011
 20
20.00000000000007
 30
0.0
 11
286.0000000000011
 21
20.00000000000009
 31
0.0
  0
LINE
  5
59E
330
67C
100
AcDbEntity
  8
0
100
AcDbLine
 10
286.0000000000011
 20
20.00000000000009
 30
0.0
 11
286.0000000000011
 21
24.00000000000006
 31
0.0
  0
LINE
  5
59F
330
67C
100
AcDbEntity
  8
0
100
AcDbLine
 10
20.0
 20
262.0
 30
0.0
 11
20.0
 21
252.0
 31
0.0
  0
LINE
  5
5A0
330
67C
100
AcDbEntity
  8
0
100
AcDbLine
 10
20.0
 20
252.0
 30
0.0
 11
16.0
 21
252.0
 31
0.0
  0
LINE
  5
5A1
330
67C
100
AcDbEntity
  8
0
100
AcDbLine
 10
16.0
 20
252.0
 30
0.0
 11
16.0
 21
242.0
 31
0.0
  0
LINE
  5
5A2
330
67C
100
AcDbEntity
  8
0
100
AcDbLine
 10
16.0
 20
242.0
 30
0.0
 11
20.0
 21
242.0
 31
0.0
  0
LINE
  5
5A3
330
67C
100
AcDbEntity
  8
0
100
AcDbLine
 10
20.0
 20
242.0
 30
0.0
 11
20.0
 21
232.0
 31
0.0
  0
LINE
  5
5A4
330
67C
100
AcDbEntity
  8
0
100
AcDbLine
 10
20.0
 20
232.0
 30
0.0
 11
16.0
 21
232.0
 31
0.0
  0
LINE
  5
5A5
330
67C
100
AcDbEntity
  8
0
100
AcDbLine
 10
16.0
 20
232.0
 30
0.0
 11
16.0
 21
222.0
 31
0.0
  0
LINE
  5
5A6
330
67C
100
AcDbEntity
  8
0
100
AcDbLine
 10
16.0
 20
222.0
 30
0.0
 11
20.0
 21
222.0
 31
0.0
  0
LINE
  5
5A8
330
67C
100
AcDbEntity
  8
0
100
AcDbLine
 10
185.0
 20
18.0
 30
0.0
 11
185.0
 21
18.0
 31
0.0
  0
LINE
  5
5A9
330
67C
100
AcDbEntity
  8
0
100
AcDbLine
 10
20.0
 20
222.0
 30
0.0
 11
20.0
 21
212.0000000000001
 31
0.0
  0
LINE
  5
5AA
330
67C
100
AcDbEntity
  8
0
100
AcDbLine
 10
20.0
 20
212.0000000000001
 30
0.0
 11
16.0
 21
212.0
 31
0.0
  0
LINE
  5
5AB
330
67C
100
AcDbEntity
  8
0
100
AcDbLine
 10
16.0
 20
212.0
 30
0.0
 11
16.0
 21
202.0000000000001
 31
0.0
  0
LINE
  5
5AC
330
67C
100
AcDbEntity
  8
0
100
AcDbLine
 10
16.0
 20
202.0000000000001
 30
0.0
 11
20.0
 21
202.0000000000001
 31
0.0
  0
LINE
  5
5AD
330
67C
100
AcDbEntity
  8
0
100
AcDbLine
 10
20.0
 20
202.0000000000001
 30
0.0
 11
20.0
 21
192.0
 31
0.0
  0
LINE
  5
5AE
330
67C
100
AcDbEntity
  8
0
100
AcDbLine
 10
20.0
 20
192.0
 30
0.0
 11
16.0
 21
192.0
 31
0.0
  0
LINE
  5
5AF
330
67C
100
AcDbEntity
  8
0
100
AcDbLine
 10
16.0
 20
192.0
 30
0.0
 11
16.0
 21
180.0
 31
0.0
  0
LINE
  5
5B0
330
67C
100
AcDbEntity
  8
0
100
AcDbLine
 10
286.0000000000011
 20
24.00000000000006
 30
0.0
 11
274.0000000000011
 21
24.00000000000002
 31
0.0
  0
LINE
  5
5B1
330
67C
100
AcDbEntity
  8
0
100
AcDbLine
 10
274.0000000000011
 20
24.00000000000002
 30
0.0
 11
274.0000000000011
 21
20.00000000000001
 31
0.0
  0
LINE
  5
5B2
330
67C
100
AcDbEntity
  8
0
100
AcDbLine
 10
400.9999999999999
 20
89.99999999999999
 30
0.0
 11
404.9999999999999
 21
89.99999999999996
 31
0.0
  0
LINE
  5
5B3
330
67C
100
AcDbEntity
  8
0
100
AcDbLine
 10
404.9999999999999
 20
89.99999999999996
 30
0.0
 11
405.0
 21
100.0
 31
0.0
  0
LINE
  5
5B4
330
67C
100
AcDbEntity
  8
0
100
AcDbLine
 10
499.9999999999998
 20
19.99999999999994
 30
0.0
 11
490.9999999999998
 21
19.99999999999994
 31
0.0
  0
LINE
  5
5B5
330
67C
100
AcDbEntity
  8
0
100
AcDbLine
 10
405.0
 20
100.0
 30
0.0
 11
400.9999999999999
 21
100.0
 31
0.0
  0
LINE
  5
5B6
330
67C
100
AcDbEntity
  8
0
100
AcDbLine
 10
490.9999999999998
 20
19.99999999999994
 30
0.0
 11
490.9999999999999
 21
23.99999999999994
 31
0.0
  0
LINE
  5
5B7
330
67C
100
AcDbEntity
  8
0
100
AcDbLine
 10
400.9999999999999
 20
100.0
 30
0.0
 11
401.0
 21
110.0
 31
0.0
  0
LINE
  5
5B8
330
67C
100
AcDbEntity
  8
0
100
AcDbLine
 10
490.9999999999999
 20
23.99999999999994
 30
0.0
 11
480.9999999999999
 21
23.99999999999994
 31
0.0
  0
LINE
  5
5B9
330
67C
100
AcDbEntity
  8
0
100
AcDbLine
 10
401.0
 20
110.0
 30
0.0
 11
404.9999999999999
 21
110.0
 31
0.0
  0
LINE
  5
5BA
330
67C
100
AcDbEntity
  8
0
100
AcDbLine
 10
480.9999999999999
 20
23.99999999999994
 30
0.0
 11
480.9999999999999
 21
19.99999999999994
 31
0.0
  0
LINE
  5
5BB
330
67C
100
AcDbEntity
  8
0
100
AcDbLine
 10
404.9999999999999
 20
110.0
 30
0.0
 11
404.9999999999999
 21
120.0
 31
0.0
  0
LINE
  5
5BC
330
67C
100
AcDbEntity
  8
0
100
AcDbLine
 10
404.9999999999999
 20
120.0
 30
0.0
 11
400.9999999999999
 21
120.0
 31
0.0
  0
LINE
  5
5BD
330
67C
100
AcDbEntity
  8
0
100
AcDbLine
 10
480.9999999999999
 20
19.99999999999994
 30
0.0
 11
471.0
 21
19.99999999999994
 31
0.0
  0
LINE
  5
5BE
330
67C
100
AcDbEntity
  8
0
100
AcDbLine
 10
400.9999999999999
 20
120.0
 30
0.0
 11
400.9999999999999
 21
129.9999999999999
 31
0.0
  0
LINE
  5
5BF
330
67C
100
AcDbEntity
  8
0
100
AcDbLine
 10
471.0
 20
19.99999999999994
 30
0.0
 11
470.9999999999999
 21
23.99999999999994
 31
0.0
  0
LINE
  5
5C0
330
67C
100
AcDbEntity
  8
0
100
AcDbLine
 10
400.9999999999999
 20
129.9999999999999
 30
0.0
 11
404.9999999999999
 21
130.0000000000001
 31
0.0
  0
LINE
  5
5C1
330
67C
100
AcDbEntity
  8
0
100
AcDbLine
 10
470.9999999999999
 20
23.99999999999994
 30
0.0
 11
460.9999999999999
 21
23.99999999999997
 31
0.0
  0
LINE
  5
5C2
330
67C
100
AcDbEntity
  8
0
100
AcDbLine
 10
460.9999999999999
 20
23.99999999999997
 30
0.0
 11
460.9999999999998
 21
19.99999999999994
 31
0.0
  0
LINE
  5
5C3
330
67C
100
AcDbEntity
  8
0
100
AcDbLine
 10
404.9999999999999
 20
130.0000000000001
 30
0.0
 11
404.9999999999999
 21
140.0
 31
0.0
  0
LINE
  5
5C4
330
67C
100
AcDbEntity
  8
0
100
AcDbLine
 10
460.9999999999998
 20
19.99999999999994
 30
0.0
 11
450.9999999999998
 21
19.99999999999994
 31
0.0
  0
LINE
  5
5C5
330
67C
100
AcDbEntity
  8
0
100
AcDbLine
 10
404.9999999999999
 20
140.0
 30
0.0
 11
400.9999999999999
 21
139.9999999999999
 31
0.0
  0
LINE
  5
5C6
330
67C
100
AcDbEntity
  8
0
100
AcDbLine
 10
450.9999999999998
 20
19.99999999999994
 30
0.0
 11
450.9999999999999
 21
23.99999999999994
 31
0.0
  0
LINE
  5
5C7
330
67C
100
AcDbEntity
  8
0
100
AcDbLine
 10
400.9999999999999
 20
139.9999999999999
 30
0.0
 11
400.9999999999999
 21
149.9999999999999
 31
0.0
  0
LINE
  5
5C8
330
67C
100
AcDbEntity
  8
0
100
AcDbLine
 10
450.9999999999999
 20
23.99999999999994
 30
0.0
 11
441.0
 21
23.99999999999997
 31
0.0
  0
LINE
  5
5C9
330
67C
100
AcDbEntity
  8
0
100
AcDbLine
 10
400.9999999999999
 20
149.9999999999999
 30
0.0
 11
405.0
 21
150.0
 31
0.0
  0
LINE
  5
5CA
330
67C
100
AcDbEntity
  8
0
100
AcDbLine
 10
441.0
 20
23.99999999999997
 30
0.0
 11
440.9999999999999
 21
19.99999999999996
 31
0.0
  0
LINE
  5
5CB
330
67C
100
AcDbEntity
  8
0
100
AcDbLine
 10
405.0
 20
150.0
 30
0.0
 11
404.9999999999999
 21
160.0
 31
0.0
  0
LINE
  5
5CC
330
67C
100
AcDbEntity
  8
0
100
AcDbLine
 10
440.9999999999999
 20
19.99999999999996
 30
0.0
 11
430.9999999999998
 21
19.99999999999996
 31
0.0
  0
LINE
  5
5CD
330
67C
100
AcDbEntity
  8
0
100
AcDbLine
 10
404.9999999999999
 20
160.0
 30
0.0
 11
400.9999999999999
 21
159.9999999999999
 31
0.0
  0
LINE
  5
5CE
330
67C
100
AcDbEntity
  8
0
100
AcDbLine
 10
430.9999999999998
 20
19.99999999999996
 30
0.0
 11
430.9999999999999
 21
23.99999999999999
 31
0.0
  0
LINE
  5
5CF
330
67C
100
AcDbEntity
  8
0
100
AcDbLine
 10
400.9999999999999
 20
159.9999999999999
 30
0.0
 11
400.9999999999999
 21
170.0
 31
0.0
  0
LINE
  5
5D0
330
67C
100
AcDbEntity
  8
0
100
AcDbLine
 10
430.9999999999999
 20
23.99999999999999
 30
0.0
 11
420.9999999999998
 21
23.99999999999993
 31
0.0
  0
LINE
  5
5D1
330
67C
100
AcDbEntity
  8
0
100
AcDbLine
 10
400.9999999999999
 20
170.0
 30
0.0
 11
404.9999999999999
 21
170.0
 31
0.0
  0
LINE
  5
5D2
330
67C
100
AcDbEntity
  8
0
100
AcDbLine
 10
420.9999999999998
 20
23.99999999999993
 30
0.0
 11
420.9999999999998
 21
19.99999999999996
 31
0.0
  0
LINE
  5
5D3
330
67C
100
AcDbEntity
  8
0
100
AcDbLine
 10
404.9999999999999
 20
170.0
 30
0.0
 11
405.0
 21
180.0
 31
0.0
  0
LINE
  5
5D4
330
67C
100
AcDbEntity
  8
0
100
AcDbLine
 10
405.0
 20
180.0
 30
0.0
 11
400.9999999999999
 21
179.9999999999999
 31
0.0
  0
LINE
  5
5D5
330
67C
100
AcDbEntity
  8
0
100
AcDbLine
 10
410.9999999999998
 20
19.99999999999996
 30
0.0
 11
410.9999999999999
 21
23.99999999999996
 31
0.0
  0
LINE
  5
5D6
330
67C
100
AcDbEntity
  8
0
100
AcDbLine
 10
400.9999999999999
 20
179.9999999999999
 30
0.0
 11
400.9999999999999
 21
190.0
 31
0.0
  0
LINE
  5
5D7
330
67C
100
AcDbEntity
  8
0
100
AcDbLine
 10
410.9999999999999
 20
23.99999999999996
 30
0.0
 11
401.0
 21
23.99999999999999
 31
0.0
  0
LINE
  5
5D8
330
67C
100
AcDbEntity
  8
0
100
AcDbLine
 10
400.9999999999999
 20
190.0
 30
0.0
 11
404.9999999999999
 21
190.0
 31
0.0
  0
LINE
  5
5D9
330
67C
100
AcDbEntity
  8
0
100
AcDbLine
 10
404.9999999999999
 20
190.0
 30
0.0
 11
405.0
 21
200.0
 31
0.0
  0
LINE
  5
5DA
330
67C
100
AcDbEntity
  8
0
100
AcDbLine
 10
405.0
 20
200.0
 30
0.0
 11
401.0
 21
200.0000000000001
 31
0.0
  0
LINE
  5
5DB
330
67C
100
AcDbEntity
  8
0
100
AcDbLine
 10
401.0
 20
200.0000000000001
 30
0.0
 11
400.9999999999999
 21
210.0
 31
0.0
  0
LINE
  5
5DC
330
67C
100
AcDbEntity
  8
0
100
AcDbLine
 10
400.9999999999999
 20
210.0
 30
0.0
 11
404.9999999999999
 21
210.0
 31
0.0
  0
LINE
  5
5DD
330
67C
100
AcDbEntity
  8
0
100
AcDbLine
 10
404.9999999999999
 20
210.0
 30
0.0
 11
405.0
 21
220.0
 31
0.0
  0
LINE
  5
5DE
330
67C
100
AcDbEntity
  8
0
100
AcDbLine
 10
420.9999999999998
 20
19.99999999999996
 30
0.0
 11
410.9999999999998
 21
19.99999999999996
 31
0.0
  0
LINE
  5
5DF
330
67C
100
AcDbEntity
  8
0
100
AcDbLine
 10
401.0
 20
23.99999999999999
 30
0.0
 11
400.9999999999999
 21
29.99999999999994
 31
0.0
  0
LINE
  5
5E0
330
67C
100
AcDbEntity
  8
0
100
AcDbLine
 10
497.0
 20
69.99999999999993
 30
0.0
 11
500.9999999999999
 21
69.99999999999993
 31
0.0
  0
LINE
  5
5E1
330
67C
100
AcDbEntity
  8
0
100
AcDbLine
 10
500.9999999999999
 20
69.99999999999993
 30
0.0
 11
500.9999999999999
 21
59.99999999999993
 31
0.0
  0
LINE
  5
5E2
330
67C
100
AcDbEntity
  8
0
100
AcDbLine
 10
500.9999999999999
 20
59.99999999999993
 30
0.0
 11
496.9999999999999
 21
59.99999999999993
 31
0.0
  0
LINE
  5
5E3
330
67C
100
AcDbEntity
  8
0
100
AcDbLine
 10
496.9999999999999
 20
59.99999999999993
 30
0.0
 11
496.9999999999996
 21
49.99999999999993
 31
0.0
  0
LINE
  5
5E4
330
67C
100
AcDbEntity
  8
0
100
AcDbLine
 10
496.9999999999996
 20
49.99999999999993
 30
0.0
 11
500.9999999999999
 21
49.99999999999993
 31
0.0
  0
LINE
  5
5E5
330
67C
100
AcDbEntity
  8
0
100
AcDbLine
 10
500.9999999999999
 20
49.99999999999993
 30
0.0
 11
500.9999999999999
 21
39.99999999999993
 31
0.0
  0
LINE
  5
5E6
330
67C
100
AcDbEntity
  8
0
100
AcDbLine
 10
500.9999999999999
 20
39.99999999999993
 30
0.0
 11
496.9999999999999
 21
39.99999999999993
 31
0.0
  0
LINE
  5
5E7
330
67C
100
AcDbEntity
  8
0
100
AcDbLine
 10
496.9999999999999
 20
39.99999999999993
 30
0.0
 11
496.9999999999998
 21
29.99999999999994
 31
0.0
  0
LINE
  5
5E8
330
67C
100
AcDbEntity
  8
0
100
AcDbLine
 10
496.9999999999998
 20
29.99999999999994
 30
0.0
 11
500.9999999999999
 21
29.99999999999994
 31
0.0
  0
LINE
  5
5E9
330
67C
100
AcDbEntity
  8
0
100
AcDbLine
 10
500.9999999999999
 20
29.99999999999994
 30
0.0
 11
500.9999999999999
 21
19.99999999999993
 31
0.0
  0
LINE
  5
5EA
330
67C
100
AcDbEntity
  8
0
100
AcDbLine
 10
500.9999999999999
 20
19.99999999999993
 30
0.0
 11
499.9999999999998
 21
19.99999999999994
 31
0.0
  0
LINE
  5
5EB
330
67C
100
AcDbEntity
  8
0
100
AcDbLine
 10
497.0
 20
69.99999999999993
 30
0.0
 11
480.9999999999999
 21
95.99999999999996
 31
0.0
  0
LINE
  5
5EC
330
67C
100
AcDbEntity
  8
0
100
AcDbLine
 10
480.9999999999999
 20
95.99999999999996
 30
0.0
 11
480.9999999999998
 21
215.9999999999999
 31
0.0
  0
LINE
  5
5ED
330
67C
100
AcDbEntity
  8
0
100
AcDbLine
 10
405.0
 20
220.0
 30
0.0
 11
414.9999999999999
 21
219.9999999999999
 31
0.0
  0
LINE
  5
5EE
330
67C
100
AcDbEntity
  8
0
100
AcDbLine
 10
414.9999999999999
 20
219.9999999999999
 30
0.0
 11
414.9999999999999
 21
215.9999999999999
 31
0.0
  0
LINE
  5
5EF
330
67C
100
AcDbEntity
  8
0
100
AcDbLine
 10
414.9999999999999
 20
215.9999999999999
 30
0.0
 11
425.0
 21
216.0
 31
0.0
  0
LINE
  5
5F0
330
67C
100
AcDbEntity
  8
0
100
AcDbLine
 10
425.0
 20
216.0
 30
0.0
 11
425.0
 21
219.9999999999999
 31
0.0
  0
LINE
  5
5F1
330
67C
100
AcDbEntity
  8
0
100
AcDbLine
 10
425.0
 20
219.9999999999999
 30
0.0
 11
434.9999999999999
 21
220.0
 31
0.0
  0
LINE
  5
5F2
330
67C
100
AcDbEntity
  8
0
100
AcDbLine
 10
434.9999999999999
 20
220.0
 30
0.0
 11
434.9999999999999
 21
215.9999999999999
 31
0.0
  0
LINE
  5
5F3
330
67C
100
AcDbEntity
  8
0
100
AcDbLine
 10
434.9999999999999
 20
215.9999999999999
 30
0.0
 11
444.9999999999999
 21
215.9999999999999
 31
0.0
  0
LINE
  5
5F4
330
67C
100
AcDbEntity
  8
0
100
AcDbLine
 10
444.9999999999999
 20
215.9999999999999
 30
0.0
 11
444.9999999999999
 21
220.0
 31
0.0
  0
LINE
  5
5F5
330
67C
100
AcDbEntity
  8
0
100
AcDbLine
 10
444.9999999999999
 20
220.0
 30
0.0
 11
454.9999999999998
 21
219.9999999999999
 31
0.0
  0
LINE
  5
5F6
330
67C
100
AcDbEntity
  8
0
100
AcDbLine
 10
454.9999999999998
 20
219.9999999999999
 30
0.0
 11
454.9999999999998
 21
215.9999999999999
 31
0.0
  0
LINE
  5
5F7
330
67C
100
AcDbEntity
  8
0
100
AcDbLine
 10
454.9999999999998
 20
215.9999999999999
 30
0.0
 11
464.9999999999999
 21
215.9999999999999
 31
0.0
  0
LINE
  5
5F8
330
67C
100
AcDbEntity
  8
0
100
AcDbLine
 10
464.9999999999999
 20
215.9999999999999
 30
0.0
 11
464.9999999999999
 21
219.9999999999999
 31
0.0
  0
LINE
  5
5F9
330
67C
100
AcDbEntity
  8
0
100
AcDbLine
 10
464.9999999999999
 20
219.9999999999999
 30
0.0
 11
474.9999999999999
 21
219.9999999999999
 31
0.0
  0
LINE
  5
5FA
330
67C
100
AcDbEntity
  8
0
100
AcDbLine
 10
474.9999999999999
 20
219.9999999999999
 30
0.0
 11
475.0
 21
215.9999999999999
 31
0.0
  0
LINE
  5
5FB
330
67C
100
AcDbEntity
  8
0
100
AcDbLine
 10
475.0
 20
215.9999999999999
 30
0.0
 11
480.9999999999998
 21
215.9999999999999
 31
0.0
  0
LINE
  5
5FC
330
67C
100
AcDbEntity
  8
0
100
AcDbLine
 10
400.9999999999999
 20
29.99999999999994
 30
0.0
 11
405.0
 21
29.99999999999999
 31
0.0
  0
LINE
  5
5FD
330
67C
100
AcDbEntity
  8
0
100
AcDbLine
 10
405.0
 20
29.99999999999999
 30
0.0
 11
405.0
 21
39.99999999999987
 31
0.0
  0
LINE
  5
5FE
330
67C
100
AcDbEntity
  8
0
100
AcDbLine
 10
405.0
 20
39.99999999999987
 30
0.0
 11
400.9999999999999
 21
39.99999999999993
 31
0.0
  0
LINE
  5
5FF
330
67C
100
AcDbEntity
  8
0
100
AcDbLine
 10
400.9999999999999
 20
39.99999999999993
 30
0.0
 11
401.0
 21
49.99999999999999
 31
0.0
  0
LINE
  5
600
330
67C
100
AcDbEntity
  8
0
100
AcDbLine
 10
401.0
 20
49.99999999999999
 30
0.0
 11
404.9999999999999
 21
49.99999999999999
 31
0.0
  0
LINE
  5
601
330
67C
100
AcDbEntity
  8
0
100
AcDbLine
 10
404.9999999999999
 20
49.99999999999999
 30
0.0
 11
404.9999999999999
 21
59.99999999999999
 31
0.0
  0
LINE
  5
602
330
67C
100
AcDbEntity
  8
0
100
AcDbLine
 10
404.9999999999999
 20
59.99999999999999
 30
0.0
 11
400.9999999999998
 21
59.99999999999999
 31
0.0
  0
LINE
  5
603
330
67C
100
AcDbEntity
  8
0
100
AcDbLine
 10
400.9999999999998
 20
59.99999999999999
 30
0.0
 11
400.9999999999999
 21
69.99999999999996
 31
0.0
  0
LINE
  5
604
330
67C
100
AcDbEntity
  8
0
100
AcDbLine
 10
400.9999999999999
 20
69.99999999999996
 30
0.0
 11
405.0000000000001
 21
69.99999999999999
 31
0.0
  0
LINE
  5
605
330
67C
100
AcDbEntity
  8
0
100
AcDbLine
 10
405.0000000000001
 20
69.99999999999999
 30
0.0
 11
404.9999999999999
 21
79.99999999999999
 31
0.0
  0
LINE
  5
606
330
67C
100
AcDbEntity
  8
0
100
AcDbLine
 10
404.9999999999999
 20
79.99999999999999
 30
0.0
 11
400.9999999999999
 21
79.99999999999993
 31
0.0
  0
LINE
  5
607
330
67C
100
AcDbEntity
  8
0
100
AcDbLine
 10
400.9999999999999
 20
79.99999999999993
 30
0.0
 11
400.9999999999999
 21
89.99999999999999
 31
0.0
  0
LINE
  5
608
330
67C
100
AcDbEntity
  8
0
100
AcDbLine
 10
569.0000000000001
 20
226.0
 30
0.0
 11
569.0
 21
216.0
 31
0.0
  0
LINE
  5
609
330
67C
100
AcDbEntity
  8
0
100
AcDbLine
 10
569.0
 20
216.0
 30
0.0
 11
565.0000000000001
 21
216.0
 31
0.0
  0
LINE
  5
60A
330
67C
100
AcDbEntity
  8
0
100
AcDbLine
 10
565.0000000000001
 20
216.0
 30
0.0
 11
564.9999999999999
 21
206.0
 31
0.0
  0
LINE
  5
60B
330
67C
100
AcDbEntity
  8
0
100
AcDbLine
 10
470.0000000000002
 20
286.0000000000001
 30
0.0
 11
479.0000000000001
 21
286.0000000000001
 31
0.0
  0
LINE
  5
60C
330
67C
100
AcDbEntity
  8
0
100
AcDbLine
 10
564.9999999999999
 20
206.0
 30
0.0
 11
569.0
 21
206.0
 31
0.0
  0
LINE
  5
60D
330
67C
100
AcDbEntity
  8
0
100
AcDbLine
 10
479.0000000000001
 20
286.0000000000001
 30
0.0
 11
479.0000000000002
 21
282.0000000000001
 31
0.0
  0
LINE
  5
60E
330
67C
100
AcDbEntity
  8
0
100
AcDbLine
 10
569.0
 20
206.0
 30
0.0
 11
569.0
 21
196.0
 31
0.0
  0
LINE
  5
60F
330
67C
100
AcDbEntity
  8
0
100
AcDbLine
 10
479.0000000000002
 20
282.0000000000001
 30
0.0
 11
489.0000000000002
 21
282.0000000000001
 31
0.0
  0
LINE
  5
610
330
67C
100
AcDbEntity
  8
0
100
AcDbLine
 10
569.0
 20
196.0
 30
0.0
 11
565.0
 21
196.0
 31
0.0
  0
LINE
  5
611
330
67C
100
AcDbEntity
  8
0
100
AcDbLine
 10
489.0000000000002
 20
282.0000000000001
 30
0.0
 11
489.0000000000002
 21
286.0000000000001
 31
0.0
  0
LINE
  5
612
330
67C
100
AcDbEntity
  8
0
100
AcDbLine
 10
565.0
 20
196.0
 30
0.0
 11
565.0
 21
186.0
 31
0.0
  0
LINE
  5
613
330
67C
100
AcDbEntity
  8
0
100
AcDbLine
 10
565.0
 20
186.0
 30
0.0
 11
568.9999999999999
 21
186.0
 31
0.0
  0
LINE
  5
614
330
67C
100
AcDbEntity
  8
0
100
AcDbLine
 10
489.0000000000002
 20
286.0000000000001
 30
0.0
 11
498.9999999999999
 21
286.0000000000001
 31
0.0
  0
LINE
  5
615
330
67C
100
AcDbEntity
  8
0
100
AcDbLine
 10
568.9999999999999
 20
186.0
 30
0.0
 11
569.0
 21
176.0
 31
0.0
  0
LINE
  5
616
330
67C
100
AcDbEntity
  8
0
100
AcDbLine
 10
498.9999999999999
 20
286.0000000000001
 30
0.0
 11
499.0
 21
282.0000000000001
 31
0.0
  0
LINE
  5
617
330
67C
100
AcDbEntity
  8
0
100
AcDbLine
 10
569.0
 20
176.0
 30
0.0
 11
565.0
 21
176.0
 31
0.0
  0
LINE
  5
618
330
67C
100
AcDbEntity
  8
0
100
AcDbLine
 10
499.0
 20
282.0000000000001
 30
0.0
 11
509.0000000000001
 21
282.0
 31
0.0
  0
LINE
  5
619
330
67C
100
AcDbEntity
  8
0
100
AcDbLine
 10
509.0000000000001
 20
282.0
 30
0.0
 11
509.0000000000002
 21
286.0000000000001
 31
0.0
  0
LINE
  5
61A
330
67C
100
AcDbEntity
  8
0
100
AcDbLine
 10
565.0
 20
176.0
 30
0.0
 11
565.0
 21
166.0
 31
0.0
  0
LINE
  5
61B
330
67C
100
AcDbEntity
  8
0
100
AcDbLine
 10
509.0000000000002
 20
286.0000000000001
 30
0.0
 11
519.0000000000002
 21
286.0000000000001
 31
0.0
  0
LINE
  5
61C
330
67C
100
AcDbEntity
  8
0
100
AcDbLine
 10
565.0
 20
166.0
 30
0.0
 11
569.0
 21
166.0000000000001
 31
0.0
  0
LINE
  5
61D
330
67C
100
AcDbEntity
  8
0
100
AcDbLine
 10
519.0000000000002
 20
286.0000000000001
 30
0.0
 11
518.9999999999999
 21
282.0000000000001
 31
0.0
  0
LINE
  5
61E
330
67C
100
AcDbEntity
  8
0
100
AcDbLine
 10
569.0
 20
166.0000000000001
 30
0.0
 11
569.0
 21
156.0000000000001
 31
0.0
  0
LINE
  5
61F
330
67C
100
AcDbEntity
  8
0
100
AcDbLine
 10
518.9999999999999
 20
282.0000000000001
 30
0.0
 11
528.9999999999999
 21
282.0000000000001
 31
0.0
  0
LINE
  5
620
330
67C
100
AcDbEntity
  8
0
100
AcDbLine
 10
569.0
 20
156.0000000000001
 30
0.0
 11
565.0
 21
156.0
 31
0.0
  0
LINE
  5
621
330
67C
100
AcDbEntity
  8
0
100
AcDbLine
 10
528.9999999999999
 20
282.0000000000001
 30
0.0
 11
529.0000000000001
 21
286.0
 31
0.0
  0
LINE
  5
622
330
67C
100
AcDbEntity
  8
0
100
AcDbLine
 10
565.0
 20
156.0
 30
0.0
 11
565.0
 21
146.0
 31
0.0
  0
LINE
  5
623
330
67C
100
AcDbEntity
  8
0
100
AcDbLine
 10
529.0000000000001
 20
286.0
 30
0.0
 11
539.0000000000002
 21
286.0
 31
0.0
  0
LINE
  5
624
330
67C
100
AcDbEntity
  8
0
100
AcDbLine
 10
565.0
 20
146.0
 30
0.0
 11
569.0
 21
146.0000000000001
 31
0.0
  0
LINE
  5
625
330
67C
100
AcDbEntity
  8
0
100
AcDbLine
 10
539.0000000000002
 20
286.0
 30
0.0
 11
539.0
 21
282.0
 31
0.0
  0
LINE
  5
626
330
67C
100
AcDbEntity
  8
0
100
AcDbLine
 10
569.0
 20
146.0000000000001
 30
0.0
 11
569.0
 21
136.0
 31
0.0
  0
LINE
  5
627
330
67C
100
AcDbEntity
  8
0
100
AcDbLine
 10
539.0
 20
282.0
 30
0.0
 11
549.0000000000001
 21
282.0000000000001
 31
0.0
  0
LINE
  5
628
330
67C
100
AcDbEntity
  8
0
100
AcDbLine
 10
569.0
 20
136.0
 30
0.0
 11
565.0
 21
136.0
 31
0.0
  0
LINE
  5
629
330
67C
100
AcDbEntity
  8
0
100
AcDbLine
 10
549.0000000000001
 20
282.0000000000001
 30
0.0
 11
549.0000000000002
 21
286.0
 31
0.0
  0
LINE
  5
62A
330
67C
100
AcDbEntity
  8
0
100
AcDbLine
 10
565.0
 20
136.0
 30
0.0
 11
564.9999999999999
 21
126.0
 31
0.0
  0
LINE
  5
62B
330
67C
100
AcDbEntity
  8
0
100
AcDbLine
 10
564.9999999999999
 20
126.0
 30
0.0
 11
569.0
 21
126.0
 31
0.0
  0
LINE
  5
62C
330
67C
100
AcDbEntity
  8
0
100
AcDbLine
 10
559.0000000000002
 20
286.0
 30
0.0
 11
559.0
 21
282.0000000000001
 31
0.0
  0
LINE
  5
62D
330
67C
100
AcDbEntity
  8
0
100
AcDbLine
 10
569.0
 20
126.0
 30
0.0
 11
568.9999999999999
 21
116.0
 31
0.0
  0
LINE
  5
62E
330
67C
100
AcDbEntity
  8
0
100
AcDbLine
 10
559.0
 20
282.0000000000001
 30
0.0
 11
569.0
 21
282.0
 31
0.0
  0
LINE
  5
62F
330
67C
100
AcDbEntity
  8
0
100
AcDbLine
 10
568.9999999999999
 20
116.0
 30
0.0
 11
564.9999999999999
 21
116.0
 31
0.0
  0
LINE
  5
630
330
67C
100
AcDbEntity
  8
0
100
AcDbLine
 10
564.9999999999999
 20
116.0
 30
0.0
 11
564.9999999999999
 21
106.0
 31
0.0
  0
LINE
  5
631
330
67C
100
AcDbEntity
  8
0
100
AcDbLine
 10
564.9999999999999
 20
106.0
 30
0.0
 11
568.9999999999999
 21
106.0
 31
0.0
  0
LINE
  5
632
330
67C
100
AcDbEntity
  8
0
100
AcDbLine
 10
568.9999999999999
 20
106.0
 30
0.0
 11
568.9999999999999
 21
96.00000000000014
 31
0.0
  0
LINE
  5
633
330
67C
100
AcDbEntity
  8
0
100
AcDbLine
 10
568.9999999999999
 20
96.00000000000014
 30
0.0
 11
564.9999999999999
 21
96.00000000000003
 31
0.0
  0
LINE
  5
634
330
67C
100
AcDbEntity
  8
0
100
AcDbLine
 10
564.9999999999999
 20
96.00000000000003
 30
0.0
 11
564.9999999999999
 21
86.0
 31
0.0
  0
LINE
  5
635
330
67C
100
AcDbEntity
  8
0
100
AcDbLine
 10
549.0000000000002
 20
286.0
 30
0.0
 11
559.0000000000002
 21
286.0
 31
0.0
  0
LINE
  5
636
330
67C
100
AcDbEntity
  8
0
100
AcDbLine
 10
569.0
 20
282.0
 30
0.0
 11
569.0
 21
276.0000000000001
 31
0.0
  0
LINE
  5
637
330
67C
100
AcDbEntity
  8
0
100
AcDbLine
 10
472.9999999999999
 20
236.0000000000001
 30
0.0
 11
469.0
 21
236.0000000000001
 31
0.0
  0
LINE
  5
638
330
67C
100
AcDbEntity
  8
0
100
AcDbLine
 10
469.0
 20
236.0000000000001
 30
0.0
 11
469.0
 21
246.0000000000001
 31
0.0
  0
LINE
  5
639
330
67C
100
AcDbEntity
  8
0
100
AcDbLine
 10
469.0
 20
246.0000000000001
 30
0.0
 11
473.0
 21
246.0000000000001
 31
0.0
  0
LINE
  5
63A
330
67C
100
AcDbEntity
  8
0
100
AcDbLine
 10
473.0
 20
246.0000000000001
 30
0.0
 11
473.0000000000003
 21
256.0000000000001
 31
0.0
  0
LINE
  5
63B
330
67C
100
AcDbEntity
  8
0
100
AcDbLine
 10
473.0000000000003
 20
256.0000000000001
 30
0.0
 11
469.0000000000001
 21
256.0000000000001
 31
0.0
  0
LINE
  5
63C
330
67C
100
AcDbEntity
  8
0
100
AcDbLine
 10
469.0000000000001
 20
256.0000000000001
 30
0.0
 11
469.0000000000002
 21
266.0000000000001
 31
0.0
  0
LINE
  5
63D
330
67C
100
AcDbEntity
  8
0
100
AcDbLine
 10
469.0000000000002
 20
266.0000000000001
 30
0.0
 11
472.9999999999999
 21
266.0000000000001
 31
0.0
  0
LINE
  5
63E
330
67C
100
AcDbEntity
  8
0
100
AcDbLine
 10
472.9999999999999
 20
266.0000000000001
 30
0.0
 11
473.0000000000003
 21
276.0000000000001
 31
0.0
  0
LINE
  5
63F
330
67C
100
AcDbEntity
  8
0
100
AcDbLine
 10
473.0000000000003
 20
276.0000000000001
 30
0.0
 11
469.0000000000001
 21
276.0000000000001
 31
0.0
  0
LINE
  5
640
330
67C
100
AcDbEntity
  8
0
100
AcDbLine
 10
469.0000000000001
 20
276.0000000000001
 30
0.0
 11
469.0000000000001
 21
286.0000000000001
 31
0.0
  0
LINE
  5
641
330
67C
100
AcDbEntity
  8
0
100
AcDbLine
 10
469.0000000000001
 20
286.0000000000001
 30
0.0
 11
470.0000000000002
 21
286.0000000000001
 31
0.0
  0
LINE
  5
642
330
67C
100
AcDbEntity
  8
0
100
AcDbLine
 10
472.9999999999999
 20
236.0000000000001
 30
0.0
 11
488.9999999999999
 21
210.0000000000001
 31
0.0
  0
LINE
  5
643
330
67C
100
AcDbEntity
  8
0
100
AcDbLine
 10
488.9999999999999
 20
210.0000000000001
 30
0.0
 11
489.0000000000001
 21
90.00000000000006
 31
0.0
  0
LINE
  5
644
330
67C
100
AcDbEntity
  8
0
100
AcDbLine
 10
564.9999999999999
 20
86.0
 30
0.0
 11
555.0
 21
86.0
 31
0.0
  0
LINE
  5
645
330
67C
100
AcDbEntity
  8
0
100
AcDbLine
 10
555.0
 20
86.0
 30
0.0
 11
554.9999999999999
 21
90.00000000000003
 31
0.0
  0
LINE
  5
646
330
67C
100
AcDbEntity
  8
0
100
AcDbLine
 10
554.9999999999999
 20
90.00000000000003
 30
0.0
 11
544.9999999999999
 21
90.00000000000006
 31
0.0
  0
LINE
  5
647
330
67C
100
AcDbEntity
  8
0
100
AcDbLine
 10
544.9999999999999
 20
90.00000000000006
 30
0.0
 11
544.9999999999999
 21
86.00000000000006
 31
0.0
  0
LINE
  5
648
330
67C
100
AcDbEntity
  8
0
100
AcDbLine
 10
544.9999999999999
 20
86.00000000000006
 30
0.0
 11
534.9999999999999
 21
86.00000000000009
 31
0.0
  0
LINE
  5
649
330
67C
100
AcDbEntity
  8
0
100
AcDbLine
 10
534.9999999999999
 20
86.00000000000009
 30
0.0
 11
535.0
 21
90.00000000000006
 31
0.0
  0
LINE
  5
64A
330
67C
100
AcDbEntity
  8
0
100
AcDbLine
 10
535.0
 20
90.00000000000006
 30
0.0
 11
525.0
 21
90.00000000000006
 31
0.0
  0
LINE
  5
64B
330
67C
100
AcDbEntity
  8
0
100
AcDbLine
 10
525.0
 20
90.00000000000006
 30
0.0
 11
525.0
 21
86.00000000000003
 31
0.0
  0
LINE
  5
64C
330
67C
100
AcDbEntity
  8
0
100
AcDbLine
 10
525.0
 20
86.00000000000003
 30
0.0
 11
515.0000000000001
 21
86.00000000000006
 31
0.0
  0
LINE
  5
64D
330
67C
100
AcDbEntity
  8
0
100
AcDbLine
 10
515.0000000000001
 20
86.00000000000006
 30
0.0
 11
515.0000000000001
 21
90.00000000000006
 31
0.0
  0
LINE
  5
64E
330
67C
100
AcDbEntity
  8
0
100
AcDbLine
 10
515.0000000000001
 20
90.00000000000006
 30
0.0
 11
505.0
 21
90.00000000000006
 31
0.0
  0
LINE
  5
64F
330
67C
100
AcDbEntity
  8
0
100
AcDbLine
 10
505.0
 20
90.00000000000006
 30
0.0
 11
505.0
 21
86.00000000000009
 31
0.0
  0
LINE
  5
650
330
67C
100
AcDbEntity
  8
0
100
AcDbLine
 10
505.0
 20
86.00000000000009
 30
0.0
 11
494.9999999999999
 21
86.00000000000009
 31
0.0
  0
LINE
  5
651
330
67C
100
AcDbEntity
  8
0
100
AcDbLine
 10
494.9999999999999
 20
86.00000000000009
 30
0.0
 11
494.9999999999999
 21
90.00000000000006
 31
0.0
  0
LINE
  5
652
330
67C
100
AcDbEntity
  8
0
100
AcDbLine
 10
494.9999999999999
 20
90.00000000000006
 30
0.0
 11
489.0000000000001
 21
90.00000000000006
 31
0.0
  0
LINE
  5
653
330
67C
100
AcDbEntity
  8
0
100
AcDbLine
 10
569.0
 20
276.0000000000001
 30
0.0
 11
565.0
 21
276.0
 31
0.0
  0
LINE
  5
654
330
67C
100
AcDbEntity
  8
0
100
AcDbLine
 10
565.0
 20
276.0
 30
0.0
 11
564.9999999999999
 21
266.0000000000001
 31
0.0
  0
LINE
  5
655
330
67C
100
AcDbEntity
  8
0
100
AcDbLine
 10
564.9999999999999
 20
266.0000000000001
 30
0.0
 11
569.0
 21
266.0000000000001
 31
0.0
  0
LINE
  5
656
330
67C
100
AcDbEntity
  8
0
100
AcDbLine
 10
569.0
 20
266.0000000000001
 30
0.0
 11
568.9999999999999
 21
256.0
 31
0.0
  0
LINE
  5
657
330
67C
100
AcDbEntity
  8
0
100
AcDbLine
 10
568.9999999999999
 20
256.0
 30
0.0
 11
565.0
 21
256.0000000000001
 31
0.0
  0
LINE
  5
658
330
67C
100
AcDbEntity
  8
0
100
AcDbLine
 10
565.0
 20
256.0000000000001
 30
0.0
 11
565.0
 21
246.0000000000001
 31
0.0
  0
LINE
  5
659
330
67C
100
AcDbEntity
  8
0
100
AcDbLine
 10
565.0
 20
246.0000000000001
 30
0.0
 11
569.0000000000002
 21
246.0
 31
0.0
  0
LINE
  5
65A
330
67C
100
AcDbEntity
  8
0
100
AcDbLine
 10
569.0000000000002
 20
246.0
 30
0.0
 11
569.0
 21
236.0000000000001
 31
0.0
  0
LINE
  5
65B
330
67C
100
AcDbEntity
  8
0
100
AcDbLine
 10
569.0
 20
236.0000000000001
 30
0.0
 11
565.0
 21
236.0
 31
0.0
  0
LINE
  5
65C
330
67C
100
AcDbEntity
  8
0
100
AcDbLine
 10
565.0
 20
236.0
 30
0.0
 11
565.0
 21
226.0000000000001
 31
0.0
  0
LINE
  5
65D
330
67C
100
AcDbEntity
  8
0
100
AcDbLine
 10
565.0
 20
226.0000000000001
 30
0.0
 11
569.0000000000001
 21
226.0
 31
0.0
  0
ENDSEC
  0
SECTION
  2
OBJECTS
  0
DICTIONARY
  5
66A
330
0
100
AcDbDictionary
281
     1
  3
ACAD_DETAILVIEWSTYLE
350
70C
  3
ACAD_GROUP
350
66B
  3
ACAD_LAYOUT
350
677
  3
ACAD_MATERIAL
350
6A0
  3
ACAD_MLEADERSTYLE
350
70B
  3
ACAD_MLINESTYLE
350
674
  3
ACAD_PLOTSETTINGS
350
676
  3
ACAD_PLOTSTYLENAME
350
66C
  3
ACAD_SCALELIST
350
6A4
  3
ACAD_SECTIONVIEWSTYLE
350
70D
  3
ACAD_TABLESTYLE
350
70A
  3
ACAD_VISUALSTYLE
350
687
  3
AcDbVariableDictionary
350
708
  3
QCAD_OBJECTS
350
6C8
  0
SUN
  5
6C6
330
686
100
AcDbSun
 90
        1
290
     0
 63
     7
421
 16777215
 40
1.0
291
     1
 91
  2455826
 92
 54000000
292
     0
 70
     2
 71
   256
280
     1
  0
DICTIONARY
  5
70C
102
{ACAD_REACTORS
330
66A
102
}
330
66A
100
AcDbDictionary
281
     1
  0
DICTIONARY
  5
66B
102
{ACAD_REACTORS
330
66A
102
}
330
66A
100
AcDbDictionary
281
     1
  0
DICTIONARY
  5
677
102
{ACAD_REACTORS
330
66A
102
}
330
66A
100
AcDbDictionary
281
     1
  3
Layout1
350
67B
  3
Layout2
350
683
  3
Model
350
67F
  0
DICTIONARY
  5
6A0
102
{ACAD_REACTORS
330
66A
102
}
330
66A
100
AcDbDictionary
281
     1
  3
ByBlock
350
6A2
  3
ByLayer
350
6A1
  3
Global
350
6A3
  0
DICTIONARY
  5
70B
102
{ACAD_REACTORS
330
66A
102
}
330
66A
100
AcDbDictionary
281
     1
  0
DICTIONARY
  5
674
102
{ACAD_REACTORS
330
66A
102
}
330
66A
100
AcDbDictionary
281
     1
  3
Standard
350
675
  0
DICTIONARY
  5
676
102
{ACAD_REACTORS
330
66A
102
}
330
66A
100
AcDbDictionary
281
     1
  0
ACDBDICTIONARYWDFLT
  5
66C
102
{ACAD_REACTORS
330
66A
102
}
330
66A
100
AcDbDictionary
281
     1
  3
Normal
350
66D
100
AcDbDictionaryWithDefault
340
66D
  0
DICTIONARY
  5
6A4
102
{ACAD_REACTORS
330
66A
102
}
330
66A
100
AcDbDictionary
281
     1
  3
A0
350
6A5
  3
A1
350
6A6
  3
A2
350
6A7
  3
A3
350
6A8
  3
A4
350
6A9
  3
A5
350
6AA
  3
A6
350
6AB
  3
A7
350
6AC
  3
A8
350
6AD
  3
A9
350
6AE
  3
B0
350
6AF
  3
B1
350
6B0
  3
B2
350
6B1
  3
B3
350
6B2
  3
B4
350
6B3
  3
B5
350
6B4
  3
B6
350
6B5
  3
B7
350
6B6
  3
B8
350
6B7
  3
B9
350
6B8
  3
C0
350
6B9
  3
C1
350
6BA
  3
C2
350
6BB
  3
C3
350
6BC
  3
C4
350
6BD
  3
C5
350
6BE
  3
C6
350
6BF
  3
C7
350
6C0
  3
C8
350
6C1
  3
C9
350
6C2
  3
D0
350
6C3
  3
D1
350
6C4
  3
D2
350
6C5
  0
DICTIONARY
  5
70D
102
{ACAD_REACTORS
330
66A
102
}
330
66A
100
AcDbDictionary
281
     1
  0
DICTIONARY
  5
70A
102
{ACAD_REACTORS
330
66A
102
}
330
66A
100
AcDbDictionary
281
     1
  0
DICTIONARY
  5
687
102
{ACAD_REACTORS
330
66A
102
}
330
66A
100
AcDbDictionary
281
     1
  3
2dWireframe
350
68C
  3
Basic
350
68F
  3
Brighten
350
693
  3
ColorChange
350
697
  3
Conceptual
350
691
  3
Dim
350
692
  3
EdgeColorOff
350
69A
  3
Facepattern
350
696
  3
Flat
350
688
  3
FlatWithEdges
350
689
  3
Gouraud
350
68A
  3
GouraudWithEdges
350
68B
  3
Hidden
350
68E
  3
JitterOff
350
698
  3
Linepattern
350
695
  3
OverhangOff
350
699
  3
Realistic
350
690
  3
Shaded
350
69F
  3
Shaded with edges
350
69E
  3
Shades of Gray
350
69B
  3
Sketchy
350
69C
  3
Thicken
350
694
  3
Wireframe
350
68D
  3
X-Ray
350
69D
  0
DICTIONARY
  5
708
102
{ACAD_REACTORS
330
66A
102
}
330
66A
100
AcDbDictionary
281
     1
  3
CANNOSCALE
350
709
  0
DICTIONARY
  5
6C8
102
{ACAD_REACTORS
330
66A
102
}
330
66A
100
AcDbDictionary
281
     1
  3
Grid/DisplayGrid00
350
6C9
  3
Grid/DisplayGrid01
350
6CA
  3
Grid/DisplayGrid02
350
6CB
  3
Grid/DisplayGrid03
350
6CC
  3
Grid/GridSpacingX00
350
6CD
  3
Grid/GridSpacingX01
350
6CE
  3
Grid/GridSpacingX02
350
6CF
  3
Grid/GridSpacingX03
350
6D0
  3
Grid/GridSpacingY00
350
6D1
  3
Grid/GridSpacingY01
350
6D2
  3
Grid/GridSpacingY02
350
6D3
  3
Grid/GridSpacingY03
350
6D4
  3
Grid/IsometricGrid00
350
6D5
  3
Grid/IsometricGrid01
350
6D6
  3
Grid/IsometricGrid02
350
6D7
  3
Grid/IsometricGrid03
350
6D8
  3
Grid/IsometricProjection00
350
6D9
  3
Grid/IsometricProjection01
350
6DA
  3
Grid/IsometricProjection02
350
6DB
  3
Grid/IsometricProjection03
350
6DC
  3
Grid/MetaGridSpacingX00
350
6DD
  3
Grid/MetaGridSpacingX01
350
6DE
  3
Grid/MetaGridSpacingX02
350
6DF
  3
Grid/MetaGridSpacingX03
350
6E0
  3
Grid/MetaGridSpacingY00
350
6E1
  3
Grid/MetaGridSpacingY01
350
6E2
  3
Grid/MetaGridSpacingY02
350
6E3
  3
Grid/MetaGridSpacingY03
350
6E4
  3
MultiPageSettings/Columns
350
6E5
  3
MultiPageSettings/GlueMarginsBottom
350
6E6
  3
MultiPageSettings/GlueMarginsLeft
350
6E7
  3
MultiPageSettings/GlueMarginsRight
350
6E8
  3
MultiPageSettings/GlueMarginsTop
350
6E9
  3
MultiPageSettings/PrintCropMarks
350
6EA
  3
MultiPageSettings/Rows
350
6EB
  3
PageSettings/OffsetX
350
6EC
  3
PageSettings/OffsetY
350
6ED
  3
PageSettings/PageOrientation
350
6EE
  3
PageSettings/PaperHeight
350
6EF
  3
PageSettings/PaperWidth
350
6F0
  3
PageSettings/Scale
350
6F1
  3
PageSettings/ShowPaperBorders
350
6F2
  3
UnitSettings/PaperUnit
350
6F3
  0
LAYOUT
  5
67B
102
{ACAD_REACTORS
330
677
102
}
330
677
100
AcDbPlotSettings
  1

  2
none_device
  4

  6

 40
0.0
 41
0.0
 42
0.0
 43
0.0
 44
0.0
 45
0.0
 46
0.0
 47
0.0
 48
0.0
 49
0.0
140
0.0
141
0.0
142
1.0
143
1.0
 70
   688
 72
     0
 73
     0
 74
     5
  7

 75
    16
 76
     0
 77
     2
 78
   300
147
1.0
148
0.0
149
0.0
100
AcDbLayout
  1
Layout1
 70
     1
 71
     1
 10
0.0
 20
0.0
 11
12.0
 21
9.0
 12
0.0
 22
0.0
 32
0.0
 14
1.000000000000000E+20
 24
1.000000000000000E+20
 34
1.000000000000000E+20
 15
-1.000000000000000E+20
 25
-1.000000000000000E+20
 35
-1.000000000000000E+20
146
0.0
 13
0.0
 23
0.0
 33
0.0
 16
1.0
 26
0.0
 36
0.0
 17
0.0
 27
1.0
 37
0.0
 76
     0
330
678
  0
LAYOUT
  5
683
102
{ACAD_REACTORS
330
677
102
}
330
677
100
AcDbPlotSettings
  1

  2
none_device
  4

  6

 40
0.0
 41
0.0
 42
0.0
 43
0.0
 44
0.0
 45
0.0
 46
0.0
 47
0.0
 48
0.0
 49
0.0
140
0.0
141
0.0
142
1.0
143
1.0
 70
   688
 72
     0
 73
     0
 74
     5
  7

 75
    16
 76
     0
 77
     2
 78
   300
147
1.0
148
0.0
149
0.0
100
AcDbLayout
  1
Layout2
 70
     1
 71
     2
 10
0.0
 20
0.0
 11
0.0
 21
0.0
 12
0.0
 22
0.0
 32
0.0
 14
0.0
 24
0.0
 34
0.0
 15
0.0
 25
0.0
 35
0.0
146
0.0
 13
0.0
 23
0.0
 33
0.0
 16
1.0
 26
0.0
 36
0.0
 17
0.0
 27
1.0
 37
0.0
 76
     0
330
680
  0
LAYOUT
  5
67F
102
{ACAD_REACTORS
330
677
102
}
330
677
100
AcDbPlotSettings
  1

  2
none_device
  4
Letter_(8.50_x_11.00_Inches)
  6

 40
6.35
 41
6.35
 42
6.35000508
 43
6.35000508
 44
215.9
 45
279.4
 46
0.0
 47
0.0
 48
0.0
 49
0.0
140
0.0
141
0.0
142
1.0
143
1.0
 70
  1712
 72
     0
 73
     0
 74
     0
  7

 75
     0
 76
     0
 77
     2
 78
   300
147
1.0
148
0.0
149
0.0
100
AcDbLayout
  1
Model
 70
     1
 71
     0
 10
0.0
 20
0.0
 11
12.0
 21
9.0
 12
0.0
 22
0.0
 32
0.0
 14
1.000000000000000E+20
 24
1.000000000000000E+20
 34
1.000000000000000E+20
 15
-1.000000000000000E+20
 25
-1.000000000000000E+20
 35
-1.000000000000000E+20
146
0.0
 13
0.0
 23
0.0
 33
0.0
 16
1.0
 26
0.0
 36
0.0
 17
0.0
 27
1.0
 37
0.0
 76
     0
330
67C
331
686
  0
MATERIAL
  5
6A2
102
{ACAD_REACTORS
330
6A0
102
}
330
6A0
100
AcDbMaterial
  1
ByBlock
 72
     1
 94
      127
  0
MATERIAL
  5
6A1
102
{ACAD_REACTORS
330
6A0
102
}
330
6A0
100
AcDbMaterial
  1
ByLayer
 72
     1
 94
      127
  0
MATERIAL
  5
6A3
102
{ACAD_REACTORS
330
6A0
102
}
330
6A0
100
AcDbMaterial
  1
Global
 72
     1
 94
      127
  0
MLINESTYLE
  5
675
102
{ACAD_REACTORS
330
674
102
}
330
674
100
AcDbMlineStyle
  2
Standard
 70
     0
  3

 62
   256
 51
90.0
 52
90.0
 71
     2
 49
0.5
 62
   256
  6
BYLAYER
 49
-0.5
 62
   256
  6
BYLAYER
  0
ACDBPLACEHOLDER
  5
66D
102
{ACAD_REACTORS
330
66C
102
}
330
66C
  0
SCALE
  5
6A5
102
{ACAD_REACTORS
330
6A4
102
}
330
6A4
100
AcDbScale
 70
     0
300
1:1
140
1.0
141
1.0
290
     1
  0
SCALE
  5
6A6
102
{ACAD_REACTORS
330
6A4
102
}
330
6A4
100
AcDbScale
 70
     0
300
1:2
140
1.0
141
2.0
290
     0
  0
SCALE
  5
6A7
102
{ACAD_REACTORS
330
6A4
102
}
330
6A4
100
AcDbScale
 70
     0
300
1:4
140
1.0
141
4.0
290
     0
  0
SCALE
  5
6A8
102
{ACAD_REACTORS
330
6A4
102
}
330
6A4
100
AcDbScale
 70
     0
300
1:5
140
1.0
141
5.0
290
     0
  0
SCALE
  5
6A9
102
{ACAD_REACTORS
330
6A4
102
}
330
6A4
100
AcDbScale
 70
     0
300
1:8
140
1.0
141
8.0
290
     0
  0
SCALE
  5
6AA
102
{ACAD_REACTORS
330
6A4
102
}
330
6A4
100
AcDbScale
 70
     0
300
1:10
140
1.0
141
10.0
290
     0
  0
SCALE
  5
6AB
102
{ACAD_REACTORS
330
6A4
102
}
330
6A4
100
AcDbScale
 70
     0
300
1:16
140
1.0
141
16.0
290
     0
  0
SCALE
  5
6AC
102
{ACAD_REACTORS
330
6A4
102
}
330
6A4
100
AcDbScale
 70
     0
300
1:20
140
1.0
141
20.0
290
     0
  0
SCALE
  5
6AD
102
{ACAD_REACTORS
330
6A4
102
}
330
6A4
100
AcDbScale
 70
     0
300
1:30
140
1.0
141
30.0
290
     0
  0
SCALE
  5
6AE
102
{ACAD_REACTORS
330
6A4
102
}
330
6A4
100
AcDbScale
 70
     0
300
1:40
140
1.0
141
40.0
290
     0
  0
SCALE
  5
6AF
102
{ACAD_REACTORS
330
6A4
102
}
330
6A4
100
AcDbScale
 70
     0
300
1:50
140
1.0
141
50.0
290
     0
  0
SCALE
  5
6B0
102
{ACAD_REACTORS
330
6A4
102
}
330
6A4
100
AcDbScale
 70
     0
300
1:100
140
1.0
141
100.0
290
     0
  0
SCALE
  5
6B1
102
{ACAD_REACTORS
330
6A4
102
}
330
6A4
100
AcDbScale
 70
     0
300
2:1
140
2.0
141
1.0
290
     0
  0
SCALE
  5
6B2
102
{ACAD_REACTORS
330
6A4
102
}
330
6A4
100
AcDbScale
 70
     0
300
4:1
140
4.0
141
1.0
290
     0
  0
SCALE
  5
6B3
102
{ACAD_REACTORS
330
6A4
102
}
330
6A4
100
AcDbScale
 70
     0
300
8:1
140
8.0
141
1.0
290
     0
  0
SCALE
  5
6B4
102
{ACAD_REACTORS
330
6A4
102
}
330
6A4
100
AcDbScale
 70
     0
300
10:1
140
10.0
141
1.0
290
     0
  0
SCALE
  5
6B5
102
{ACAD_REACTORS
330
6A4
102
}
330
6A4
100
AcDbScale
 70
     0
300
100:1
140
100.0
141
1.0
290
     0
  0
SCALE
  5
6B6
102
{ACAD_REACTORS
330
6A4
102
}
330
6A4
100
AcDbScale
 70
     0
300
1/128" = 1'-0"
140
0.0078125
141
12.0
290
     0
  0
SCALE
  5
6B7
102
{ACAD_REACTORS
330
6A4
102
}
330
6A4
100
AcDbScale
 70
     0
300
1/64" = 1'-0"
140
0.015625
141
12.0
290
     0
  0
SCALE
  5
6B8
102
{ACAD_REACTORS
330
6A4
102
}
330
6A4
100
AcDbScale
 70
     0
300
1/32" = 1'-0"
140
0.03125
141
12.0
290
     0
  0
SCALE
  5
6B9
102
{ACAD_REACTORS
330
6A4
102
}
330
6A4
100
AcDbScale
 70
     0
300
1/16" = 1'-0"
140
0.0625
141
12.0
290
     0
  0
SCALE
  5
6BA
102
{ACAD_REACTORS
330
6A4
102
}
330
6A4
100
AcDbScale
 70
     0
300
3/32" = 1'-0"
140
0.09375
141
12.0
290
     0
  0
SCALE
  5
6BB
102
{ACAD_REACTORS
330
6A4
102
}
330
6A4
100
AcDbScale
 70
     0
300
1/8" = 1'-0"
140
0.125
141
12.0
290
     0
  0
SCALE
  5
6BC
102
{ACAD_REACTORS
330
6A4
102
}
330
6A4
100
AcDbScale
 70
     0
300
3/16" = 1'-0"
140
0.1875
141
12.0
290
     0
  0
SCALE
  5
6BD
102
{ACAD_REACTORS
330
6A4
102
}
330
6A4
100
AcDbScale
 70
     0
300
1/4" = 1'-0"
140
0.25
141
12.0
290
     0
  0
SCALE
  5
6BE
102
{ACAD_REACTORS
330
6A4
102
}
330
6A4
100
AcDbScale
 70
     0
300
3/8" = 1'-0"
140
0.375
141
12.0
290
     0
  0
SCALE
  5
6BF
102
{ACAD_REACTORS
330
6A4
102
}
330
6A4
100
AcDbScale
 70
     0
300
1/2" = 1'-0"
140
0.5
141
12.0
290
     0
  0
SCALE
  5
6C0
102
{ACAD_REACTORS
330
6A4
102
}
330
6A4
100
AcDbScale
 70
     0
300
3/4" = 1'-0"
140
0.75
141
12.0
290
     0
  0
SCALE
  5
6C1
102
{ACAD_REACTORS
330
6A4
102
}
330
6A4
100
AcDbScale
 70
     0
300
1" = 1'-0"
140
1.0
141
12.0
290
     0
  0
SCALE
  5
6C2
102
{ACAD_REACTORS
330
6A4
102
}
330
6A4
100
AcDbScale
 70
     0
300
1-1/2" = 1'-0"
140
1.5
141
12.0
290
     0
  0
SCALE
  5
6C3
102
{ACAD_REACTORS
330
6A4
102
}
330
6A4
100
AcDbScale
 70
     0
300
3" = 1'-0"
140
3.0
141
12.0
290
     0
  0
SCALE
  5
6C4
102
{ACAD_REACTORS
330
6A4
102
}
330
6A4
100
AcDbScale
 70
     0
300
6" = 1'-0"
140
6.0
141
12.0
290
     0
  0
SCALE
  5
6C5
102
{ACAD_REACTORS
330
6A4
102
}
330
6A4
100
AcDbScale
 70
     0
300
1'-0" = 1'-0"
140
12.0
141
12.0
290
     0
  0
VISUALSTYLE
  5
68C
102
{ACAD_REACTORS
330
687
102
}
330
687
100
AcDbVisualStyle
  2
2dWireframe
 70
     4
177
     3
291
     0
 70
    58
 90
        0
176
     1
 90
        2
176
     1
 90
        0
176
     1
 90
        0
176
     1
 40
0.6
176
     1
 40
30.0
176
     1
 62
     7
420
 16777215
176
     1
 90
        1
176
     1
 90
        4
176
     1
 62
     7
176
     1
 62
   257
176
     1
 90
        1
176
     1
 90
        1
176
     1
 40
1.0
176
     1
 90
        0
176
     1
 62
   257
176
     1
 40
1.0
176
     1
 90
        1
176
     1
 90
        6
176
     1
 90
        2
176
     1
 62
     7
176
     1
 90
        5
176
     1
 90
        0
176
     1
 90
        0
176
     1
290
     0
176
     1
 90
        1
176
     1
 40
0.0
176
     1
 90
        0
176
     1
290
     1
176
     1
290
     1
176
     1
290
     0
176
     1
290
     0
176
     1
290
     0
176
     1
290
     0
176
     1
290
     0
176
     1
290
     0
176
     1
290
     0
176
     1
 90
       50
176
     1
 40
0.0
176
     1
 40
1.0
176
     1
 90
        0
176
     1
 62
    18
420
        0
176
     1
 90
       50
176
     1
 90
        3
176
     1
 62
     5
420
      255
176
     1
290
     0
176
     1
 90
       50
176
     1
 90
       50
176
     1
 90
       50
176
     1
290
     0
176
     1
 90
       50
176
     1
 62
   256
176
     0
 40
1.0
176
     0
 90
        2
176
     1
  1
strokes_ogs.tif
176
     1
290
     0
176
     1
 40
1.0
176
     1
 40
1.0
176
     1
  0
VISUALSTYLE
  5
68F
102
{ACAD_REACTORS
330
687
102
}
330
687
100
AcDbVisualStyle
  2
Basic
 70
     7
177
     3
291
     1
 70
    58
 90
        1
176
     1
 90
        0
176
     1
 90
        1
176
     1
 90
        0
176
     1
 40
0.6
176
     1
 40
30.0
176
     1
 62
     7
420
 16777215
176
     1
 90
        0
176
     1
 90
        4
176
     1
 62
     7
176
     1
 62
   257
176
     1
 90
        1
176
     1
 90
        1
176
     1
 40
1.0
176
     1
 90
        8
176
     1
 62
     7
176
     1
 40
1.0
176
     1
 90
        1
176
     1
 90
        6
176
     1
 90
        2
176
     1
 62
     7
176
     1
 90
        5
176
     1
 90
        0
176
     1
 90
        0
176
     1
290
     0
176
     1
 90
        1
176
     1
 40
0.0
176
     1
 90
        0
176
     1
290
     0
176
     1
290
     1
176
     1
290
     1
176
     1
290
     0
176
     1
290
     0
176
     1
290
     0
176
     1
290
     0
176
     1
290
     0
176
     1
290
     0
176
     1
 90
       50
176
     1
 40
0.0
176
     1
 40
1.0
176
     1
 90
        0
176
     1
 62
    18
420
        0
176
     1
 90
       50
176
     1
 90
        3
176
     1
 62
     5
420
      255
176
     1
290
     0
176
     1
 90
       50
176
     1
 90
       50
176
     1
 90
       50
176
     1
290
     0
176
     1
 90
       50
176
     1
 62
   256
176
     0
 40
1.0
176
     0
 90
        2
176
     1
  1
strokes_ogs.tif
176
     1
290
     0
176
     1
 40
1.0
176
     1
 40
1.0
176
     1
  0
VISUALSTYLE
  5
693
102
{ACAD_REACTORS
330
687
102
}
330
687
100
AcDbVisualStyle
  2
Brighten
 70
    12
177
     3
291
     1
 70
    58
 90
        2
176
     1
 90
        2
176
     1
 90
        0
176
     1
 90
        0
176
     1
 40
0.6
176
     1
 40
30.0
176
     1
 62
     7
420
 16777215
176
     1
 90
        1
176
     1
 90
        4
176
     1
 62
     7
176
     1
 62
   257
176
     1
 90
        1
176
     1
 90
        1
176
     1
 40
1.0
176
     1
 90
        8
176
     1
 62
     7
176
     1
 40
1.0
176
     1
 90
        1
176
     1
 90
        6
176
     1
 90
        2
176
     1
 62
     7
176
     1
 90
        5
176
     1
 90
        0
176
     1
 90
        0
176
     1
290
     0
176
     1
 90
        1
176
     1
 40
50.0
176
     1
 90
        0
176
     1
290
     0
176
     1
290
     1
176
     1
290
     1
176
     1
290
     0
176
     1
290
     0
176
     1
290
     0
176
     1
290
     0
176
     1
290
     0
176
     1
290
     0
176
     1
 90
       50
176
     1
 40
0.0
176
     1
 40
1.0
176
     1
 90
        0
176
     1
 62
    18
420
        0
176
     1
 90
       50
176
     1
 90
        3
176
     1
 62
     5
420
      255
176
     1
290
     0
176
     1
 90
       50
176
     1
 90
       50
176
     1
 90
       50
176
     1
290
     0
176
     1
 90
       50
176
     1
 62
   256
176
     0
 40
1.0
176
     0
 90
        2
176
     1
  1
strokes_ogs.tif
176
     1
290
     0
176
     1
 40
1.0
176
     1
 40
1.0
176
     1
  0
VISUALSTYLE
  5
697
102
{ACAD_REACTORS
330
687
102
}
330
687
100
AcDbVisualStyle
  2
ColorChange
 70
    16
177
     3
291
     1
 70
    58
 90
        2
176
     1
 90
        2
176
     1
 90
        3
176
     1
 90
        0
176
     1
 40
0.6
176
     1
 40
30.0
176
     1
 62
     8
420
  8421504
176
     1
 90
        1
176
     1
 90
        4
176
     1
 62
     7
176
     1
 62
   257
176
     1
 90
        1
176
     1
 90
        1
176
     1
 40
1.0
176
     1
 90
        8
176
     1
 62
     8
420
  8421504
176
     1
 40
1.0
176
     1
 90
        1
176
     1
 90
        6
176
     1
 90
        2
176
     1
 62
     7
176
     1
 90
        5
176
     1
 90
        0
176
     1
 90
        0
176
     1
290
     0
176
     1
 90
        1
176
     1
 40
0.0
176
     1
 90
        0
176
     1
290
     0
176
     1
290
     1
176
     1
290
     1
176
     1
290
     0
176
     1
290
     0
176
     1
290
     0
176
     1
290
     0
176
     1
290
     0
176
     1
290
     0
176
     1
 90
       50
176
     1
 40
0.0
176
     1
 40
1.0
176
     1
 90
        0
176
     1
 62
    18
420
        0
176
     1
 90
       50
176
     1
 90
        3
176
     1
 62
     5
420
      255
176
     1
290
     0
176
     1
 90
       50
176
     1
 90
       50
176
     1
 90
       50
176
     1
290
     0
176
     1
 90
       50
176
     1
 62
   256
176
     0
 40
1.0
176
     0
 90
        2
176
     1
  1
strokes_ogs.tif
176
     1
290
     0
176
     1
 40
1.0
176
     1
 40
1.0
176
     1
  0
VISUALSTYLE
  5
691
102
{ACAD_REACTORS
330
687
102
}
330
687
100
AcDbVisualStyle
  2
Conceptual
 70
     9
177
     3
291
     0
 70
    58
 90
        3
176
     1
 90
        2
176
     1
 90
        0
176
     1
 90
        0
176
     1
 40
0.6
176
     1
 40
30.0
176
     1
 62
     7
420
 16777215
176
     1
 90
        2
176
     1
 90
        2
176
     1
 62
     7
176
     1
 62
   257
176
     1
 90
        1
176
     1
 90
        1
176
     1
 40
179.0
176
     1
 90
        8
176
     1
 62
     7
176
     1
 40
1.0
176
     1
 90
        1
176
     1
 90
        6
176
     1
 90
        2
176
     1
 62
     7
176
     1
 90
        3
176
     1
 90
        0
176
     1
 90
        0
176
     1
290
     0
176
     1
 90
        1
176
     1
 40
0.0
176
     1
 90
        0
176
     1
290
     0
176
     1
290
     1
176
     1
290
     1
176
     1
290
     0
176
     1
290
     0
176
     1
290
     0
176
     1
290
     0
176
     1
290
     0
176
     1
290
     0
176
     1
 90
       50
176
     1
 40
0.0
176
     1
 40
1.0
176
     1
 90
        0
176
     1
 62
    18
420
        0
176
     1
 90
       50
176
     1
 90
        3
176
     1
 62
     5
420
      255
176
     1
290
     0
176
     1
 90
       50
176
     1
 90
       50
176
     1
 90
       50
176
     1
290
     0
176
     1
 90
       50
176
     1
 62
   256
176
     0
 40
1.0
176
     0
 90
        2
176
     1
  1
strokes_ogs.tif
176
     1
290
     0
176
     1
 40
1.0
176
     1
 40
1.0
176
     1
  0
VISUALSTYLE
  5
692
102
{ACAD_REACTORS
330
687
102
}
330
687
100
AcDbVisualStyle
  2
Dim
 70
    11
177
     3
291
     1
 70
    58
 90
        2
176
     1
 90
        2
176
     1
 90
        0
176
     1
 90
        0
176
     1
 40
0.6
176
     1
 40
30.0
176
     1
 62
     7
420
 16777215
176
     1
 90
        1
176
     1
 90
        4
176
     1
 62
     7
176
     1
 62
   257
176
     1
 90
        1
176
     1
 90
        1
176
     1
 40
1.0
176
     1
 90
        8
176
     1
 62
     7
176
     1
 40
1.0
176
     1
 90
        1
176
     1
 90
        6
176
     1
 90
        2
176
     1
 62
     7
176
     1
 90
        5
176
     1
 90
        0
176
     1
 90
        0
176
     1
290
     0
176
     1
 90
        1
176
     1
 40
-50.0
176
     1
 90
        0
176
     1
290
     0
176
     1
290
     1
176
     1
290
     1
176
     1
290
     0
176
     1
290
     0
176
     1
290
     0
176
     1
290
     0
176
     1
290
     0
176
     1
290
     0
176
     1
 90
       50
176
     1
 40
0.0
176
     1
 40
1.0
176
     1
 90
        0
176
     1
 62
    18
420
        0
176
     1
 90
       50
176
     1
 90
        3
176
     1
 62
     5
420
      255
176
     1
290
     0
176
     1
 90
       50
176
     1
 90
       50
176
     1
 90
       50
176
     1
290
     0
176
     1
 90
       50
176
     1
 62
   256
176
     0
 40
1.0
176
     0
 90
        2
176
     1
  1
strokes_ogs.tif
176
     1
290
     0
176
     1
 40
1.0
176
     1
 40
1.0
176
     1
  0
VISUALSTYLE
  5
69A
102
{ACAD_REACTORS
330
687
102
}
330
687
100
AcDbVisualStyle
  2
EdgeColorOff
 70
    22
177
     3
291
     1
 70
    58
 90
        2
176
     0
 90
        2
176
     0
 90
        0
176
     0
 90
        0
176
     0
 40
0.6
176
     0
 40
30.0
176
     0
 62
     7
420
 16777215
176
     0
 90
        1
176
     0
 90
        4
176
     0
 62
     7
176
     0
 62
   257
176
     0
 90
        1
176
     0
 90
        1
176
     0
 40
1.0
176
     0
 90
        8
176
     2
 62
     7
176
     0
 40
1.0
176
     0
 90
        1
176
     0
 90
        6
176
     0
 90
        2
176
     0
 62
     7
176
     0
 90
        5
176
     0
 90
        0
176
     0
 90
        0
176
     0
290
     0
176
     0
 90
        1
176
     0
 40
0.0
176
     0
 90
        0
176
     0
290
     0
176
     0
290
     1
176
     0
290
     1
176
     0
290
     0
176
     0
290
     0
176
     0
290
     0
176
     0
290
     0
176
     0
290
     0
176
     0
290
     0
176
     0
 90
       50
176
     0
 40
0.0
176
     0
 40
1.0
176
     0
 90
        0
176
     0
 62
    18
420
        0
176
     0
 90
       50
176
     0
 90
        3
176
     0
 62
     5
420
      255
176
     0
290
     0
176
     0
 90
       50
176
     0
 90
       50
176
     0
 90
       50
176
     0
290
     0
176
     0
 90
       50
176
     0
 62
   256
176
     0
 40
1.0
176
     0
 90
        2
176
     0
  1
strokes_ogs.tif
176
     0
290
     0
176
     0
 40
1.0
176
     0
 40
1.0
176
     0
  0
VISUALSTYLE
  5
696
102
{ACAD_REACTORS
330
687
102
}
330
687
100
AcDbVisualStyle
  2
Facepattern
 70
    15
177
     3
291
     1
 70
    58
 90
        2
176
     1
 90
        2
176
     1
 90
        0
176
     1
 90
        0
176
     1
 40
0.6
176
     1
 40
30.0
176
     1
 62
     7
420
 16777215
176
     1
 90
        1
176
     1
 90
        4
176
     1
 62
     7
176
     1
 62
   257
176
     1
 90
        1
176
     1
 90
        1
176
     1
 40
1.0
176
     1
 90
        8
176
     1
 62
     7
176
     1
 40
1.0
176
     1
 90
        1
176
     1
 90
        6
176
     1
 90
        2
176
     1
 62
     7
176
     1
 90
        5
176
     1
 90
        0
176
     1
 90
        0
176
     1
290
     0
176
     1
 90
        1
176
     1
 40
0.0
176
     1
 90
        0
176
     1
290
     0
176
     1
290
     1
176
     1
290
     1
176
     1
290
     0
176
     1
290
     0
176
     1
290
     0
176
     1
290
     0
176
     1
290
     0
176
     1
290
     0
176
     1
 90
       50
176
     1
 40
0.0
176
     1
 40
1.0
176
     1
 90
        0
176
     1
 62
    18
420
        0
176
     1
 90
       50
176
     1
 90
        3
176
     1
 62
     5
420
      255
176
     1
290
     0
176
     1
 90
       50
176
     1
 90
       50
176
     1
 90
       50
176
     1
290
     0
176
     1
 90
       50
176
     1
 62
   256
176
     0
 40
1.0
176
     0
 90
        2
176
     1
  1
strokes_ogs.tif
176
     1
290
     0
176
     1
 40
1.0
176
     1
 40
1.0
176
     1
  0
VISUALSTYLE
  5
688
102
{ACAD_REACTORS
330
687
102
}
330
687
100
AcDbVisualStyle
  2
Flat
 70
     0
177
     3
291
     1
 70
    58
 90
        2
176
     1
 90
        1
176
     1
 90
        1
176
     1
 90
        2
176
     1
 40
0.6
176
     1
 40
30.0
176
     1
 62
     7
420
 16777215
176
     1
 90
        0
176
     1
 90
        0
176
     1
 62
     7
176
     1
 62
   257
176
     1
 90
        1
176
     1
 90
        1
176
     1
 40
1.0
176
     1
 90
        8
176
     1
 62
     7
176
     1
 40
1.0
176
     1
 90
        1
176
     1
 90
        6
176
     1
 90
        2
176
     1
 62
     7
176
     1
 90
        5
176
     1
 90
        0
176
     1
 90
        0
176
     1
290
     0
176
     1
 90
       13
176
     1
 40
0.0
176
     1
 90
        0
176
     1
290
     0
176
     1
290
     1
176
     1
290
     1
176
     1
290
     0
176
     1
290
     0
176
     1
290
     0
176
     1
290
     0
176
     1
290
     0
176
     1
290
     0
176
     1
 90
       50
176
     1
 40
0.0
176
     1
 40
1.0
176
     1
 90
        0
176
     1
 62
    18
420
        0
176
     1
 90
       50
176
     1
 90
        3
176
     1
 62
     5
420
      255
176
     1
290
     0
176
     1
 90
       50
176
     1
 90
       50
176
     1
 90
       50
176
     1
290
     0
176
     1
 90
       50
176
     1
 62
   256
176
     0
 40
1.0
176
     0
 90
        2
176
     1
  1
strokes_ogs.tif
176
     1
290
     0
176
     1
 40
1.0
176
     1
 40
1.0
176
     1
  0
VISUALSTYLE
  5
689
102
{ACAD_REACTORS
330
687
102
}
330
687
100
AcDbVisualStyle
  2
FlatWithEdges
 70
     1
177
     3
291
     1
 70
    58
 90
        2
176
     1
 90
        1
176
     1
 90
        1
176
     1
 90
        2
176
     1
 40
0.6
176
     1
 40
30.0
176
     1
 62
     7
420
 16777215
176
     1
 90
        1
176
     1
 90
        0
176
     1
 62
     7
176
     1
 62
   257
176
     1
 90
        1
176
     1
 90
        1
176
     1
 40
1.0
176
     1
 90
        0
176
     1
 62
   257
176
     1
 40
1.0
176
     1
 90
        1
176
     1
 90
        6
176
     1
 90
        2
176
     1
 62
     7
176
     1
 90
        5
176
     1
 90
        0
176
     1
 90
        0
176
     1
290
     0
176
     1
 90
       13
176
     1
 40
0.0
176
     1
 90
        0
176
     1
290
     0
176
     1
290
     1
176
     1
290
     1
176
     1
290
     0
176
     1
290
     0
176
     1
290
     0
176
     1
290
     0
176
     1
290
     0
176
     1
290
     0
176
     1
 90
       50
176
     1
 40
0.0
176
     1
 40
1.0
176
     1
 90
        0
176
     1
 62
    18
420
        0
176
     1
 90
       50
176
     1
 90
        3
176
     1
 62
     5
420
      255
176
     1
290
     0
176
     1
 90
       50
176
     1
 90
       50
176
     1
 90
       50
176
     1
290
     0
176
     1
 90
       50
176
     1
 62
   256
176
     0
 40
1.0
176
     0
 90
        2
176
     1
  1
strokes_ogs.tif
176
     1
290
     0
176
     1
 40
1.0
176
     1
 40
1.0
176
     1
  0
VISUALSTYLE
  5
68A
102
{ACAD_REACTORS
330
687
102
}
330
687
100
AcDbVisualStyle
  2
Gouraud
 70
     2
177
     3
291
     1
 70
    58
 90
        2
176
     1
 90
        2
176
     1
 90
        1
176
     1
 90
        2
176
     1
 40
0.6
176
     1
 40
30.0
176
     1
 62
     7
420
 16777215
176
     1
 90
        0
176
     1
 90
        0
176
     1
 62
     7
176
     1
 62
   257
176
     1
 90
        1
176
     1
 90
        1
176
     1
 40
1.0
176
     1
 90
        0
176
     1
 62
     7
176
     1
 40
1.0
176
     1
 90
        1
176
     1
 90
        6
176
     1
 90
        2
176
     1
 62
     7
176
     1
 90
        5
176
     1
 90
        0
176
     1
 90
        0
176
     1
290
     0
176
     1
 90
       13
176
     1
 40
0.0
176
     1
 90
        0
176
     1
290
     0
176
     1
290
     1
176
     1
290
     1
176
     1
290
     0
176
     1
290
     0
176
     1
290
     0
176
     1
290
     0
176
     1
290
     0
176
     1
290
     0
176
     1
 90
       50
176
     1
 40
0.0
176
     1
 40
1.0
176
     1
 90
        0
176
     1
 62
    18
420
        0
176
     1
 90
       50
176
     1
 90
        3
176
     1
 62
     5
420
      255
176
     1
290
     0
176
     1
 90
       50
176
     1
 90
       50
176
     1
 90
       50
176
     1
290
     0
176
     1
 90
       50
176
     1
 62
   256
176
     0
 40
1.0
176
     0
 90
        2
176
     1
  1
strokes_ogs.tif
176
     1
290
     0
176
     1
 40
1.0
176
     1
 40
1.0
176
     1
  0
VISUALSTYLE
  5
68B
102
{ACAD_REACTORS
330
687
102
}
330
687
100
AcDbVisualStyle
  2
GouraudWithEdges
 70
     3
177
     3
291
     1
 70
    58
 90
        2
176
     1
 90
        2
176
     1
 90
        1
176
     1
 90
        2
176
     1
 40
0.6
176
     1
 40
30.0
176
     1
 62
     7
420
 16777215
176
     1
 90
        1
176
     1
 90
        0
176
     1
 62
     7
176
     1
 62
   257
176
     1
 90
        1
176
     1
 90
        1
176
     1
 40
1.0
176
     1
 90
        0
176
     1
 62
   257
176
     1
 40
1.0
176
     1
 90
        1
176
     1
 90
        6
176
     1
 90
        2
176
     1
 62
     7
176
     1
 90
        5
176
     1
 90
        0
176
     1
 90
        0
176
     1
290
     0
176
     1
 90
       13
176
     1
 40
0.0
176
     1
 90
        0
176
     1
290
     0
176
     1
290
     1
176
     1
290
     1
176
     1
290
     0
176
     1
290
     0
176
     1
290
     0
176
     1
290
     0
176
     1
290
     0
176
     1
290
     0
176
     1
 90
       50
176
     1
 40
0.0
176
     1
 40
1.0
176
     1
 90
        0
176
     1
 62
    18
420
        0
176
     1
 90
       50
176
     1
 90
        3
176
     1
 62
     5
420
      255
176
     1
290
     0
176
     1
 90
       50
176
     1
 90
       50
176
     1
 90
       50
176
     1
290
     0
176
     1
 90
       50
176
     1
 62
   256
176
     0
 40
1.0
176
     0
 90
        2
176
     1
  1
strokes_ogs.tif
176
     1
290
     0
176
     1
 40
1.0
176
     1
 40
1.0
176
     1
  0
VISUALSTYLE
  5
68E
102
{ACAD_REACTORS
330
687
102
}
330
687
100
AcDbVisualStyle
  2
Hidden
 70
     6
177
     3
291
     0
 70
    58
 90
        1
176
     1
 90
        2
176
     1
 90
        2
176
     1
 90
        0
176
     1
 40
0.6
176
     1
 40
30.0
176
     1
 62
     7
420
 16777215
176
     1
 90
        2
176
     1
 90
        2
176
     1
 62
     7
176
     1
 62
   257
176
     1
 90
        2
176
     1
 90
        1
176
     1
 40
40.0
176
     1
 90
        0
176
     1
 62
   257
176
     1
 40
1.0
176
     1
 90
        1
176
     1
 90
        6
176
     1
 90
        2
176
     1
 62
     7
176
     1
 90
        3
176
     1
 90
        0
176
     1
 90
        0
176
     1
290
     0
176
     1
 90
        1
176
     1
 40
0.0
176
     1
 90
        0
176
     1
290
     0
176
     1
290
     1
176
     1
290
     1
176
     1
290
     0
176
     1
290
     0
176
     1
290
     0
176
     1
290
     0
176
     1
290
     0
176
     1
290
     0
176
     1
 90
       50
176
     1
 40
0.0
176
     1
 40
1.0
176
     1
 90
        0
176
     1
 62
    18
420
        0
176
     1
 90
       50
176
     1
 90
        3
176
     1
 62
     5
420
      255
176
     1
290
     0
176
     1
 90
       50
176
     1
 90
       50
176
     1
 90
       50
176
     1
290
     0
176
     1
 90
       50
176
     1
 62
   256
176
     0
 40
1.0
176
     0
 90
        2
176
     1
  1
strokes_ogs.tif
176
     1
290
     0
176
     1
 40
1.0
176
     1
 40
1.0
176
     1
  0
VISUALSTYLE
  5
698
102
{ACAD_REACTORS
330
687
102
}
330
687
100
AcDbVisualStyle
  2
JitterOff
 70
    20
177
     3
291
     1
 70
    58
 90
        2
176
     0
 90
        2
176
     0
 90
        0
176
     0
 90
        0
176
     0
 40
0.6
176
     0
 40
30.0
176
     0
 62
     7
420
 16777215
176
     0
 90
        1
176
     0
 90
        4
176
     0
 62
     7
176
     0
 62
   257
176
     0
 90
        1
176
     0
 90
        1
176
     0
 40
1.0
176
     0
 90
       10
176
     2
 62
     7
176
     0
 40
1.0
176
     0
 90
        1
176
     0
 90
        6
176
     0
 90
        2
176
     0
 62
     7
176
     0
 90
        5
176
     0
 90
        0
176
     0
 90
        0
176
     0
290
     0
176
     0
 90
        1
176
     0
 40
0.0
176
     0
 90
        0
176
     0
290
     0
176
     0
290
     1
176
     0
290
     1
176
     0
290
     0
176
     0
290
     0
176
     0
290
     0
176
     0
290
     0
176
     0
290
     0
176
     0
290
     0
176
     0
 90
       50
176
     0
 40
0.0
176
     0
 40
1.0
176
     0
 90
        0
176
     0
 62
    18
420
        0
176
     0
 90
       50
176
     0
 90
        3
176
     0
 62
     5
420
      255
176
     0
290
     0
176
     0
 90
       50
176
     0
 90
       50
176
     0
 90
       50
176
     0
290
     0
176
     0
 90
       50
176
     0
 62
   256
176
     0
 40
1.0
176
     0
 90
        2
176
     0
  1
strokes_ogs.tif
176
     0
290
     0
176
     0
 40
1.0
176
     0
 40
1.0
176
     0
  0
VISUALSTYLE
  5
695
102
{ACAD_REACTORS
330
687
102
}
330
687
100
AcDbVisualStyle
  2
Linepattern
 70
    14
177
     3
291
     1
 70
    58
 90
        2
176
     1
 90
        2
176
     1
 90
        0
176
     1
 90
        0
176
     1
 40
0.6
176
     1
 40
30.0
176
     1
 62
     7
420
 16777215
176
     1
 90
        1
176
     1
 90
        4
176
     1
 62
     7
176
     1
 62
   257
176
     1
 90
        7
176
     1
 90
        7
176
     1
 40
1.0
176
     1
 90
        8
176
     1
 62
     7
176
     1
 40
1.0
176
     1
 90
        1
176
     1
 90
        6
176
     1
 90
        2
176
     1
 62
     7
176
     1
 90
        5
176
     1
 90
        0
176
     1
 90
        0
176
     1
290
     0
176
     1
 90
        1
176
     1
 40
0.0
176
     1
 90
        0
176
     1
290
     0
176
     1
290
     1
176
     1
290
     1
176
     1
290
     0
176
     1
290
     0
176
     1
290
     0
176
     1
290
     0
176
     1
290
     0
176
     1
290
     0
176
     1
 90
       50
176
     1
 40
0.0
176
     1
 40
1.0
176
     1
 90
        0
176
     1
 62
    18
420
        0
176
     1
 90
       50
176
     1
 90
        3
176
     1
 62
     5
420
      255
176
     1
290
     0
176
     1
 90
       50
176
     1
 90
       50
176
     1
 90
       50
176
     1
290
     0
176
     1
 90
       50
176
     1
 62
   256
176
     0
 40
1.0
176
     0
 90
        2
176
     1
  1
strokes_ogs.tif
176
     1
290
     0
176
     1
 40
1.0
176
     1
 40
1.0
176
     1
  0
VISUALSTYLE
  5
699
102
{ACAD_REACTORS
330
687
102
}
330
687
100
AcDbVisualStyle
  2
OverhangOff
 70
    21
177
     3
291
     1
 70
    58
 90
        2
176
     0
 90
        2
176
     0
 90
        0
176
     0
 90
        0
176
     0
 40
0.6
176
     0
 40
30.0
176
     0
 62
     7
420
 16777215
176
     0
 90
        1
176
     0
 90
        4
176
     0
 62
     7
176
     0
 62
   257
176
     0
 90
        1
176
     0
 90
        1
176
     0
 40
1.0
176
     0
 90
        9
176
     2
 62
     7
176
     0
 40
1.0
176
     0
 90
        1
176
     0
 90
        6
176
     0
 90
        2
176
     0
 62
     7
176
     0
 90
        5
176
     0
 90
        0
176
     0
 90
        0
176
     0
290
     0
176
     0
 90
        1
176
     0
 40
0.0
176
     0
 90
        0
176
     0
290
     0
176
     0
290
     1
176
     0
290
     1
176
     0
290
     0
176
     0
290
     0
176
     0
290
     0
176
     0
290
     0
176
     0
290
     0
176
     0
290
     0
176
     0
 90
       50
176
     0
 40
0.0
176
     0
 40
1.0
176
     0
 90
        0
176
     0
 62
    18
420
        0
176
     0
 90
       50
176
     0
 90
        3
176
     0
 62
     5
420
      255
176
     0
290
     0
176
     0
 90
       50
176
     0
 90
       50
176
     0
 90
       50
176
     0
290
     0
176
     0
 90
       50
176
     0
 62
   256
176
     0
 40
1.0
176
     0
 90
        2
176
     0
  1
strokes_ogs.tif
176
     0
290
     0
176
     0
 40
1.0
176
     0
 40
1.0
176
     0
  0
VISUALSTYLE
  5
690
102
{ACAD_REACTORS
330
687
102
}
330
687
100
AcDbVisualStyle
  2
Realistic
 70
     8
177
     3
291
     0
 70
    58
 90
        2
176
     1
 90
        3
176
     1
 90
        0
176
     1
 90
        2
176
     1
 40
0.6
176
     1
 40
30.0
176
     1
 62
     7
420
 16777215
176
     1
 90
        0
176
     1
 90
        0
176
     1
 62
     7
176
     1
 62
   257
176
     1
 90
        1
176
     1
 90
        1
176
     1
 40
1.0
176
     1
 90
        8
176
     1
 62
   257
176
     1
 40
1.0
176
     1
 90
        1
176
     1
 90
        6
176
     1
 90
        2
176
     1
 62
     7
176
     1
 90
        3
176
     1
 90
        0
176
     1
 90
        0
176
     1
290
     0
176
     1
 90
       13
176
     1
 40
0.0
176
     1
 90
        0
176
     1
290
     0
176
     1
290
     1
176
     1
290
     1
176
     1
290
     0
176
     1
290
     0
176
     1
290
     0
176
     1
290
     0
176
     1
290
     0
176
     1
290
     0
176
     1
 90
       50
176
     1
 40
0.0
176
     1
 40
1.0
176
     1
 90
        0
176
     1
 62
    18
420
        0
176
     1
 90
       50
176
     1
 90
        3
176
     1
 62
     5
420
      255
176
     1
290
     0
176
     1
 90
       50
176
     1
 90
       50
176
     1
 90
       50
176
     1
290
     0
176
     1
 90
       50
176
     1
 62
   256
176
     0
 40
1.0
176
     0
 90
        2
176
     1
  1
strokes_ogs.tif
176
     1
290
     0
176
     1
 40
1.0
176
     1
 40
1.0
176
     1
  0
VISUALSTYLE
  5
69F
102
{ACAD_REACTORS
330
687
102
}
330
687
100
AcDbVisualStyle
  2
Shaded
 70
    27
177
     3
291
     0
 70
    58
 90
        2
176
     1
 90
        2
176
     1
 90
        1
176
     1
 90
        2
176
     1
 40
0.6
176
     1
 40
30.0
176
     1
 62
     7
420
 16777215
176
     1
 90
        0
176
     1
 90
        4
176
     1
 62
     7
176
     1
 62
   257
176
     1
 90
        1
176
     1
 90
        1
176
     1
 40
1.0
176
     1
 90
        8
176
     1
 62
   257
176
     1
 40
1.0
176
     1
 90
        1
176
     1
 90
        6
176
     1
 90
        2
176
     1
 62
     8
420
  7895160
176
     1
 90
        3
176
     1
 90
        0
176
     1
 90
        0
176
     1
290
     0
176
     1
 90
        5
176
     1
 40
0.0
176
     1
 90
        0
176
     1
290
     0
176
     1
290
     1
176
     1
290
     1
176
     1
290
     0
176
     1
290
     0
176
     1
290
     0
176
     1
290
     0
176
     1
290
     0
176
     1
290
     0
176
     1
 90
       50
176
     1
 40
0.0
176
     1
 40
1.0
176
     1
 90
        0
176
     1
 62
    18
420
        0
176
     1
 90
       50
176
     1
 90
        3
176
     1
 62
     5
420
      255
176
     1
290
     0
176
     1
 90
       50
176
     1
 90
       50
176
     1
 90
       50
176
     1
290
     0
176
     1
 90
       50
176
     1
 62
   256
176
     0
 40
1.0
176
     0
 90
        2
176
     1
  1
strokes_ogs.tif
176
     1
290
     0
176
     1
 40
1.0
176
     1
 40
1.0
176
     1
  0
VISUALSTYLE
  5
69E
102
{ACAD_REACTORS
330
687
102
}
330
687
100
AcDbVisualStyle
  2
Shaded with edges
 70
    26
177
     3
291
     0
 70
    58
 90
        2
176
     1
 90
        2
176
     1
 90
        1
176
     1
 90
        2
176
     1
 40
0.6
176
     1
 40
30.0
176
     1
 62
     7
420
 16777215
176
     1
 90
        1
176
     1
 90
       10
176
     1
 62
     7
176
     1
 62
   257
176
     1
 90
        2
176
     1
 90
        1
176
     1
 40
1.0
176
     1
 90
        8
176
     1
 62
   257
176
     1
 40
1.0
176
     1
 90
        1
176
     1
 90
        6
176
     1
 90
        2
176
     1
 62
     7
176
     1
 90
        3
176
     1
 90
        0
176
     1
 90
        0
176
     1
290
     0
176
     1
 90
        5
176
     1
 40
0.0
176
     1
 90
        0
176
     1
290
     0
176
     1
290
     1
176
     1
290
     1
176
     1
290
     0
176
     1
290
     0
176
     1
290
     0
176
     1
290
     0
176
     1
290
     0
176
     1
290
     0
176
     1
 90
       50
176
     1
 40
0.0
176
     1
 40
1.0
176
     1
 90
        0
176
     1
 62
    18
420
        0
176
     1
 90
       50
176
     1
 90
        3
176
     1
 62
     5
420
      255
176
     1
290
     0
176
     1
 90
       50
176
     1
 90
       50
176
     1
 90
       50
176
     1
290
     0
176
     1
 90
       50
176
     1
 62
   256
176
     0
 40
1.0
176
     0
 90
        2
176
     1
  1
strokes_ogs.tif
176
     1
290
     0
176
     1
 40
1.0
176
     1
 40
1.0
176
     1
  0
VISUALSTYLE
  5
69B
102
{ACAD_REACTORS
330
687
102
}
330
687
100
AcDbVisualStyle
  2
Shades of Gray
 70
    23
177
     3
291
     0
 70
    58
 90
        2
176
     1
 90
        2
176
     1
 90
        3
176
     1
 90
        0
176
     1
 40
0.6
176
     1
 40
30.0
176
     1
 62
     7
420
 16777215
176
     1
 90
        2
176
     1
 90
        2
176
     1
 62
     7
176
     1
 62
     7
176
     1
 90
        1
176
     1
 90
        1
176
     1
 40
40.0
176
     1
 90
        8
176
     1
 62
     7
176
     1
 40
1.0
176
     1
 90
        1
176
     1
 90
        6
176
     1
 90
        2
176
     1
 62
     7
176
     1
 90
        3
176
     1
 90
        0
176
     1
 90
        0
176
     1
290
     0
176
     1
 90
        1
176
     1
 40
0.0
176
     1
 90
        0
176
     1
290
     0
176
     1
290
     1
176
     1
290
     1
176
     1
290
     0
176
     1
290
     0
176
     1
290
     0
176
     1
290
     0
176
     1
290
     0
176
     1
290
     0
176
     1
 90
       50
176
     1
 40
0.0
176
     1
 40
1.0
176
     1
 90
        0
176
     1
 62
    18
420
        0
176
     1
 90
       50
176
     1
 90
        3
176
     1
 62
     5
420
      255
176
     1
290
     0
176
     1
 90
       50
176
     1
 90
       50
176
     1
 90
       50
176
     1
290
     0
176
     1
 90
       50
176
     1
 62
   256
176
     0
 40
1.0
176
     0
 90
        2
176
     1
  1
strokes_ogs.tif
176
     1
290
     0
176
     1
 40
1.0
176
     1
 40
1.0
176
     1
  0
VISUALSTYLE
  5
69C
102
{ACAD_REACTORS
330
687
102
}
330
687
100
AcDbVisualStyle
  2
Sketchy
 70
    24
177
     3
291
     0
 70
    58
 90
        1
176
     1
 90
        2
176
     1
 90
        2
176
     1
 90
        0
176
     1
 40
0.6
176
     1
 40
30.0
176
     1
 62
     7
420
 16777215
176
     1
 90
        2
176
     1
 90
        2
176
     1
 62
     7
176
     1
 62
     7
176
     1
 90
        1
176
     1
 90
        1
176
     1
 40
40.0
176
     1
 90
       11
176
     1
 62
     7
176
     1
 40
1.0
176
     1
 90
        1
176
     1
 90
        6
176
     1
 90
        2
176
     1
 62
     7
176
     1
 90
        6
176
     1
 90
        0
176
     1
 90
        0
176
     1
290
     0
176
     1
 90
        1
176
     1
 40
0.0
176
     1
 90
        0
176
     1
290
     0
176
     1
290
     1
176
     1
290
     1
176
     1
290
     0
176
     1
290
     0
176
     1
290
     0
176
     1
290
     0
176
     1
290
     0
176
     1
290
     0
176
     1
 90
       50
176
     1
 40
0.0
176
     1
 40
1.0
176
     1
 90
        0
176
     1
 62
    18
420
        0
176
     1
 90
       50
176
     1
 90
        3
176
     1
 62
     5
420
      255
176
     1
290
     0
176
     1
 90
       50
176
     1
 90
       50
176
     1
 90
       50
176
     1
290
     0
176
     1
 90
       50
176
     1
 62
   256
176
     0
 40
1.0
176
     0
 90
        2
176
     1
  1
strokes_ogs.tif
176
     1
290
     0
176
     1
 40
1.0
176
     1
 40
1.0
176
     1
  0
VISUALSTYLE
  5
694
102
{ACAD_REACTORS
330
687
102
}
330
687
100
AcDbVisualStyle
  2
Thicken
 70
    13
177
     3
291
     1
 70
    58
 90
        2
176
     1
 90
        2
176
     1
 90
        0
176
     1
 90
        0
176
     1
 40
0.6
176
     1
 40
30.0
176
     1
 62
     7
420
 16777215
176
     1
 90
        1
176
     1
 90
        4
176
     1
 62
     7
176
     1
 62
   257
176
     1
 90
        1
176
     1
 90
        1
176
     1
 40
1.0
176
     1
 90
       12
176
     1
 62
     7
176
     1
 40
1.0
176
     1
 90
        1
176
     1
 90
        6
176
     1
 90
        2
176
     1
 62
     7
176
     1
 90
        5
176
     1
 90
        0
176
     1
 90
        0
176
     1
290
     0
176
     1
 90
        1
176
     1
 40
0.0
176
     1
 90
        0
176
     1
290
     0
176
     1
290
     1
176
     1
290
     1
176
     1
290
     0
176
     1
290
     0
176
     1
290
     0
176
     1
290
     0
176
     1
290
     0
176
     1
290
     0
176
     1
 90
       50
176
     1
 40
0.0
176
     1
 40
1.0
176
     1
 90
        0
176
     1
 62
    18
420
        0
176
     1
 90
       50
176
     1
 90
        3
176
     1
 62
     5
420
      255
176
     1
290
     0
176
     1
 90
       50
176
     1
 90
       50
176
     1
 90
       50
176
     1
290
     0
176
     1
 90
       50
176
     1
 62
   256
176
     0
 40
1.0
176
     0
 90
        2
176
     1
  1
strokes_ogs.tif
176
     1
290
     0
176
     1
 40
1.0
176
     1
 40
1.0
176
     1
  0
VISUALSTYLE
  5
68D
102
{ACAD_REACTORS
330
687
102
}
330
687
100
AcDbVisualStyle
  2
Wireframe
 70
     5
177
     3
291
     0
 70
    58
 90
        0
176
     1
 90
        2
176
     1
 90
        0
176
     1
 90
        0
176
     1
 40
0.6
176
     1
 40
30.0
176
     1
 62
     7
420
 16777215
176
     1
 90
        1
176
     1
 90
        4
176
     1
 62
     7
176
     1
 62
   257
176
     1
 90
        1
176
     1
 90
        1
176
     1
 40
1.0
176
     1
 90
        0
176
     1
 62
   257
176
     1
 40
1.0
176
     1
 90
        1
176
     1
 90
        6
176
     1
 90
        2
176
     1
 62
     7
176
     1
 90
        3
176
     1
 90
        0
176
     1
 90
        0
176
     1
290
     0
176
     1
 90
        1
176
     1
 40
0.0
176
     1
 90
        0
176
     1
290
     0
176
     1
290
     1
176
     1
290
     1
176
     1
290
     0
176
     1
290
     0
176
     1
290
     0
176
     1
290
     0
176
     1
290
     0
176
     1
290
     0
176
     1
 90
       50
176
     1
 40
0.0
176
     1
 40
1.0
176
     1
 90
        0
176
     1
 62
    18
420
        0
176
     1
 90
       50
176
     1
 90
        3
176
     1
 62
     5
420
      255
176
     1
290
     0
176
     1
 90
       50
176
     1
 90
       50
176
     1
 90
       50
176
     1
290
     0
176
     1
 90
       50
176
     1
 62
   256
176
     0
 40
1.0
176
     0
 90
        2
176
     1
  1
strokes_ogs.tif
176
     1
290
     0
176
     1
 40
1.0
176
     1
 40
1.0
176
     1
  0
VISUALSTYLE
  5
69D
102
{ACAD_REACTORS
330
687
102
}
330
687
100
AcDbVisualStyle
  2
X-Ray
 70
    25
177
     3
291
     0
 70
    58
 90
        2
176
     1
 90
        2
176
     1
 90
        1
176
     1
 90
        1
176
     1
 40
0.5
176
     1
 40
30.0
176
     1
 62
     7
420
 16777215
176
     1
 90
        1
176
     1
 90
        0
176
     1
 62
     7
176
     1
 62
   257
176
     1
 90
        1
176
     1
 90
        1
176
     1
 40
1.0
176
     1
 90
        8
176
     1
 62
     7
176
     1
 40
1.0
176
     1
 90
        1
176
     1
 90
        6
176
     1
 90
        2
176
     1
 62
     7
176
     1
 90
        3
176
     1
 90
        0
176
     1
 90
        0
176
     1
290
     0
176
     1
 90
       13
176
     1
 40
0.0
176
     1
 90
        0
176
     1
290
     0
176
     1
290
     1
176
     1
290
     1
176
     1
290
     0
176
     1
290
     0
176
     1
290
     0
176
     1
290
     0
176
     1
290
     0
176
     1
290
     0
176
     1
 90
       50
176
     1
 40
0.0
176
     1
 40
1.0
176
     1
 90
        0
176
     1
 62
    18
420
        0
176
     1
 90
       50
176
     1
 90
        3
176
     1
 62
     5
420
      255
176
     1
290
     0
176
     1
 90
       50
176
     1
 90
       50
176
     1
 90
       50
176
     1
290
     0
176
     1
 90
       50
176
     1
 62
   256
176
     0
 40
1.0
176
     0
 90
        2
176
     1
  1
strokes_ogs.tif
176
     1
290
     0
176
     1
 40
1.0
176
     1
 40
1.0
176
     1
  0
DICTIONARYVAR
  5
709
102
{ACAD_REACTORS
330
708
102
}
330
708
100
DictionaryVariables
280
     0
  1
1:1
  0
XRECORD
  5
6C9
102
{ACAD_REACTORS
330
6C8
102
}
330
6C8
100
AcDbXrecord
280
     1
290
     1
  0
XRECORD
  5
6CA
102
{ACAD_REACTORS
330
6C8
102
}
330
6C8
100
AcDbXrecord
280
     1
290
     1
  0
XRECORD
  5
6CB
102
{ACAD_REACTORS
330
6C8
102
}
330
6C8
100
AcDbXrecord
280
     1
290
     1
  0
XRECORD
  5
6CC
102
{ACAD_REACTORS
330
6C8
102
}
330
6C8
100
AcDbXrecord
280
     1
290
     1
  0
XRECORD
  5
6CD
102
{ACAD_REACTORS
330
6C8
102
}
330
6C8
100
AcDbXrecord
280
     1
1000
auto
  0
XRECORD
  5
6CE
102
{ACAD_REACTORS
330
6C8
102
}
330
6C8
100
AcDbXrecord
280
     1
1000
auto
  0
XRECORD
  5
6CF
102
{ACAD_REACTORS
330
6C8
102
}
330
6C8
100
AcDbXrecord
280
     1
1000
auto
  0
XRECORD
  5
6D0
102
{ACAD_REACTORS
330
6C8
102
}
330
6C8
100
AcDbXrecord
280
     1
1000
auto
  0
XRECORD
  5
6D1
102
{ACAD_REACTORS
330
6C8
102
}
330
6C8
100
AcDbXrecord
280
     1
1000
auto
  0
XRECORD
  5
6D2
102
{ACAD_REACTORS
330
6C8
102
}
330
6C8
100
AcDbXrecord
280
     1
1000
auto
  0
XRECORD
  5
6D3
102
{ACAD_REACTORS
330
6C8
102
}
330
6C8
100
AcDbXrecord
280
     1
1000
auto
  0
XRECORD
  5
6D4
102
{ACAD_REACTORS
330
6C8
102
}
330
6C8
100
AcDbXrecord
280
     1
1000
auto
  0
XRECORD
  5
6D5
102
{ACAD_REACTORS
330
6C8
102
}
330
6C8
100
AcDbXrecord
280
     1
290
     0
  0
XRECORD
  5
6D6
102
{ACAD_REACTORS
330
6C8
102
}
330
6C8
100
AcDbXrecord
280
     1
290
     0
  0
XRECORD
  5
6D7
102
{ACAD_REACTORS
330
6C8
102
}
330
6C8
100
AcDbXrecord
280
     1
290
     0
  0
XRECORD
  5
6D8
102
{ACAD_REACTORS
330
6C8
102
}
330
6C8
100
AcDbXrecord
280
     1
290
     0
  0
XRECORD
  5
6D9
102
{ACAD_REACTORS
330
6C8
102
}
330
6C8
100
AcDbXrecord
280
     1
 90
        0
  0
XRECORD
  5
6DA
102
{ACAD_REACTORS
330
6C8
102
}
330
6C8
100
AcDbXrecord
280
     1
 90
        0
  0
XRECORD
  5
6DB
102
{ACAD_REACTORS
330
6C8
102
}
330
6C8
100
AcDbXrecord
280
     1
 90
        0
  0
XRECORD
  5
6DC
102
{ACAD_REACTORS
330
6C8
102
}
330
6C8
100
AcDbXrecord
280
     1
 90
        0
  0
XRECORD
  5
6DD
102
{ACAD_REACTORS
330
6C8
102
}
330
6C8
100
AcDbXrecord
280
     1
1000
auto
  0
XRECORD
  5
6DE
102
{ACAD_REACTORS
330
6C8
102
}
330
6C8
100
AcDbXrecord
280
     1
1000
auto
  0
XRECORD
  5
6DF
102
{ACAD_REACTORS
330
6C8
102
}
330
6C8
100
AcDbXrecord
280
     1
1000
auto
  0
XRECORD
  5
6E0
102
{ACAD_REACTORS
330
6C8
102
}
330
6C8
100
AcDbXrecord
280
     1
1000
auto
  0
XRECORD
  5
6E1
102
{ACAD_REACTORS
330
6C8
102
}
330
6C8
100
AcDbXrecord
280
     1
1000
auto
  0
XRECORD
  5
6E2
102
{ACAD_REACTORS
330
6C8
102
}
330
6C8
100
AcDbXrecord
280
     1
1000
auto
  0
XRECORD
  5
6E3
102
{ACAD_REACTORS
330
6C8
102
}
330
6C8
100
AcDbXrecord
280
     1
1000
auto
  0
XRECORD
  5
6E4
102
{ACAD_REACTORS
330
6C8
102
}
330
6C8
100
AcDbXrecord
280
     1
1000
auto
  0
XRECORD
  5
6E5
102
{ACAD_REACTORS
330
6C8
102
}
330
6C8
100
AcDbXrecord
280
     1
 40
4.0
  0
XRECORD
  5
6E6
102
{ACAD_REACTORS
330
6C8
102
}
330
6C8
100
AcDbXrecord
280
     1
 40
10.0
  0
XRECORD
  5
6E7
102
{ACAD_REACTORS
330
6C8
102
}
330
6C8
100
AcDbXrecord
280
     1
 40
10.0
  0
XRECORD
  5
6E8
102
{ACAD_REACTORS
330
6C8
102
}
330
6C8
100
AcDbXrecord
280
     1
 40
10.0
  0
XRECORD
  5
6E9
102
{ACAD_REACTORS
330
6C8
102
}
330
6C8
100
AcDbXrecord
280
     1
 40
10.0
  0
XRECORD
  5
6EA
102
{ACAD_REACTORS
330
6C8
102
}
330
6C8
100
AcDbXrecord
280
     1
290
     0
  0
XRECORD
  5
6EB
102
{ACAD_REACTORS
330
6C8
102
}
330
6C8
100
AcDbXrecord
280
     1
 40
1.0
  0
XRECORD
  5
6EC
102
{ACAD_REACTORS
330
6C8
102
}
330
6C8
100
AcDbXrecord
280
     1
 40
0.0
  0
XRECORD
  5
6ED
102
{ACAD_REACTORS
330
6C8
102
}
330
6C8
100
AcDbXrecord
280
     1
 40
0.0
  0
XRECORD
  5
6EE
102
{ACAD_REACTORS
330
6C8
102
}
330
6C8
100
AcDbXrecord
280
     1
1000
Portrait
  0
XRECORD
  5
6EF
102
{ACAD_REACTORS
330
6C8
102
}
330
6C8
100
AcDbXrecord
280
     1
 40
297.0
  0
XRECORD
  5
6F0
102
{ACAD_REACTORS
330
6C8
102
}
330
6C8
100
AcDbXrecord
280
     1
 40
210.0
  0
XRECORD
  5
6F1
102
{ACAD_REACTORS
330
6C8
102
}
330
6C8
100
AcDbXrecord
280
     1
1000
1:1
  0
XRECORD
  5
6F2
102
{ACAD_REACTORS
330
6C8
102
}
330
6C8
100
AcDbXrecord
280
     1
290
     1
  0
XRECORD
  5
6F3
102
{ACAD_REACTORS
330
6C8
102
}
330
6C8
100
AcDbXrecord
280
     1
 90
        4
  0
ENDSEC
  0
EOF
